<svg width="24" height="24" viewBox="0 0 24 24" fill="none" xmlns="http://www.w3.org/2000/svg">
<rect width="24" height="24" rx="12" fill="white"/>
<path d="M16.6796 11.5654C16.6796 12.3439 16.046 12.9768 15.2667 12.9768C14.4873 12.9768 13.8574 12.3439 13.8574 11.5654C13.8574 10.7868 14.4908 10.1541 15.2666 10.1541C15.452 10.1538 15.6358 10.1901 15.8072 10.2609C15.9787 10.3317 16.1345 10.4357 16.2657 10.5667C16.397 10.6978 16.5011 10.8535 16.5721 11.0248C16.6431 11.1962 16.6796 11.3799 16.6796 11.5654Z" fill="black"/>
<path d="M21.3417 5.56801C21.1462 5.88084 18.5089 10.0262 18.2527 10.4207C18.1958 10.513 18.1352 10.602 18.0818 10.6908C18.0462 10.7477 18.0071 10.8045 17.9715 10.8616C17.6975 9.7986 16.8078 8.98095 15.7046 8.80674C15.7544 8.72853 17.3026 6.28262 17.6939 5.66049C17.7366 5.58933 17.7794 5.53613 17.8754 5.53613C19.0143 5.53966 20.1494 5.53966 21.2883 5.53966C21.2989 5.5467 21.3096 5.55727 21.3417 5.56801Z" fill="#3467FE"/>
<path d="M22 17.5804C21.4305 18.2559 20.7899 18.7324 19.975 18.9244C18.8541 19.1874 17.79 19.0665 16.8327 18.3768C16.1387 17.8755 15.715 17.1716 15.4056 16.3895C15.395 16.3647 15.3841 16.3399 15.3735 16.3078C15.37 16.3008 15.37 16.2937 15.3665 16.2865C15.243 15.9556 15.1256 15.6225 15.0142 15.2874C14.9037 14.9533 14.797 14.5978 14.7258 14.2957C14.9037 14.3311 15.0852 14.3489 15.2738 14.3489C16.1031 14.3489 16.8468 13.9864 17.3558 13.414L17.3629 13.4069C17.5513 13.8726 17.7472 14.6013 17.9323 15.1666V15.1701C17.9822 15.3265 18.0318 15.4688 18.0817 15.5897C18.2881 16.1015 18.5053 16.6064 18.918 16.9868L19.0034 17.0615C19.5409 17.5058 20.185 17.6231 20.8577 17.6446C21.2205 17.6622 21.5836 17.6125 22 17.5804Z" fill="#0217FF"/>
<path d="M12.9072 13.0514C12.2452 13.9757 11.5299 14.8537 10.6866 15.6323C9.97477 16.29 9.21683 16.8766 8.30564 17.232C7.95688 17.3671 7.59755 17.4418 7.22026 17.4381C6.15988 17.4418 5.39807 16.777 5.17031 15.6679C4.9711 14.6832 5.07079 13.7092 5.34822 12.7598C5.86079 11.0001 6.76123 9.443 7.95688 8.06028C8.49782 7.43445 9.12066 6.89775 9.93214 6.63811C10.505 6.45669 11.0816 6.40349 11.6439 6.69148C12.0746 6.91184 12.377 7.27099 12.6155 7.67964C12.9572 8.26267 13.1705 8.89203 13.3521 9.53547C13.869 9.04552 14.5546 8.77313 15.2668 8.77472C15.4162 8.77472 15.5585 8.78528 15.701 8.80677C15.7115 8.79251 15.7721 8.69651 15.8683 8.54362C15.7401 8.2521 15.6333 7.98542 15.5123 7.72597C15.1315 6.91906 14.6154 6.22224 13.868 5.71742C12.9856 5.12382 11.9997 4.93182 10.9428 5.0206C9.59395 5.13439 8.3377 5.52542 7.19172 6.23298C5.36618 7.35977 3.93186 8.86719 2.92837 10.762C2.28422 11.9742 1.9138 13.2648 2.01719 14.6547C2.14895 16.4464 3.05291 17.7298 4.66161 18.5119C5.91434 19.1232 7.24527 19.1766 8.59417 19.0096C9.71514 18.871 10.7722 18.5048 11.7471 17.9396C12.9289 17.257 13.9536 16.3647 14.911 15.3941C14.943 15.3586 14.9643 15.3089 15.0107 15.2874C14.9004 14.9533 14.7937 14.5978 14.7223 14.2957C14.3511 14.2227 13.9986 14.0746 13.6866 13.8607C13.3745 13.6468 13.1094 13.3714 12.9074 13.0514" fill="#0219FA"/>
</svg>
