<svg width="24" height="24" viewBox="0 0 24 24" fill="none" xmlns="http://www.w3.org/2000/svg">
<rect width="24" height="24" rx="12" fill="#2F2B32"/>
<path fill-rule="evenodd" clip-rule="evenodd" d="M8.89348 10.7234L12.0009 7.61599L15.111 10.7261L16.9189 8.91806L12.0009 4L7.08549 8.9154L8.89348 10.7234ZM3.99976 12.0009L5.80728 10.1933L7.6148 12.0009L5.80728 13.8084L3.99976 12.0009ZM12.0008 16.387L8.89343 13.2796L7.08277 15.0849L7.08544 15.0876L12.0008 20.003L16.9189 15.0849L15.1109 13.277L12.0008 16.387ZM16.3853 12.0021L18.1928 10.1946L20.0004 12.0021L18.1928 13.8096L16.3853 12.0021ZM12.0008 10.1669L13.8355 12.0015L12.0008 13.8388L10.1662 12.0042V11.9988L10.4884 11.6767L10.6455 11.5222L12.0008 10.1669Z" fill="#F3BA2F"/>
</svg>
