<svg width="24" height="24" viewBox="0 0 24 24" fill="none" xmlns="http://www.w3.org/2000/svg">
<rect width="24" height="24" rx="12" fill="#F5B300"/>
<path d="M7.78369 5.51749C8.22437 5.63768 8.66506 5.7178 9.10575 5.83799C9.54644 5.95818 9.98713 6.0383 10.4278 6.15849C10.548 6.19855 10.5881 6.15849 10.6281 6.0383C10.7884 5.35724 10.9486 4.71624 11.1089 4.03517C11.1489 3.91499 11.189 3.87492 11.3092 3.91499C11.7098 4.03517 12.0704 4.1153 12.471 4.19542C12.5912 4.23549 12.5912 4.27555 12.5511 4.35568C12.3909 4.99668 12.2306 5.67774 12.0704 6.31874C12.0704 6.35881 12.0704 6.39887 12.0303 6.47899C12.3508 6.55912 12.7114 6.63924 13.0319 6.71937C13.0719 6.71937 13.112 6.63924 13.1521 6.59918C13.2723 6.07837 13.3924 5.59762 13.5527 5.0768C13.5928 4.91655 13.6328 4.7563 13.6729 4.59605C13.6729 4.51593 13.7129 4.47586 13.7931 4.51593C14.1937 4.63611 14.5943 4.71624 15.035 4.83643C15.0751 4.83643 15.0751 4.87649 15.1151 4.87649C14.995 5.3973 14.8748 5.87805 14.7546 6.35881C14.7145 6.55912 14.6745 6.75943 14.5943 6.95974C14.5543 7.07993 14.5943 7.11999 14.7145 7.16006C15.1552 7.36037 15.5959 7.56068 16.0366 7.761C16.4372 8.00137 16.7978 8.32187 17.0782 8.7225C17.4388 9.32344 17.4788 9.96444 17.3186 10.6054C17.1984 11.0461 17.0381 11.4468 16.7176 11.7673C16.4773 12.0076 16.1568 12.1679 15.8363 12.2881C15.7962 12.2881 15.7561 12.3281 15.676 12.3281C15.8363 12.4483 15.9965 12.5284 16.1568 12.6486C16.6375 13.0092 16.958 13.4499 17.1183 14.0108C17.1984 14.4514 17.1583 14.9322 17.0381 15.3729C16.8779 15.9338 16.6776 16.4145 16.317 16.8552C15.8763 17.376 15.3155 17.6565 14.6745 17.7366C13.8331 17.8568 13.0319 17.7766 12.2306 17.6565C12.1104 17.6164 12.0303 17.6565 11.9903 17.7766C11.83 18.4176 11.6698 19.0987 11.5095 19.7397C11.4694 19.9 11.4694 19.94 11.2691 19.8599C10.9086 19.7798 10.5079 19.6596 10.1474 19.5795C10.0272 19.5394 10.0272 19.4993 10.0673 19.4192C10.2275 18.7381 10.3878 18.0571 10.5881 17.4161C10.5881 17.336 10.6281 17.2959 10.548 17.2558C10.2275 17.1757 9.907 17.0956 9.54644 17.0155C9.46631 17.376 9.34613 17.7366 9.266 18.0971C9.18588 18.4577 9.06569 18.8183 8.98556 19.1788C8.9455 19.259 8.9455 19.299 8.82531 19.259C8.42469 19.1388 8.02406 19.0586 7.62344 18.9785C7.50325 18.9385 7.50325 18.8984 7.54331 18.8183C7.70356 18.1372 7.86381 17.4561 8.06412 16.8151C8.06412 16.7751 8.10419 16.735 8.10419 16.6549C7.18275 16.4145 6.26131 16.1741 5.2998 15.9338C5.37993 15.7735 5.41999 15.6533 5.50012 15.4931C5.66037 15.1325 5.82062 14.7719 5.94081 14.4514C5.98087 14.3313 6.02093 14.3313 6.14112 14.3313C6.42156 14.4114 6.74206 14.4915 7.0225 14.5316C7.343 14.6117 7.58337 14.4514 7.62344 14.171C8.14425 12.1278 8.66506 10.0846 9.14581 8.00137C9.22594 7.68087 9.02563 7.32031 8.66506 7.20012C8.3045 7.07993 7.94394 6.99981 7.62344 6.91968C7.54331 6.91968 7.50325 6.87962 7.54331 6.79949C7.6635 6.35881 7.78369 5.87805 7.90387 5.43737C7.74362 5.55755 7.74362 5.55755 7.78369 5.51749ZM9.82688 15.413C9.86694 15.413 9.907 15.453 9.907 15.453C10.548 15.6133 11.2291 15.8136 11.9101 15.8536C12.3909 15.8937 12.8316 15.8937 13.2723 15.7335C14.0335 15.4931 14.354 14.4915 13.9133 13.8505C13.7129 13.53 13.3924 13.3297 13.0719 13.1294C12.3508 12.7288 11.5095 12.5685 10.7083 12.4083C10.5881 12.3682 10.5881 12.4083 10.548 12.5284C10.4679 12.9291 10.3477 13.2896 10.2676 13.6903C10.1073 14.2511 9.98713 14.812 9.82688 15.413ZM13.1921 11.3266C13.2723 11.3266 13.4726 11.2865 13.6328 11.2464C14.394 11.0862 14.7946 10.2048 14.394 9.52375C14.1937 9.16319 13.8331 8.92281 13.4726 8.76256C12.9117 8.52219 12.3508 8.402 11.7499 8.24175C11.6297 8.20168 11.5896 8.24175 11.5496 8.36193C11.3493 9.20325 11.1489 10.0045 10.9086 10.8458C10.8685 10.9259 10.9086 10.966 10.9887 11.0061C11.1489 11.0461 11.2691 11.0862 11.4294 11.1263C12.0303 11.2064 12.5511 11.3266 13.1921 11.3266Z" fill="white"/>
</svg>
