<svg width="24" height="24" viewBox="0 0 24 24" fill="none" xmlns="http://www.w3.org/2000/svg">
<rect width="24" height="24" rx="12" fill="black"/>
<path d="M12.1205 16.7681C12.9238 16.7681 13.727 16.529 14.5302 16.1305C16.7792 14.8551 17.5824 11.9058 16.2973 9.67393C15.0121 7.44205 12.0402 6.64495 9.79123 7.92031C8.66673 8.55799 7.94384 9.59422 7.54223 10.7899C7.22095 11.9855 7.38159 13.2609 8.02416 14.3768C8.82738 15.971 10.4338 16.7681 12.1205 16.7681ZM8.98802 11.2681C9.22898 10.471 9.71091 9.75364 10.5141 9.35509C10.996 9.03625 11.5583 8.95654 12.1205 8.95654C13.245 8.95654 14.2892 9.51451 14.9318 10.5507C15.8153 12.0652 15.2531 14.058 13.727 14.9348C12.2009 15.8116 10.1928 15.2536 9.3093 13.7391C8.9077 12.942 8.74705 12.0652 8.98802 11.2681Z" fill="white"/>
<path d="M17.4216 8.95649C18.0642 9.99272 19.028 10.7898 20.2329 11.1087C20.6345 11.1884 21.0361 11.2681 21.4377 11.2681C21.6786 11.2681 21.8393 11.2681 22.0803 11.1884C21.9999 10.7101 21.9196 10.2319 21.8393 9.67388C21.4377 9.75359 21.0361 9.67388 20.6345 9.59417C19.8313 9.35504 19.1887 8.87678 18.7068 8.15939C18.3052 7.442 18.1445 6.6449 18.3855 5.8478C18.4658 5.44924 18.7068 5.1304 18.9477 4.81156C18.5461 4.49272 18.2248 4.17388 17.7429 3.85504C17.3413 4.3333 17.1003 4.89127 16.9397 5.44924C16.6184 6.72461 16.7791 7.92026 17.4216 8.95649Z" fill="white"/>
<path d="M20.2329 13.0217C19.028 13.3406 18.0642 14.0579 17.4216 15.1739C16.7791 16.2101 16.6184 17.4855 16.9397 18.6811C17.1003 19.3188 17.4216 19.7971 17.7429 20.2753C18.1445 19.9565 18.5461 19.6377 18.9477 19.3188C18.7068 19 18.5461 18.6811 18.3855 18.2826C18.1445 17.4855 18.3052 16.6884 18.7068 15.971C19.1084 15.2536 19.8313 14.7753 20.6345 14.5362C21.0361 14.4565 21.4377 14.3768 21.8393 14.4565C21.9196 13.9782 21.9999 13.5 22.0803 12.942C21.4377 12.7826 20.8754 12.8623 20.2329 13.0217Z" fill="white"/>
<path d="M12.0402 19.7174C13.3254 19.7174 14.4499 20.5145 14.9318 21.6304C15.4137 21.471 15.8957 21.3116 16.3776 21.0724C15.6547 19.3985 14.0483 18.2029 12.1206 18.2029C10.1928 18.2029 8.5061 19.3985 7.86353 21.0724C8.34545 21.3116 8.82738 21.471 9.30931 21.6304C9.71092 20.5145 10.7551 19.7174 12.0402 19.7174Z" fill="white"/>
<path d="M12.0402 5.92754C13.9679 5.92754 15.6547 4.73188 16.2973 3.05797C15.8153 2.81884 15.4137 2.65942 14.8515 2.5C14.3695 3.61594 13.245 4.41304 11.9599 4.41304C10.6748 4.41304 9.55027 3.61594 9.06834 2.5C8.58641 2.65942 8.10449 2.81884 7.62256 3.05797C8.50609 4.73188 10.1125 5.92754 12.0402 5.92754Z" fill="white"/>
<path d="M6.73896 15.1739C6.09639 14.1377 5.13253 13.3406 3.92771 13.0217C3.28514 12.8623 2.72289 12.8623 2.08032 12.942C2.16064 13.4203 2.24096 13.8986 2.32129 14.4565C2.48193 14.4565 2.56225 14.4565 2.72289 14.4565C2.96386 14.4565 3.28514 14.4565 3.52611 14.5362C4.32932 14.7754 4.97189 15.2536 5.45382 15.971C6.09639 17.087 5.93574 18.442 5.21285 19.3986C5.61446 19.7174 5.93574 20.0362 6.41767 20.3551C7.46185 18.8406 7.70281 16.7681 6.73896 15.1739Z" fill="white"/>
<path d="M3.92771 11.1087C5.13253 10.7898 6.09639 10.0724 6.73896 8.95649C7.38153 7.92026 7.54217 6.6449 7.22088 5.44924C7.06024 4.81156 6.73896 4.3333 6.41767 3.85504C5.93574 4.17388 5.53414 4.49272 5.21285 4.81156C5.45382 5.1304 5.61446 5.44924 5.7751 5.8478C6.01606 6.6449 5.85542 7.442 5.45382 8.15939C5.05221 8.87678 4.32932 9.35504 3.52611 9.59417C3.1245 9.67388 2.72289 9.75359 2.32129 9.67388C2.24096 10.1521 2.16064 10.6304 2.08032 11.1884C2.32129 11.1884 2.48193 11.2681 2.72289 11.2681C3.1245 11.2681 3.52611 11.2681 3.92771 11.1087Z" fill="white"/>
</svg>
