<svg width="24" height="24" viewBox="0 0 24 24" fill="none" xmlns="http://www.w3.org/2000/svg">
<rect width="24" height="24" rx="12" fill="#0066CC"/>
<path d="M11.9993 23.9993C18.6266 23.9993 23.9991 18.6268 23.9991 11.9994C23.9991 5.37213 18.6266 -0.000366211 11.9993 -0.000366211C5.37201 -0.000366211 -0.000488281 5.37213 -0.000488281 11.9994C-0.000488281 18.6268 5.37201 23.9993 11.9993 23.9993Z" fill="#0066CC"/>
<path d="M5.27514 8.88346H13.7488C13.7488 8.88346 16.6736 8.85612 14.6508 12.6283C14.6508 12.6283 13.1748 15.5804 9.51197 15.5257L11.4855 10.4853C11.5093 10.4255 11.5183 10.3609 11.5118 10.2969C11.5052 10.2329 11.4833 10.1714 11.4479 10.1177C11.4124 10.064 11.3645 10.0197 11.3083 9.98848C11.252 9.95729 11.189 9.94016 11.1247 9.93857L8.52793 9.89483L5.2478 17.8765C5.2478 17.8765 6.34118 17.9858 6.94254 17.9311L6.61452 18.7512H8.16165C8.20455 18.7515 8.2465 18.7386 8.28174 18.7141C8.31698 18.6896 8.34378 18.6548 8.35846 18.6145L8.63727 17.8765L9.29329 17.8218L8.91061 18.7512H10.4195C10.475 18.7516 10.5293 18.735 10.5752 18.7038C10.6211 18.6725 10.6564 18.628 10.6764 18.5762L11.0974 17.4938C11.0974 17.4938 15.6895 16.7284 17.767 13.011C17.767 13.011 20.5551 8.69212 17.2749 7.16139C16.6357 6.86826 15.9521 6.68351 15.2522 6.6147L15.6349 5.66893C15.6465 5.64087 15.6511 5.61039 15.6482 5.58016C15.6453 5.54992 15.635 5.52086 15.6183 5.49551C15.6016 5.47015 15.5789 5.44928 15.5522 5.43472C15.5256 5.42017 15.4958 5.41236 15.4654 5.41199H14.0495L13.6121 6.56003H13.0108L13.3497 5.66893C13.3601 5.6404 13.3636 5.6098 13.3599 5.57965C13.3561 5.54951 13.3453 5.52069 13.3282 5.49558C13.3111 5.47047 13.2882 5.4498 13.2616 5.43526C13.2349 5.42072 13.2051 5.41275 13.1748 5.41199H11.7534L11.316 6.56003H6.8988C6.78009 6.55964 6.66349 6.59146 6.56143 6.65211C6.45938 6.71277 6.3757 6.79998 6.31931 6.90445L5.27514 8.88346Z" fill="white"/>
</svg>
