<svg width="24" height="24" viewBox="0 0 24 24" fill="none" xmlns="http://www.w3.org/2000/svg">
<rect width="24" height="24" rx="12" fill="#282B2C"/>
<g clip-path="url(#clip0_28_1931)">
<path fill-rule="evenodd" clip-rule="evenodd" d="M4.49322 7.53159C4.52106 7.55639 4.54388 7.5752 4.56504 7.59571C4.79096 7.81394 5.01494 8.03415 5.24375 8.24962C5.29506 8.29788 5.29534 8.33102 5.25859 8.38654C4.77918 9.10941 4.60484 9.90141 4.7648 10.7409C4.97922 11.8669 5.63659 12.6874 6.71056 13.1819C7.34492 13.4738 8.01779 13.5488 8.70949 13.4466C9.17434 13.3779 9.60968 13.2218 10.007 12.9763C10.0729 12.9355 10.1089 12.9402 10.1627 12.9928C10.7465 13.5648 11.3339 14.1333 11.917 14.7058C11.9814 14.7691 12.0147 14.7763 12.084 14.7088C12.7507 14.0596 13.4227 13.4153 14.0894 12.7661C14.1627 12.6946 14.2086 12.6824 14.3047 12.7382C14.8877 13.0768 15.5229 13.2125 16.2019 13.1819C17.55 13.1211 18.7811 12.2119 19.1988 10.9637C19.5151 10.0183 19.3978 9.12132 18.8824 8.26815C18.8487 8.21245 18.8456 8.17797 18.8973 8.12988C19.0852 7.95526 19.2678 7.77553 19.4527 7.59794C19.47 7.58147 19.4892 7.56696 19.5078 7.5512C21.4831 10.3532 21.7616 14.8607 18.5836 18.1796C15.2921 21.6171 9.86019 21.8847 6.23338 18.9341C2.55024 15.9376 2.1123 11.018 4.49322 7.53159Z" fill="white"/>
<path fill-rule="evenodd" clip-rule="evenodd" d="M18.1812 6.41997C14.6465 2.93164 8.89937 3.22743 5.83288 6.28072C5.85069 6.30015 5.86804 6.32075 5.88734 6.33937C7.91317 8.29887 9.93938 10.258 11.964 12.2187C12.021 12.2739 12.0533 12.2672 12.1053 12.2162C12.3668 11.9602 12.6309 11.7068 12.8952 11.4534C14.6036 9.81498 16.3122 8.17663 18.0217 6.53925C18.0676 6.49528 18.1244 6.46197 18.1812 6.41997ZM12.0302 13.4559C9.55897 11.0623 7.09436 8.67507 4.62354 6.28179C4.64135 6.25887 4.65564 6.23702 4.67336 6.21812C5.56464 5.26358 6.59908 4.49236 7.80657 3.94358C8.46561 3.64403 9.15053 3.41827 9.86311 3.27015C10.6837 3.09964 11.5133 3.03033 12.3513 3.06669C13.5733 3.11952 14.7427 3.38961 15.8603 3.87096C17.204 4.44964 18.3385 5.29573 19.3013 6.36409C19.357 6.42588 19.325 6.45355 19.2821 6.49466C18.0845 7.64388 16.8874 8.79355 15.6905 9.94349C14.4962 11.0909 13.3021 12.2387 12.1077 13.3862C12.0861 13.407 12.0629 13.4265 12.0302 13.4559Z" fill="white"/>
<path fill-rule="evenodd" clip-rule="evenodd" d="M8.84594 11.7781C8.34426 12.2213 7.22909 12.3239 6.49091 11.612C5.75022 10.8979 5.85163 9.84165 6.338 9.29251C7.17518 10.1222 8.01116 10.9508 8.84594 11.7781Z" fill="white"/>
<path fill-rule="evenodd" clip-rule="evenodd" d="M15.3328 11.6067C16.1726 10.794 17.0087 9.98495 17.8446 9.17593C18.1979 9.55769 18.362 10.5323 17.7501 11.2507C17.0698 12.0495 15.9473 12.0449 15.3328 11.6067Z" fill="white"/>
</g>
<defs>
<clipPath id="clip0_28_1931">
<rect width="18" height="18" fill="white" transform="translate(3 3)"/>
</clipPath>
</defs>
</svg>
