<svg width="24" height="24" viewBox="0 0 24 24" fill="none" xmlns="http://www.w3.org/2000/svg">
<rect width="24" height="24" rx="12" fill="black"/>
<path d="M20.3324 6.93325C20.0494 6.71012 19.712 6.40536 19.097 6.32917C18.5201 6.25298 17.9324 6.63937 17.5351 6.89516C17.1378 7.15094 16.3868 7.90196 16.0766 8.13053C15.7664 8.3591 14.9718 8.57135 13.6929 9.3387C12.414 10.106 7.39632 13.3278 7.39632 13.3278L8.70245 13.3441L2.87932 16.3428H3.46163L2.62354 16.9795C2.62354 16.9795 3.36367 17.1754 3.98408 16.7836V16.9632C3.98408 16.9632 10.9174 14.2312 12.2562 14.9387L11.4399 15.1782C11.5106 15.1782 12.8276 15.2652 12.8276 15.2652C12.8596 15.538 12.9513 15.8003 13.0961 16.0336C13.241 16.2668 13.4354 16.4653 13.6657 16.6149C14.4603 17.1373 14.4766 17.4258 14.4766 17.4258C14.4766 17.4258 14.063 17.5945 14.063 17.8067C14.063 17.8067 14.6725 17.6217 15.2385 17.638C15.5977 17.6516 15.954 17.7083 16.2997 17.8067C16.2997 17.8067 16.2562 17.5782 15.7065 17.4258C15.1569 17.2734 14.6127 16.6748 14.346 16.3482C14.1826 16.1404 14.0762 15.8936 14.0371 15.6322C13.9979 15.3707 14.0275 15.1036 14.1229 14.8571C14.3133 14.3618 14.9773 14.0897 16.3487 13.3822C17.965 12.5441 18.3351 11.9237 18.5637 11.4394C18.7922 10.955 19.1297 9.99176 19.3201 9.54006C19.5596 8.95774 19.8535 8.64754 20.0984 8.4625C20.3433 8.27747 21.4317 7.86931 21.4317 7.86931C21.4317 7.86931 20.599 7.1455 20.3324 6.93325Z" fill="white"/>
</svg>
