<svg width="24" height="24" viewBox="0 0 24 24" fill="none" xmlns="http://www.w3.org/2000/svg">
<rect width="24" height="24" rx="12" fill="#C0C0C0"/>
<path d="M11.2485 15.3084C13.5128 15.3512 15.7356 15.3927 17.9999 15.477C17.9169 15.8129 17.8328 16.1061 17.7913 16.4005C17.6644 16.8207 17.5387 17.1994 17.4558 17.6196C17.4131 17.8297 17.3289 17.8713 17.1203 17.8713H6.30022C6.67841 16.4005 7.05539 15.0152 7.43237 13.5445C6.84555 13.7546 6.3417 13.9647 5.75488 14.2164C5.92324 13.5872 6.09038 13.0412 6.30022 12.4524C6.30022 12.3693 6.42588 12.3266 6.51005 12.3266C6.88825 12.1592 7.30671 12.0322 7.68368 11.8637C7.80934 11.8233 7.93622 11.6975 7.93622 11.5705L9.69544 5.01922C9.73814 4.76757 9.8211 4.68329 10.1151 4.68329H13.9312C13.4701 6.40449 13.0504 8.12807 12.5893 9.93355C13.2602 9.64035 13.8898 9.38751 14.6022 9.13586C14.5181 9.47179 14.3924 9.76499 14.3509 10.0594C14.2667 10.7324 13.8898 11.1099 13.2188 11.2785C12.926 11.3616 12.6307 11.4874 12.3379 11.6144C12.2339 11.6766 12.1476 11.7631 12.0866 11.866C11.7926 12.9997 11.4986 14.0917 11.2473 15.2254V15.3096L11.2485 15.3084Z" fill="white"/>
</svg>
