<svg width="24" height="24" viewBox="0 0 24 24" fill="none" xmlns="http://www.w3.org/2000/svg">
<rect width="24" height="24" rx="12" fill="#EAE0D7"/>
<path d="M18.693 5L12.8918 9.3266L13.9646 6.77397L18.693 5Z" fill="#E2761B"/>
<path d="M5.3009 5L11.0554 9.36758L10.0351 6.77397L5.3009 5ZM16.6058 15.029L15.0608 17.406L18.3665 18.3194L19.3169 15.0817L16.6058 15.029ZM4.68872 15.0817L5.63323 18.3194L8.93899 17.406L7.39397 15.029L4.68872 15.0817Z" fill="#E4761B"/>
<path d="M8.75224 11.0127L7.83105 12.412L11.1135 12.5584L10.9969 9.01629L8.75224 11.0127ZM15.2413 11.0127L12.9675 8.97531L12.8917 12.5584L16.1683 12.412L15.2413 11.0127ZM8.93881 17.406L10.9094 16.44L9.207 15.1051L8.93881 17.406ZM13.0841 16.44L15.0606 17.406L14.7866 15.1051L13.0841 16.44Z" fill="#E4761B"/>
<path d="M15.0608 17.4061L13.0843 16.4401L13.2417 17.7339L13.2242 18.2784L15.0608 17.4061ZM8.93896 17.4061L10.7755 18.2784L10.7638 17.7339L10.9096 16.4401L8.93896 17.4061Z" fill="#D7C1B3"/>
<path d="M10.8045 14.2504L9.1604 13.7645L10.3206 13.2317L10.8045 14.2504ZM13.1891 14.2504L13.673 13.2317L14.8391 13.7645L13.1891 14.2504Z" fill="#233447"/>
<path d="M8.93882 17.4061L9.21867 15.0291L7.3938 15.0817L8.93882 17.4061ZM14.7808 15.0291L15.0606 17.4061L16.6056 15.0817L14.7808 15.0291ZM16.1684 12.412L12.8917 12.5584L13.1949 14.2504L13.6788 13.2317L14.8449 13.7644L16.1684 12.412ZM9.16037 13.7644L10.3264 13.2317L10.8045 14.2504L11.1135 12.5584L7.83107 12.412L9.16037 13.7644Z" fill="#CD6116"/>
<path d="M7.83105 12.412L9.207 15.1052L9.16036 13.7644L7.83105 12.412ZM14.8449 13.7644L14.7866 15.1052L16.1683 12.412L14.8449 13.7644ZM11.1135 12.5584L10.8045 14.2504L11.1893 16.2468L11.2767 13.6181L11.1135 12.5584ZM12.8917 12.5584L12.7343 13.6122L12.8043 16.2468L13.1949 14.2504L12.8917 12.5584Z" fill="#E4751F"/>
<path d="M13.195 14.2504L12.8043 16.2468L13.0842 16.44L14.7866 15.1052L14.8449 13.7644L13.195 14.2504ZM9.1604 13.7644L9.20704 15.1052L10.9095 16.44L11.1893 16.2468L10.8045 14.2504L9.1604 13.7644Z" fill="#F6851B"/>
<path d="M13.2242 18.2784L13.2417 17.734L13.096 17.6052H10.8979L10.7638 17.734L10.7755 18.2784L8.93896 17.4061L9.5803 17.933L10.8804 18.8405H13.1134L14.4194 17.933L15.0608 17.4061L13.2242 18.2784Z" fill="#C0AD9E"/>
<path d="M13.0841 16.4401L12.8043 16.2469H11.1893L10.9094 16.4401L10.7637 17.7339L10.8978 17.6051H13.0958L13.2415 17.7339L13.0841 16.4401Z" fill="#161616"/>
<path d="M18.9378 9.60762L19.4334 7.21892L18.6929 5L13.0842 9.18023L15.2414 11.0127L18.2906 11.9085L18.9669 11.1181L18.6754 10.9074L19.1418 10.48L18.7804 10.1989L19.2468 9.84181L18.9378 9.60762ZM4.56616 7.21892L5.06174 9.60762L4.7469 9.84181L5.21332 10.1989L4.85768 10.48L5.3241 10.9074L5.03258 11.1181L5.70307 11.9085L8.7523 11.0127L10.9095 9.18023L5.30078 5L4.56616 7.21892Z" fill="#763D16"/>
<path d="M18.2908 11.9085L15.2415 11.0127L16.1685 12.412L14.7868 15.1051L16.6058 15.0817H19.3169L18.2908 11.9085ZM8.75242 11.0127L5.70319 11.9085L4.68872 15.0817H7.39397L9.20718 15.1051L7.83124 12.412L8.75242 11.0127ZM12.8919 12.5583L13.0843 9.18019L13.9705 6.77393H10.0351L10.9096 9.18019L11.1137 12.5583L11.1836 13.6239L11.1895 16.2468H12.8045L12.8161 13.6239L12.8919 12.5583Z" fill="#F6851B"/>
</svg>
