<svg width="24" height="24" viewBox="0 0 24 24" fill="none" xmlns="http://www.w3.org/2000/svg">
<rect width="24" height="24" rx="12" fill="#50AF95"/>
<path d="M12.0589 5.07499C13.9152 5.07499 15.6973 5.07499 17.5536 5.07499C17.7021 5.07499 17.7764 5.1502 17.7764 5.2254C18.8159 7.55678 19.8554 9.81295 20.9692 12.0691C21.0435 12.1443 20.9692 12.2195 20.895 12.2947C19.6327 13.5732 18.3704 14.8517 17.0338 16.1302C15.4003 17.7095 13.6924 19.3641 12.0589 20.9434C11.9104 21.0186 11.9104 21.0186 11.8361 20.9434C10.2025 19.3641 8.56898 17.7847 6.93541 16.1302C5.67311 14.8517 4.33656 13.5732 3.07425 12.2947C3 12.2195 3 12.1443 3 12.0691C3.51977 10.8658 4.1138 9.73774 4.63357 8.53445C5.15334 7.40637 5.67311 6.35349 6.19288 5.2254C6.26713 5.07499 6.34139 4.99979 6.56415 4.99979C8.42047 5.07499 10.2025 4.99979 12.0589 5.07499ZM12.1331 7.10554C10.7966 7.10554 9.38576 7.10554 8.04921 7.10554C7.97496 7.10554 7.97496 7.10554 7.9007 7.10554C7.82645 7.10554 7.82645 7.10554 7.82645 7.18075C7.82645 7.8576 7.82645 8.53445 7.7522 9.28651C7.7522 9.36171 7.7522 9.36171 7.82645 9.36171C8.04921 9.36171 8.27197 9.36171 8.49473 9.36171C9.23726 9.36171 9.97979 9.36171 10.7223 9.36171C10.7966 9.36171 10.7966 9.36171 10.8708 9.36171C10.9451 9.36171 10.9451 9.43692 10.9451 9.51213C10.9451 9.81295 10.9451 10.189 10.9451 10.4898C10.9451 10.565 10.9451 10.565 10.8708 10.6402C10.3511 10.7154 9.83128 10.7154 9.31151 10.7906C8.64323 10.8658 7.97496 11.0162 7.38093 11.2419C7.08392 11.3171 6.86116 11.4675 6.6384 11.6179C6.41564 11.8435 6.41564 12.1443 6.6384 12.2947C6.78691 12.4451 6.93541 12.5204 7.08392 12.5956C7.60369 12.8212 8.12346 12.8964 8.64323 13.0468C9.38577 13.1972 10.1283 13.2724 10.8708 13.3476C11.0193 13.3476 11.0193 13.3476 11.0193 13.498C11.0193 14.8517 11.0193 16.2806 11.0193 17.6343C11.0193 17.7847 11.0193 17.7847 11.1678 17.7847C11.8361 17.7847 12.5786 17.7847 13.2469 17.7847C13.4697 17.7847 13.4697 17.7847 13.4697 17.5591C13.4697 16.431 13.4697 15.3782 13.4697 14.2501C13.4697 13.9493 13.4697 13.6484 13.4697 13.3476C13.4697 13.1972 13.5439 13.1972 13.6182 13.1972C14.3607 13.1972 15.029 13.122 15.7715 12.9716C16.3656 12.8964 16.8853 12.746 17.4051 12.5204C17.5536 12.4451 17.7021 12.2947 17.8506 12.2195C17.9991 12.0691 17.9991 11.9187 17.8506 11.7683C17.7021 11.6931 17.6279 11.5427 17.4793 11.4675C16.5883 10.941 15.5488 10.7154 14.5092 10.6402C14.2122 10.6402 13.9152 10.6402 13.6182 10.565C13.5439 10.565 13.5439 10.565 13.5439 10.4146C13.5439 10.1138 13.5439 9.73774 13.5439 9.43692C13.5439 9.36171 13.5439 9.28651 13.6924 9.28651C13.9152 9.28651 14.138 9.28651 14.3607 9.28651C15.1033 9.28651 15.7715 9.28651 16.5141 9.28651C16.6626 9.28651 16.6626 9.2113 16.6626 9.1361C16.6626 9.06089 16.6626 9.06089 16.6626 8.98568C16.6626 8.38404 16.6626 7.78239 16.6626 7.10554C16.6626 6.95513 16.6626 6.95513 16.5141 6.95513C14.8805 7.10554 13.4697 7.10554 12.1331 7.10554Z" fill="white"/>
<path d="M11.7615 12.8211C11.2417 12.8211 10.7962 12.8211 10.2764 12.7459C9.4596 12.6707 8.56857 12.5955 7.75178 12.2947C7.60328 12.2195 7.45477 12.1443 7.23201 12.0691C7.00925 11.9186 7.00925 11.7682 7.23201 11.693C7.52902 11.5426 7.82604 11.4674 8.12305 11.3922C8.71707 11.2418 9.3111 11.1666 9.97938 11.0914C10.2021 11.0914 10.4991 11.0162 10.7219 11.0162C10.7962 11.0162 10.8704 11.0162 10.8704 11.1666C10.8704 11.6178 10.8704 11.9938 10.8704 12.4451C10.8704 12.5955 10.9447 12.5955 11.0189 12.5955C11.6129 12.5955 12.207 12.5955 12.7267 12.5955C12.8752 12.5955 13.0238 12.5955 13.1723 12.5955C13.3208 12.5955 13.3208 12.5955 13.3208 12.4451C13.3208 12.0691 13.3208 11.693 13.3208 11.317C13.3208 11.0914 13.3208 11.0914 13.5435 11.0914C14.5088 11.1666 15.4741 11.2418 16.4394 11.5426C16.5879 11.6178 16.8107 11.693 16.9592 11.7682C17.1077 11.8434 17.1077 11.9938 16.9592 12.0691C16.6622 12.2947 16.3651 12.3699 15.9939 12.4451C15.2513 12.5955 14.5088 12.7459 13.7663 12.7459C13.1723 12.7459 12.4297 12.8211 11.7615 12.8211Z" fill="white"/>
</svg>
