<svg width="111" height="40" viewBox="0 0 111 40" fill="none" xmlns="http://www.w3.org/2000/svg">
<path fill-rule="evenodd" clip-rule="evenodd" d="M0.452515 5.06747H12.6178L0.452515 34.1612V5.06747ZM33.3268 5.06747H21.1773L33.3268 34.1612V5.06747ZM16.8977 15.7904L24.6407 34.1612H19.5606L17.2464 28.3124H11.5798L16.8977 15.7904ZM54.6078 27.6825L53.1734 23.5693H47.2849L45.9296 27.6349C45.8742 27.7855 45.8028 27.8331 45.6523 27.8331H43.1875C43.0448 27.8331 42.9893 27.7617 43.0131 27.5874L48.0932 13.1396C48.1963 12.8939 48.2676 12.6403 48.3151 11.8081C48.3151 11.7051 48.3706 11.6338 48.4657 11.6338H51.8895C52.0163 11.6338 52.04 11.6575 52.0638 11.7843L57.7621 27.6112C57.7859 27.7617 57.7621 27.8331 57.6115 27.8331H54.8535C54.7267 27.8331 54.6554 27.7855 54.6078 27.6825ZM48.3775 19.955C48.2719 20.2725 48.1686 20.5831 48.0695 20.8826H52.3888C52.2343 20.4005 52.0246 19.7624 51.7931 19.0578L51.7928 19.0568C51.2402 17.3753 50.5634 15.3159 50.2172 14.0985H50.1935C49.8499 15.5276 49.0656 17.8859 48.3776 19.9548L48.3775 19.955ZM65.0878 28.0787C66.5698 28.0787 68.1469 27.8093 69.7478 27.1198C69.8746 27.0722 69.8984 27.0167 69.8984 26.8979C69.8509 26.454 69.7954 25.8121 69.7954 25.3207V10.4212C69.7954 10.3261 69.7954 10.2785 69.6765 10.2785H66.9899C66.8868 10.2785 66.8393 10.3261 66.8393 10.4529V15.5013C66.4192 15.4537 66.126 15.43 65.7773 15.43C61.4421 15.43 58.7792 18.291 58.7792 21.8653C58.7792 26.0102 61.5135 28.0787 65.0878 28.0787ZM66.8393 25.3207C66.3954 25.4634 65.9041 25.5189 65.4048 25.5189C63.4393 25.5189 61.8305 24.4093 61.8305 21.7147C61.8305 19.3292 63.4869 17.9185 65.6822 17.9185C66.126 17.9185 66.5143 17.966 66.8393 18.0929V25.3207ZM72.4778 21.7702C72.4778 18.2672 74.7682 15.43 78.4693 15.43C82.2655 15.43 84.334 18.3148 84.334 21.691C84.334 25.5189 81.8931 28.0788 78.4138 28.0788C74.3006 28.0788 72.4778 24.9007 72.4778 21.7702ZM81.2987 21.7702C81.2987 19.7176 80.411 17.9185 78.3187 17.9185C76.6624 17.9185 75.4815 19.3768 75.4815 21.7148C75.4815 23.9893 76.591 25.5664 78.4693 25.5664C79.991 25.5664 81.2987 24.3063 81.2987 21.7702ZM87.1118 10.2785C87.0087 10.2785 86.9374 10.3261 86.9374 10.4529V27.3179C86.9374 27.3892 87.0087 27.516 87.1118 27.5398C88.2926 27.9044 89.529 28.0787 90.8049 28.0787C94.4585 28.0787 98.009 25.8121 98.009 21.2471C98.009 17.9423 95.7424 15.43 92.1919 15.43C91.3756 15.43 90.6147 15.5568 89.949 15.7787L89.9173 10.4766C89.9173 10.3023 89.8698 10.2785 89.6954 10.2785H87.1118ZM94.9736 21.5483C94.9736 24.2825 93.1033 25.5664 91.0823 25.5664C90.6623 25.5664 90.2898 25.5426 89.949 25.4396V18.2434C90.3374 18.0929 90.805 17.966 91.6688 17.966C93.6184 17.966 94.9736 19.2024 94.9736 21.5483ZM110.572 22.3329C110.231 22.4122 109.24 22.436 108.036 22.436H103.027C103.098 24.1557 104.239 25.5427 106.752 25.5427C107.861 25.5427 108.876 25.3445 109.811 24.9483C109.882 24.9007 109.953 24.9245 109.953 25.0434V27.096C109.953 27.2387 109.906 27.3179 109.811 27.3655C108.876 27.8093 107.79 28.0788 106.11 28.0788C101.624 28.0788 100.023 24.9245 100.023 21.8891C100.023 18.4654 102.092 15.43 105.816 15.43C109.462 15.43 110.873 18.291 110.873 20.6369C110.873 21.3264 110.841 21.8891 110.77 22.1586C110.746 22.2616 110.698 22.3091 110.572 22.3329ZM105.69 17.7997C103.986 17.7997 103.225 19.1073 103.027 20.312H106.704H106.704C107.639 20.312 107.956 20.312 108.059 20.2882V20.0901C108.059 19.3768 107.568 17.7997 105.69 17.7997Z" fill="#7A7493"/>
</svg>
