<svg width="108" height="40" viewBox="0 0 108 40" fill="none" xmlns="http://www.w3.org/2000/svg">
<path d="M57.0947 11.759C57.0947 12.9572 56.1294 13.9224 54.9312 13.9224C53.733 13.9224 52.7678 12.9572 52.7678 11.759C52.7678 10.5608 53.6998 9.59561 54.9312 9.59561C56.1627 9.6289 57.0947 10.5941 57.0947 11.759ZM48.1747 16.1191C48.1747 16.3188 48.1747 16.6517 48.1747 16.6517C48.1747 16.6517 47.143 15.3203 44.9463 15.3203C41.3184 15.3203 38.4893 18.0828 38.4893 21.9104C38.4893 25.7047 41.2851 28.5005 44.9463 28.5005C47.1762 28.5005 48.1747 27.1359 48.1747 27.1359V27.7017C48.1747 27.968 48.3744 28.1677 48.6407 28.1677H51.3366V15.6532C51.3366 15.6532 48.8737 15.6532 48.6407 15.6532C48.3744 15.6532 48.1747 15.8862 48.1747 16.1191ZM48.1747 24.1404C47.6755 24.8726 46.677 25.505 45.4788 25.505C43.3487 25.505 41.7178 24.1737 41.7178 21.9104C41.7178 19.6472 43.3487 18.3158 45.4788 18.3158C46.6437 18.3158 47.7088 18.9815 48.1747 19.6804V24.1404ZM53.3336 15.6532H56.5288V28.1677H53.3336V15.6532ZM101.062 15.3203C98.8652 15.3203 97.8334 16.6517 97.8334 16.6517V9.6289H94.6382V28.1677C94.6382 28.1677 97.1012 28.1677 97.3341 28.1677C97.6004 28.1677 97.8001 27.9347 97.8001 27.7017V27.1359C97.8001 27.1359 98.8319 28.5005 101.029 28.5005C104.656 28.5005 107.486 25.7047 107.486 21.9104C107.486 18.1161 104.656 15.3203 101.062 15.3203ZM100.529 25.4717C99.2979 25.4717 98.3326 24.8394 97.8334 24.1071V19.6472C98.3326 18.9815 99.3977 18.2825 100.529 18.2825C102.659 18.2825 104.29 19.6139 104.29 21.8771C104.29 24.1404 102.659 25.4717 100.529 25.4717ZM92.974 20.7455V28.201H89.7788V21.1116C89.7788 19.0481 89.1132 18.216 87.3159 18.216C86.3506 18.216 85.3521 18.7152 84.7198 19.4475V28.1677H81.5246V15.6532H84.0541C84.3204 15.6532 84.5201 15.8862 84.5201 16.1191V16.6517C85.452 15.6865 86.6835 15.3203 87.915 15.3203C89.3129 15.3203 90.4778 15.7197 91.4097 16.5185C92.5413 17.4505 92.974 18.6487 92.974 20.7455ZM73.7696 15.3203C71.5729 15.3203 70.5411 16.6517 70.5411 16.6517V9.6289H67.3459V28.1677C67.3459 28.1677 69.8089 28.1677 70.0418 28.1677C70.3081 28.1677 70.5078 27.9347 70.5078 27.7017V27.1359C70.5078 27.1359 71.5396 28.5005 73.7363 28.5005C77.3642 28.5005 80.1932 25.7047 80.1932 21.9104C80.2265 18.1161 77.3975 15.3203 73.7696 15.3203ZM73.237 25.4717C72.0056 25.4717 71.0403 24.8394 70.5411 24.1071V19.6472C71.0403 18.9815 72.1054 18.2825 73.237 18.2825C75.3672 18.2825 76.998 19.6139 76.998 21.8771C76.998 24.1404 75.3672 25.4717 73.237 25.4717ZM64.5834 15.3203C65.5486 15.3203 66.0479 15.4868 66.0479 15.4868V18.449C66.0479 18.449 63.3852 17.5503 61.721 19.4475V28.201H58.5258V15.6532C58.5258 15.6532 60.9888 15.6532 61.2218 15.6532C61.488 15.6532 61.6877 15.8862 61.6877 16.1191V16.6517C62.2868 15.9527 63.5849 15.3203 64.5834 15.3203ZM31.4 27.0361C31.2335 26.6367 31.0671 26.204 30.9007 25.8379C30.6344 25.2388 30.3682 24.6729 30.1352 24.1404L30.1019 24.1071C27.8054 19.1146 25.3424 14.0556 22.7463 9.06308L22.6465 8.86338C22.3802 8.36413 22.1139 7.8316 21.8477 7.29907C21.5148 6.69997 21.182 6.06758 20.6495 5.46849C19.5844 4.13715 18.0534 3.40492 16.4225 3.40492C14.7583 3.40492 13.2606 4.13715 12.1622 5.40192C11.663 6.00102 11.2969 6.6334 10.964 7.2325C10.6978 7.76503 10.4315 8.29756 10.1652 8.79681L10.0654 8.99651C7.50257 13.989 5.00633 19.0481 2.70978 24.0406L2.6765 24.1071C2.44351 24.6397 2.17725 25.2055 1.91098 25.8046C1.74457 26.1707 1.57815 26.5701 1.41173 27.0028C0.97905 28.2343 0.845917 29.3992 1.01233 30.5974C1.37845 33.0936 3.04261 35.1905 5.33916 36.1224C6.20452 36.4885 7.10317 36.6549 8.0351 36.6549C8.30137 36.6549 8.6342 36.6216 8.90047 36.5884C9.99882 36.4552 11.1305 36.0891 12.2288 35.4567C13.5934 34.6912 14.8915 33.5929 16.3559 31.9953C17.8204 33.5929 19.1517 34.6912 20.483 35.4567C21.5814 36.0891 22.713 36.4552 23.8114 36.5884C24.0776 36.6216 24.4105 36.6549 24.6767 36.6549C25.6087 36.6549 26.5406 36.4885 27.3727 36.1224C29.7025 35.1905 31.3334 33.0603 31.6995 30.5974C31.9658 29.4324 31.8326 28.2675 31.4 27.0361ZM16.3892 28.7668C14.5919 26.5035 13.427 24.3734 13.0276 22.5761C12.8612 21.8106 12.8279 21.1449 12.9277 20.5458C12.9943 20.0133 13.194 19.5473 13.4603 19.1479C14.0927 18.2493 15.1577 17.6835 16.3892 17.6835C17.6207 17.6835 18.719 18.216 19.3181 19.1479C19.5844 19.5473 19.7841 20.0133 19.8507 20.5458C19.9505 21.1449 19.9172 21.8439 19.7508 22.5761C19.3514 24.3401 18.1865 26.4702 16.3892 28.7668ZM29.6692 30.3311C29.4363 32.0618 28.2713 33.5596 26.6405 34.2252C25.8417 34.5581 24.9763 34.6579 24.1109 34.5581C23.2788 34.4582 22.4468 34.192 21.5814 33.6927C20.3832 33.027 19.185 31.9953 17.7871 30.4642C19.9838 27.7683 21.3151 25.3053 21.8144 23.1086C22.0474 22.0768 22.0806 21.1449 21.9808 20.2795C21.8477 19.4475 21.5481 18.6819 21.0821 18.0163C20.0504 16.5185 18.3196 15.6532 16.3892 15.6532C14.4588 15.6532 12.728 16.5518 11.6963 18.0163C11.2303 18.6819 10.9307 19.4475 10.7976 20.2795C10.6645 21.1449 10.6978 22.1101 10.964 23.1086C11.4633 25.3053 12.8279 27.8016 14.9913 30.4975C13.6267 32.0285 12.3952 33.0603 11.197 33.726C10.3316 34.2252 9.49957 34.4915 8.66749 34.5914C7.76884 34.6912 6.90347 34.5581 6.13796 34.2585C4.50708 33.5929 3.34216 32.0951 3.10918 30.3644C3.00933 29.5323 3.0759 28.7002 3.40873 27.7683C3.50858 27.4355 3.675 27.1026 3.84141 26.7032C4.07439 26.1707 4.34066 25.6049 4.60693 25.0391L4.64021 24.9725C6.93676 20.0133 9.39972 14.9542 11.9625 10.0283L12.0624 9.8286C12.3286 9.32935 12.5949 8.79681 12.8612 8.29756C13.1274 7.76503 13.427 7.26578 13.7931 6.8331C14.4921 6.0343 15.424 5.60162 16.4558 5.60162C17.4876 5.60162 18.4195 6.0343 19.1184 6.8331C19.4846 7.26578 19.7841 7.76503 20.0504 8.29756C20.3166 8.79681 20.5829 9.32935 20.8492 9.8286L20.949 10.0283C23.4785 14.9875 25.9415 20.0466 28.2381 25.0058V25.0391C28.5043 25.5716 28.7373 26.1707 29.0036 26.7032C29.17 27.1026 29.3364 27.4355 29.4362 27.7683C29.7025 28.6336 29.8024 29.4657 29.6692 30.3311Z" fill="#7A7493"/>
</svg>
