<svg width="128" height="40" viewBox="0 0 128 40" fill="none" xmlns="http://www.w3.org/2000/svg">
<path fill-rule="evenodd" clip-rule="evenodd" d="M14.992 7.2015L2.59161 12.1833C1.90203 12.4603 1.90918 13.4115 2.60308 13.6785L15.0552 18.4728C16.1493 18.8941 17.3677 18.8941 18.4618 18.4728L30.9141 13.6783C31.6078 13.4115 31.6153 12.4605 30.9254 12.1834L18.5253 7.20132C17.394 6.74682 16.1232 6.74682 14.9919 7.20132L14.992 7.2015ZM51.4358 22.4118L49.2104 16.5877C49.1196 16.3495 48.7726 16.3495 48.6816 16.5877L46.4566 22.4122C46.4408 22.4536 46.4356 22.4981 46.4413 22.5419C46.4471 22.5857 46.4637 22.6275 46.4896 22.6637C46.5156 22.6999 46.5502 22.7295 46.5906 22.75C46.6309 22.7704 46.6757 22.7811 46.7211 22.7811H51.1713C51.2168 22.781 51.2616 22.7704 51.3019 22.7499C51.3422 22.7294 51.3768 22.6998 51.4028 22.6636C51.4287 22.6273 51.4453 22.5855 51.451 22.5417C51.4567 22.4979 51.4514 22.4534 51.4356 22.412L51.4358 22.4118ZM52.4634 25.6854H45.4288C45.3713 25.6855 45.3151 25.7026 45.2679 25.7345C45.2206 25.7664 45.1845 25.8116 45.1645 25.864L43.7795 29.4879C43.7595 29.5403 43.7234 29.5855 43.6762 29.6174C43.6289 29.6493 43.5728 29.6664 43.5152 29.6664H40.466C40.4199 29.6664 40.3746 29.6554 40.3338 29.6344C40.2931 29.6134 40.2583 29.5831 40.2325 29.546C40.2067 29.5089 40.1906 29.4663 40.1857 29.4218C40.1808 29.3773 40.1872 29.3323 40.2043 29.2907L47.2244 12.3116C47.2454 12.2609 47.2816 12.2174 47.3283 12.1869C47.375 12.1563 47.43 12.14 47.4863 12.14H50.4059C50.521 12.14 50.6246 12.2079 50.6676 12.3116L57.6875 29.2906C57.7047 29.3321 57.7112 29.3772 57.7063 29.4217C57.7015 29.4662 57.6854 29.509 57.6596 29.5461C57.6337 29.5832 57.5989 29.6136 57.5582 29.6346C57.5174 29.6556 57.472 29.6666 57.4258 29.6666H54.3772C54.3196 29.6665 54.2635 29.6494 54.2162 29.6175C54.1689 29.5855 54.1329 29.5403 54.1129 29.4879L52.7277 25.864C52.7077 25.8116 52.6716 25.7664 52.6244 25.7345C52.5771 25.7026 52.521 25.6855 52.4634 25.6854ZM59.1161 18.0988H61.724C61.7988 18.0988 61.8706 18.1277 61.9235 18.179C61.9763 18.2304 62.006 18.3 62.006 18.3726V29.3926C62.006 29.4652 61.9763 29.5349 61.9235 29.5862C61.8706 29.6375 61.7988 29.6664 61.724 29.6664H59.1161C59.0413 29.6664 58.9696 29.6375 58.9167 29.5862C58.8638 29.5349 58.8341 29.4652 58.8341 29.3926V18.3724C58.8341 18.2998 58.8638 18.2302 58.9167 18.1788C58.9696 18.1275 59.0413 18.0987 59.1161 18.0987V18.0988ZM71.5173 20.7794C71.5173 20.8521 71.4876 20.9217 71.4347 20.9731C71.3818 21.0244 71.3101 21.0532 71.2353 21.0532H71.1563C69.8669 21.0532 68.921 21.3537 68.3194 21.9546C67.7175 22.5554 67.417 23.5488 67.417 24.9342V29.3926C67.417 29.4652 67.3873 29.5349 67.3344 29.5862C67.2816 29.6375 67.2098 29.6664 67.135 29.6664H64.5527C64.4779 29.6664 64.4062 29.6375 64.3533 29.5862C64.3004 29.5349 64.2707 29.4652 64.2707 29.3926V18.3724C64.2707 18.2998 64.3004 18.2302 64.3533 18.1788C64.4062 18.1275 64.4779 18.0987 64.5527 18.0987H67.1091C67.1839 18.0987 67.2556 18.1275 67.3085 18.1788C67.3614 18.2302 67.3911 18.2998 67.3911 18.3724V20.5522H67.4428C67.7522 19.6509 68.2422 18.9585 68.9129 18.4741C69.5832 17.9902 70.4085 17.748 71.3883 17.748H71.5173V20.7793V20.7794ZM78.6481 20.6776C78.5733 20.6776 78.5016 20.7064 78.4487 20.7578C78.3958 20.8091 78.3661 20.8788 78.3661 20.9514V25.535C78.3661 26.0025 78.4601 26.3363 78.6496 26.5366C78.8386 26.7368 79.1653 26.837 79.6295 26.837H79.8891C79.9639 26.837 80.0356 26.8659 80.0885 26.9172C80.1414 26.9686 80.1711 27.0382 80.1711 27.1108V29.4174C80.1711 29.49 80.1414 29.5597 80.0885 29.611C80.0356 29.6624 79.9639 29.6912 79.8891 29.6912H78.7784C77.6265 29.6912 76.7412 29.4034 76.1223 28.8275C75.5033 28.2516 75.1938 27.3965 75.1938 26.2611V20.9514C75.1938 20.8788 75.1641 20.8091 75.1112 20.7578C75.0583 20.7064 74.9866 20.6776 74.9118 20.6776H73.2839C73.2091 20.6776 73.1374 20.6488 73.0845 20.5974C73.0316 20.5461 73.0019 20.4764 73.0019 20.4038V18.3724C73.0019 18.2998 73.0316 18.2302 73.0845 18.1788C73.1374 18.1275 73.2091 18.0987 73.2839 18.0987H74.912C74.9868 18.0987 75.0585 18.0698 75.1114 18.0185C75.1643 17.9671 75.194 17.8975 75.194 17.8249V13.7404C75.194 13.6678 75.2237 13.5982 75.2766 13.5468C75.3295 13.4955 75.4012 13.4666 75.476 13.4666H78.0839C78.1587 13.4666 78.2304 13.4955 78.2833 13.5468C78.3362 13.5982 78.3659 13.6678 78.3659 13.7404V17.8249C78.3659 17.8975 78.3956 17.9671 78.4485 18.0185C78.5014 18.0698 78.5731 18.0987 78.6479 18.0987H80.5337C80.6085 18.0987 80.6803 18.1275 80.7331 18.1788C80.786 18.2302 80.8157 18.2998 80.8157 18.3724V20.404C80.8157 20.4766 80.786 20.5462 80.7331 20.5976C80.6803 20.6489 80.6085 20.6778 80.5337 20.6778H78.6481V20.6776ZM90.59 26.2361C91.1831 25.6353 91.4796 24.8507 91.4796 23.8824C91.4796 22.9147 91.1831 22.1298 90.59 21.5289C89.9969 20.928 89.2187 20.6276 88.256 20.6276C87.2931 20.6276 86.5155 20.928 85.9222 21.5289C85.3292 22.1298 85.0326 22.9147 85.0326 23.8824C85.0326 24.8507 85.3292 25.6353 85.9222 26.2361C86.5155 26.837 87.2931 27.1375 88.256 27.1375C89.2187 27.1375 89.9969 26.837 90.59 26.2361ZM84.5684 29.3158C83.6916 28.8319 82.9994 28.1264 82.4925 27.2001C81.9851 26.2737 81.7317 25.168 81.7317 23.8824C81.7317 22.5974 81.9851 21.4913 82.4925 20.565C82.9994 19.6386 83.6916 18.9337 84.5684 18.4493C85.4452 17.9652 86.4078 17.7232 87.4566 17.7232C88.385 17.7232 89.18 17.8984 89.8423 18.2489C90.5037 18.5993 91.0324 19.092 91.4281 19.7263H91.4796V18.3724C91.4796 18.2998 91.5093 18.2302 91.5622 18.1788C91.6151 18.1275 91.6868 18.0987 91.7616 18.0987H94.3438C94.4186 18.0987 94.4903 18.1275 94.5432 18.1788C94.5961 18.2302 94.6258 18.2998 94.6258 18.3724V29.3924C94.6258 29.465 94.5961 29.5347 94.5432 29.586C94.4903 29.6374 94.4186 29.6662 94.3438 29.6662H91.7616C91.6868 29.6662 91.6151 29.6374 91.5622 29.586C91.5093 29.5347 91.4796 29.465 91.4796 29.3924V28.0388H91.4281C91.0324 28.6734 90.5037 29.1655 89.8421 29.516C89.18 29.8664 88.3852 30.0417 87.4566 30.0417C86.4078 30.0417 85.4452 29.7996 84.5684 29.3158ZM105.365 26.2361C105.958 25.6353 106.254 24.8507 106.254 23.8824C106.254 22.9147 105.958 22.1298 105.365 21.5289C104.772 20.928 103.994 20.6276 103.031 20.6276C102.068 20.6276 101.29 20.928 100.697 21.5289C100.104 22.1298 99.8074 22.9147 99.8074 23.8824C99.8074 24.8507 100.104 25.6353 100.697 26.2361C101.29 26.837 102.068 27.1375 103.031 27.1375C103.994 27.1375 104.772 26.837 105.365 26.2361ZM101.445 29.516C100.783 29.1655 100.254 28.6734 99.8591 28.0388H99.8074V29.3924C99.8074 29.465 99.7777 29.5347 99.7248 29.586C99.6719 29.6374 99.6002 29.6662 99.5254 29.6662H96.9175C96.8427 29.6662 96.771 29.6374 96.7181 29.586C96.6652 29.5347 96.6355 29.465 96.6355 29.3924V12.4133C96.6355 12.3406 96.6652 12.271 96.7181 12.2197C96.771 12.1683 96.8427 12.1395 96.9175 12.1395H99.5254C99.6002 12.1395 99.6719 12.1683 99.7248 12.2197C99.7777 12.271 99.8074 12.3406 99.8074 12.4133V19.7261H99.8591C100.254 19.0918 100.783 18.5993 101.445 18.2489C102.107 17.8982 102.902 17.723 103.831 17.723C104.879 17.723 105.842 17.965 106.719 18.4491C107.596 18.9335 108.287 19.6385 108.795 20.5646C109.302 21.4915 109.556 22.5976 109.556 23.8826C109.556 25.1682 109.302 26.2737 108.795 27.2002C108.288 28.1266 107.596 28.8321 106.719 29.3158C105.842 29.7998 104.879 30.042 103.831 30.042C102.902 30.042 102.107 29.8668 101.445 29.5162L101.445 29.516ZM113.95 29.6664H111.342C111.267 29.6664 111.195 29.6375 111.142 29.5862C111.089 29.5349 111.06 29.4652 111.06 29.3926V12.4138C111.06 12.3412 111.089 12.2716 111.142 12.2202C111.195 12.1689 111.267 12.14 111.342 12.14H113.95C114.024 12.14 114.096 12.1689 114.149 12.2202C114.202 12.2716 114.232 12.3412 114.232 12.4138V29.3926C114.232 29.4652 114.202 29.5349 114.149 29.5862C114.096 29.6375 114.024 29.6664 113.95 29.6664ZM120.101 20.778C119.669 21.1054 119.377 21.5782 119.226 22.1966C119.184 22.3671 119.321 22.5306 119.502 22.5306H124.465C124.637 22.5306 124.773 22.381 124.745 22.2159C124.646 21.6309 124.387 21.1646 123.97 20.8156C123.48 20.4067 122.839 20.2023 122.048 20.2023C121.257 20.2023 120.608 20.3941 120.101 20.778ZM126.458 19.3382C127.472 20.4151 127.98 21.9383 127.98 23.9076V24.2347C127.98 24.3073 127.95 24.377 127.897 24.4283C127.844 24.4797 127.772 24.5085 127.698 24.5085H119.406C119.365 24.5086 119.324 24.5174 119.287 24.5344C119.249 24.5514 119.216 24.576 119.189 24.6067C119.163 24.6374 119.144 24.6734 119.133 24.7121C119.122 24.7508 119.12 24.7913 119.127 24.8308C119.26 25.5624 119.593 26.1436 120.127 26.5742C120.737 27.067 121.507 27.3129 122.435 27.3129C123.634 27.3129 124.743 26.8587 125.763 25.9503C125.888 25.8393 126.085 25.8629 126.182 25.9978L127.45 27.7646C127.49 27.8196 127.507 27.8868 127.499 27.9535C127.491 28.0202 127.458 28.0817 127.407 28.1264C126.784 28.6553 126.093 29.1016 125.349 29.4536C124.524 29.8456 123.552 30.042 122.435 30.042C121.146 30.042 120.019 29.7872 119.057 29.2783C118.094 28.7694 117.346 28.0517 116.813 27.125C116.28 26.1987 116.014 25.1264 116.014 23.9076C116.014 22.6894 116.272 21.6129 116.788 20.6778C117.303 19.7432 118.025 19.0171 118.954 18.4995C119.882 17.9824 120.965 17.7234 122.203 17.7234C124.025 17.7234 125.444 18.2618 126.458 19.3382ZM62.3467 14.0248C62.3467 15.0575 61.4843 15.8948 60.4205 15.8948C59.3564 15.8948 58.494 15.0575 58.494 14.0246C58.494 12.9917 59.3566 12.1544 60.4205 12.1544C61.4843 12.1544 62.3467 12.9917 62.3467 14.0246V14.0248ZM17.8633 33.0676V21.0909C17.8634 20.9293 17.9134 20.7714 18.0069 20.6377C18.1004 20.504 18.2331 20.4007 18.3879 20.3411L32.2634 15.112C32.8087 14.9021 33.4004 15.2921 33.4004 15.8618V27.8386C33.4004 28.0002 33.3504 28.1581 33.2569 28.2918C33.1634 28.4255 33.0306 28.5289 32.8759 28.5884L19.0004 33.8175C18.455 34.0274 17.8633 33.6371 17.8633 33.0676ZM10.5052 23.6391L10.5052 23.6391L10.0871 23.8354L1.39435 27.8793C0.843508 28.1374 0.140015 27.7475 0.140015 27.1532V15.912C0.140015 15.697 0.253566 15.5113 0.405846 15.3717C0.405883 15.3717 0.405921 15.3716 0.405959 15.3716L0.405869 15.3715C0.460534 15.3187 0.521624 15.2727 0.587752 15.2343C0.594098 15.2307 0.600491 15.227 0.606929 15.2235C0.610077 15.2218 0.613236 15.2201 0.616405 15.2184C0.694237 15.173 0.784547 15.1401 0.880317 15.1218C1.01289 15.0964 1.15593 15.0991 1.2908 15.1353C1.31832 15.1427 1.3455 15.1515 1.37219 15.1618L14.554 20.2328C15.224 20.4909 15.2766 21.4024 14.6231 21.7089C14.6231 21.7089 14.6231 21.7089 14.6231 21.7089V21.7087L10.5052 23.6391Z" fill="#7A7493"/>
</svg>
