<svg width="92" height="40" viewBox="0 0 92 40" fill="none" xmlns="http://www.w3.org/2000/svg">
<path fill-rule="evenodd" clip-rule="evenodd" d="M8.72869 15.1991L8.72857 15.0494V14.4392C6.69193 14.4392 4.54039 14.8751 4.54039 17.2763C4.54039 18.4927 5.1704 19.3169 6.25212 19.3169C7.04458 19.3169 7.75384 18.8295 8.20158 18.037C8.73091 17.1069 8.72989 16.2309 8.72869 15.1991ZM10.9039 21.9835C11.1139 22.0945 11.3833 22.0826 11.5696 21.9162L11.5775 21.9241C12.1401 21.4248 13.1624 20.5333 13.737 20.0539C13.9668 19.8637 13.9272 19.5586 13.7449 19.305C13.6897 19.2285 13.6341 19.1536 13.5788 19.0792C13.1188 18.4592 12.683 17.8718 12.683 16.6938V12.3035C12.683 12.1536 12.6838 12.0046 12.6847 11.8567C12.6943 10.1724 12.7031 8.63416 11.4428 7.45762C10.3611 6.41949 8.57008 6.05495 7.19911 6.05495C4.52058 6.05495 1.52902 7.05346 0.899007 10.366C0.83561 10.7186 1.0892 10.9048 1.31901 10.9564L4.05302 11.2496C4.30661 11.2377 4.49284 10.9881 4.54039 10.7345C4.77417 9.59331 5.73305 9.04255 6.80684 9.04255C7.38534 9.04255 8.04309 9.25651 8.38781 9.77558C8.73983 10.2947 8.73447 10.9862 8.72967 11.6065V11.6065V11.6066C8.72912 11.6775 8.72857 11.7475 8.72857 11.8162V12.1807C8.46482 12.2108 8.18793 12.2391 7.90259 12.2683C6.42181 12.4198 4.71329 12.5946 3.43094 13.1594C1.6677 13.9202 0.42749 15.4774 0.42749 17.7636C0.42749 20.6918 2.27393 22.1539 4.64341 22.1539C6.64835 22.1539 7.74195 21.6824 9.28726 20.1054C9.36879 20.2227 9.44159 20.3304 9.51008 20.4318C9.87431 20.9709 10.1168 21.3298 10.9039 21.9835ZM45.6616 15.0494L45.6617 15.1991V15.1991C45.6629 16.231 45.6639 17.1069 45.1346 18.037C44.6868 18.8295 43.9736 19.3169 43.1851 19.3169C42.1034 19.3169 41.4694 18.4927 41.4694 17.2763C41.4694 14.8751 43.621 14.4392 45.6616 14.4392V15.0494ZM48.5026 21.9162C48.3163 22.0826 48.0469 22.0945 47.8369 21.9835C47.041 21.3226 46.7991 20.963 46.4296 20.4138C46.365 20.3177 46.2964 20.2157 46.2203 20.1054C44.6749 21.6824 43.5774 22.1539 41.5764 22.1539C39.203 22.1539 37.3605 20.6918 37.3605 17.7636C37.3605 15.4774 38.5967 13.9202 40.3639 13.1594C41.6463 12.5946 43.3548 12.4198 44.8356 12.2683C45.1209 12.2391 45.3978 12.2108 45.6616 12.1807V11.8162C45.6616 11.748 45.6621 11.6786 45.6626 11.6082C45.6674 10.9874 45.6727 10.2952 45.3168 9.77558C44.9761 9.25652 44.3183 9.04255 43.7359 9.04255C42.6621 9.04255 41.7072 9.59331 41.4734 10.7345C41.4258 10.9881 41.2396 11.2377 40.9821 11.2496L38.252 10.9564C38.0222 10.9048 37.7646 10.7186 37.832 10.366C38.458 7.05346 41.4536 6.05495 44.1321 6.05495C45.5031 6.05495 47.294 6.41949 48.3758 7.45762C49.6361 8.63417 49.6273 10.1724 49.6177 11.8567L49.6177 11.8583C49.6168 12.0057 49.616 12.1541 49.616 12.3036V16.6938C49.616 17.8718 50.0518 18.4592 50.5118 19.0792C50.5671 19.1536 50.6227 19.2285 50.6779 19.305C50.8562 19.5586 50.8958 19.8637 50.666 20.0539C50.0914 20.5333 49.0692 21.4248 48.5065 21.9241L48.5026 21.9162ZM16.4472 21.9558H19.2645C19.5656 21.9558 19.8073 21.722 19.8073 21.4328V13.7696L19.8071 13.5873C19.8043 11.9344 19.8007 9.78353 21.7528 9.78353C23.5496 9.78353 23.5189 11.6972 23.4939 13.2554C23.4911 13.4325 23.4883 13.6051 23.4883 13.7696L23.4923 21.4328C23.4923 21.7102 23.7142 21.936 23.9994 21.9558H26.8127C27.1138 21.9558 27.3555 21.722 27.3555 21.4328V13.7696C27.3555 13.7056 27.3554 13.6392 27.3552 13.5708C27.3531 12.762 27.3504 11.6722 27.6171 11C27.9063 10.2709 28.6195 9.81523 29.301 9.81523C30.1173 9.81523 30.7473 10.0886 30.9573 11.0594C31.0657 11.5251 31.051 12.6017 31.0411 13.3223L31.0411 13.3228C31.0387 13.4972 31.0366 13.6507 31.0366 13.7696V21.4328C31.0366 21.7102 31.2624 21.936 31.5437 21.9558H34.357C34.6581 21.9558 34.8998 21.722 34.8998 21.4328L34.9038 12.3075C34.9038 12.085 34.9075 11.858 34.9113 11.6288L34.9114 11.6285C34.934 10.2618 34.9579 8.81627 34.1945 7.77463C33.406 6.68103 32.1143 6.19366 30.9335 6.19366C29.2733 6.19366 27.724 7.04556 27.0425 8.8722C26.25 7.04556 25.1485 6.19366 23.3853 6.19366C21.6498 6.19366 20.362 7.04556 19.6765 8.8722H19.625V6.98217C19.6052 6.72065 19.3873 6.51064 19.1139 6.49876H16.4869C16.1857 6.49876 15.944 6.72858 15.944 7.01783V21.4764C15.9638 21.7339 16.1778 21.936 16.4472 21.9558ZM53.0434 6.98214V9.05047C53.0434 9.35954 53.2811 9.56954 53.5783 9.56954H58.4163L52.8571 17.5418C52.5203 18.0529 52.5164 18.6274 52.5164 18.9642V21.0603C52.5164 21.3614 52.8532 21.7101 53.1741 21.5358C56.3242 19.8637 60.1082 20.0261 62.9571 21.5199C63.3058 21.7022 63.6386 21.3496 63.6386 21.0484V18.8414C63.6109 18.5442 63.5119 18.2431 63.1473 18.037C61.5307 17.1257 59.6486 16.8602 57.8655 16.9038L62.6639 10.0529C63.1077 9.43878 63.3573 9.05047 63.3613 8.7533V6.98214C63.3613 6.67308 63.1235 6.45911 62.8264 6.45911H53.5664C53.2811 6.45911 53.0434 6.66911 53.0434 6.98214ZM71.3334 6.19366C75.5136 6.19366 77.7761 9.78353 77.7761 14.3481C77.7761 18.7582 75.2759 22.257 71.3334 22.257C67.2284 22.257 64.9937 18.6671 64.9937 14.1936C64.9937 9.6924 67.2561 6.19366 71.3334 6.19366ZM71.3572 9.1456C69.2809 9.1456 69.1501 11.9747 69.1501 13.7379L69.1501 13.8028C69.1498 15.5957 69.1491 19.2773 71.3334 19.2773C73.5166 19.2773 73.6197 16.2342 73.6197 14.3798C73.6197 13.1594 73.5681 11.7013 73.1996 10.5443C72.8827 9.53787 72.2526 9.1456 71.3572 9.1456ZM80.3914 21.9558H83.1967C83.4979 21.9558 83.7435 21.722 83.7475 21.4328V13.6468C83.7475 12.6721 83.799 11.7924 84.1952 10.9088C84.5083 10.2115 85.1383 9.75183 85.8237 9.75183C87.6193 9.75183 87.6024 11.723 87.5892 13.2697C87.5881 13.3988 87.587 13.525 87.587 13.6468V21.5001C87.6147 21.7458 87.8287 21.936 88.0862 21.9558H90.9114C91.1887 21.9558 91.4225 21.7537 91.4542 21.5001V12.3987C91.4542 11 91.4542 9.05446 90.7172 7.89746C89.9248 6.64933 88.6925 6.19366 87.4285 6.19366C85.483 6.19366 84.3775 7.1367 83.589 9.1139H83.5375V6.90292C83.482 6.67707 83.2799 6.51064 83.0343 6.49876H80.4231C80.1378 6.49876 79.904 6.7048 79.8803 6.97028L79.8842 21.4328C79.8842 21.7102 80.1101 21.936 80.3914 21.9558ZM52.9535 24.7813C54.671 24.5776 58.4278 24.132 59.0976 24.9909C59.7747 25.8581 58.3464 29.4245 57.7079 31.0187L57.7068 31.0215C57.5126 31.5049 57.9287 31.6991 58.3645 31.3345C61.2055 28.9611 61.9346 23.9884 61.3561 23.2712C60.7776 22.558 55.8168 21.9438 52.7935 24.0716C52.326 24.3965 52.4052 24.8482 52.9243 24.7848L52.9535 24.7813ZM37.3403 33.4861C43.9416 33.4861 51.6087 31.4058 56.8984 27.5069C57.7741 26.8571 57.0252 25.8903 56.1297 26.2707C50.2021 28.7867 43.7553 29.9992 37.8951 29.9992C29.2057 29.9992 20.7936 27.6178 13.9903 23.6595C13.3959 23.3108 12.9522 23.921 13.4474 24.3687C19.7515 30.0626 28.0843 33.4861 37.3403 33.4861Z" fill="#7A7493"/>
</svg>
