<svg width="106" height="40" viewBox="0 0 106 40" fill="none" xmlns="http://www.w3.org/2000/svg">
<path fill-rule="evenodd" clip-rule="evenodd" d="M13.6047 25.7212C13.6047 23.0302 15.7862 20.8488 18.477 20.8488C21.1679 20.8488 23.3492 23.0302 23.3492 25.7212C23.3492 28.4121 21.1679 30.5935 18.477 30.5935C15.7862 30.5935 13.6047 28.4121 13.6047 25.7212ZM0.946289 25.7212C0.946289 23.0302 3.12769 20.8493 5.81853 20.8493C8.50948 20.8493 10.691 23.0302 10.691 25.7212C10.691 28.4121 8.50948 30.5935 5.81853 30.5935C3.12769 30.5935 0.946289 28.4121 0.946289 25.7212ZM12.1478 19.631C14.8387 19.631 17.0199 17.4494 17.0199 14.7584C17.0199 12.0678 14.8387 9.88622 12.1478 9.88622C9.45683 9.88622 7.27554 12.0678 7.27554 14.7584C7.27554 17.4494 9.45683 19.631 12.1478 19.631ZM47.4746 23.8176C48.6869 24.6581 50.0102 25.0664 51.2818 25.0664C52.4932 25.0664 53.7457 24.4378 53.7457 23.3438C53.7457 22.236 52.1758 21.8377 50.6693 21.4555C50.1896 21.3338 49.7162 21.2136 49.302 21.0728C47.587 20.4896 46.1099 19.2839 46.1099 17.3315C46.1099 14.344 48.7698 13.1102 51.2524 13.1102C52.8254 13.1102 54.4483 13.6292 55.5005 14.3728C55.8628 14.6476 55.6422 14.9631 55.6422 14.9631L54.6378 16.3987C54.5249 16.5604 54.3275 16.7001 54.0442 16.5251C54.0245 16.513 54.0014 16.4983 53.975 16.4815C53.6203 16.2559 52.6619 15.6462 51.2524 15.6462C49.7377 15.6462 48.8253 16.3463 48.8253 17.2139C48.8253 18.2544 50.0111 18.5817 51.4001 18.9363C53.8206 19.5893 56.4611 20.3741 56.4611 23.3438C56.4611 25.976 54.0008 27.6027 51.2818 27.6027C49.2213 27.6027 47.467 27.0149 45.9957 25.9344C45.6892 25.6274 45.9032 25.3423 45.9032 25.3423L46.9027 23.9139C47.1061 23.6469 47.3625 23.74 47.4746 23.8176ZM71.7229 27.3064C70.7212 27.3064 70.143 26.3864 70.0796 25.6636L70.0794 25.662C69.1298 26.9195 67.2126 27.6022 65.4535 27.6022C61.455 27.6022 58.2136 24.3581 58.2136 20.3561C58.2136 16.3543 61.455 13.1104 65.4535 13.1104C67.2126 13.1104 68.9668 13.6796 70.0796 15.0511V14.0038H70.0816C70.0939 13.7866 70.2733 13.6127 70.4929 13.6127H72.3089C72.5282 13.6127 72.7079 13.7866 72.7197 14.0038H72.7221V26.8929C72.7221 27.1202 72.5361 27.3064 72.3089 27.3064H71.7229ZM60.856 20.3561C60.856 22.9577 62.9177 25.0662 65.4605 25.0662C68.0037 25.0662 70.065 22.9577 70.065 20.3561C70.065 17.755 68.0037 15.6463 65.4605 15.6463C62.9177 15.6463 60.856 17.755 60.856 20.3561ZM103.154 25.6636C103.217 26.3864 103.795 27.3064 104.798 27.3064H105.383C105.611 27.3064 105.797 27.1203 105.797 26.8929V14.0038H105.794C105.783 13.7866 105.603 13.6127 105.383 13.6127H103.568C103.348 13.6127 103.168 13.7866 103.157 14.0038H103.154V15.0511C102.041 13.6796 100.287 13.1104 98.5283 13.1104C94.5296 13.1104 91.2883 16.3543 91.2883 20.3561C91.2883 24.3582 94.5296 27.6021 98.5283 27.6021C100.287 27.6021 102.205 26.9194 103.154 25.662V25.6636ZM98.5349 25.0662C95.992 25.0662 93.9305 22.9576 93.9305 20.3561C93.9305 17.755 95.992 15.6463 98.5349 15.6463C101.079 15.6463 103.14 17.755 103.14 20.3561C103.14 22.9576 101.079 25.0662 98.5349 25.0662ZM88.9918 19.4373C88.9918 15.6777 86.6219 13.1414 82.8427 13.1414C81.0386 13.1414 79.5597 14.1854 79.0373 15.0823C78.9245 14.381 78.5525 13.6439 77.3988 13.6439H76.8108C76.5834 13.6439 76.3977 13.8302 76.3977 14.0576V25.6958V25.6976V26.9478H76.3999C76.4118 27.1646 76.5914 27.3387 76.811 27.3387H78.627C78.6548 27.3387 78.6821 27.3354 78.7084 27.3303C78.7204 27.3279 78.7316 27.3232 78.7433 27.3199L78.7561 27.3162C78.7655 27.3135 78.7749 27.3109 78.7837 27.3072C78.7999 27.3005 78.8145 27.2916 78.8295 27.2832C78.8369 27.2786 78.8446 27.2755 78.8517 27.2708C78.8699 27.2591 78.8865 27.245 78.9025 27.2306C78.9052 27.228 78.9083 27.2262 78.9109 27.2237C78.929 27.2063 78.9455 27.187 78.9601 27.167C79.0055 27.1045 79.0333 27.029 79.0378 26.9478H79.0402V19.3339C79.0402 17.3147 80.6759 15.6777 82.6937 15.6777C84.7114 15.6777 86.3472 17.3147 86.3472 19.3339L86.3489 25.6981L86.3493 25.6958C86.3493 25.6986 86.3495 25.7014 86.3497 25.7043C86.3499 25.7073 86.3502 25.7103 86.3502 25.7133V26.9478H86.3526C86.3646 27.1646 86.544 27.3387 86.7635 27.3387H88.5796C88.6076 27.3387 88.6347 27.3354 88.661 27.3303C88.6717 27.3283 88.6816 27.324 88.6922 27.321L88.7035 27.3178C88.7087 27.3164 88.714 27.3149 88.7192 27.3133C88.7251 27.3115 88.7309 27.3095 88.7366 27.3072C88.7514 27.3011 88.765 27.2925 88.779 27.2846L88.7835 27.2822L88.7892 27.2793L88.7938 27.2771L88.7985 27.2746L88.8017 27.2727L88.8048 27.2708C88.8215 27.2597 88.8369 27.2464 88.8521 27.2333C88.8558 27.2297 88.8602 27.227 88.8638 27.2235C88.8811 27.2068 88.8964 27.1889 88.9103 27.1701L88.9119 27.1681L88.9135 27.1661C88.9583 27.1042 88.9857 27.0295 88.9904 26.9489C88.9904 26.9483 88.9906 26.9478 88.9906 26.9478H88.9931L88.9918 19.4373ZM42.1364 27.3064C41.1348 27.3064 40.5566 26.3864 40.4932 25.6636L40.4929 25.662C39.5434 26.9195 37.6263 27.6022 35.8672 27.6022C31.8687 27.6022 28.6272 24.3581 28.6272 20.3561C28.6272 16.3543 31.8687 13.1104 35.8672 13.1104C37.6263 13.1104 39.3805 13.6796 40.4932 15.0511V14.0038H40.4953C40.5075 13.7866 40.6869 13.6127 40.9065 13.6127H42.7225C42.942 13.6127 43.1214 13.7866 43.1333 14.0038H43.1359V26.8929C43.1359 27.1202 42.9497 27.3064 42.7225 27.3064H42.1364ZM31.2696 20.3561C31.2696 22.9577 33.3312 25.0662 35.8742 25.0662C38.4172 25.0662 40.4786 22.9577 40.4786 20.3561C40.4786 17.755 38.4172 15.6463 35.8742 15.6463C33.3312 15.6463 31.2696 17.755 31.2696 20.3561Z" fill="#7A7493"/>
</svg>
