<svg width="84" height="40" viewBox="0 0 84 40" fill="none" xmlns="http://www.w3.org/2000/svg">
<path fill-rule="evenodd" clip-rule="evenodd" d="M19.2035 34.66C20.7966 33.6712 22.1355 32.4646 23.2683 31.2081C24.0794 32.8645 25.707 33.9951 27.4329 33.9951C28.7629 33.9951 30.0929 33.3301 31.0073 32.0832C31.3398 33.2469 32.171 33.9951 33.5842 33.9951C34.6446 33.9951 36.9565 32.9128 39.0527 31.3091L38.8209 32.4988C38.7378 32.8313 38.7378 33.0806 38.7378 33.2469C38.8209 33.7456 39.1535 33.995 39.6522 33.995C40.6497 33.995 42.0628 33.0806 42.3953 31.5844L42.8941 29.5063C43.476 26.8463 47.3828 22.8563 48.4634 22.8563C48.5466 22.8563 48.7128 22.9394 48.7128 23.1056C48.7458 23.3696 48.5562 23.8692 48.2791 24.5994C47.8581 25.7088 47.235 27.3506 46.8841 29.5063C46.7178 30.1713 46.7178 30.8363 46.8009 31.335C46.9672 32.9144 47.8816 33.995 49.6272 33.995C51.121 33.995 54.3599 32.7198 56.6299 30.1695C56.801 31.5539 57.0938 32.7313 57.5241 33.4963C57.6904 33.8288 58.106 33.9119 58.5216 33.9119C59.0204 33.9119 59.6854 33.7457 60.4335 33.3301C62.1791 32.4157 64.4235 30.2544 66.5847 27.0957C66.9172 27.1788 67.1666 27.1788 67.416 27.1788C68.2785 27.1788 69.2425 26.8744 70.1375 26.3358C69.7655 27.4591 69.6205 28.6063 69.7435 29.6725C70.076 32.1663 72.1542 34.0781 74.3985 34.0781C75.6454 34.0781 76.9754 33.33 77.8898 32.1663C78.2223 33.7456 79.2198 35.4081 81.7135 36.4056C81.8798 36.4888 82.046 36.4888 82.2123 36.4888C82.711 36.4888 83.0435 36.1563 82.9604 35.7406C82.9604 35.5744 82.8773 35.325 82.6279 35.1588C82.046 34.66 81.381 33.7456 81.2148 32.3325C81.1317 31.6675 81.1317 30.8363 81.5473 30.005C82.046 27.7606 82.1292 27.0956 82.1292 26.8463C82.046 26.2644 81.6304 26.015 81.1317 26.015C80.1342 26.015 78.721 27.0125 78.3885 28.4256C77.8067 30.5869 76.3104 32 75.3129 32C74.066 32 73.401 30.67 73.2348 29.2569C72.8192 25.7656 74.9804 21.5263 78.2223 21.5263C79.1367 21.5263 80.2173 21.8588 80.3004 22.8563C80.4026 23.7756 79.8457 24.0046 79.4203 24.1794C79.1535 24.2891 78.9384 24.3775 78.9704 24.6019C79.0535 25.2669 80.1342 25.4331 80.8823 25.4331C81.5473 25.4331 83.7085 24.9344 83.376 22.5238C83.1267 20.6119 81.0485 19.6975 78.721 19.6975C75.9425 19.6975 73.5778 21.1044 71.9675 23.051C71.7448 23.1825 71.5098 23.4175 71.2397 23.6876C70.741 24.2694 69.7435 24.8513 68.4966 24.8513C68.3304 24.8513 67.9979 24.7682 67.9979 24.7682C68.8291 23.1888 69.411 21.5263 69.411 20.1132C69.411 17.7857 67.9979 16.6219 66.4185 16.6219C64.4235 16.6219 62.3454 18.3676 62.3454 21.8588C62.3454 23.9369 63.1766 25.5994 64.5897 26.5138C62.9272 29.1738 60.6829 31.4182 60.3504 31.4182C60.2356 31.4182 60.2001 31.2993 60.1617 31.171C60.1445 31.1135 60.1267 31.054 60.101 31.0026C59.8516 30.0882 59.6022 28.2594 59.6022 27.1788C59.6022 25.1838 59.9347 23.1888 60.6829 21.1107C60.766 20.8613 60.8491 20.6119 60.8491 20.4457C60.8491 19.8638 60.4335 19.6144 59.9347 19.6144C58.9372 19.6144 57.3579 20.7782 56.9422 22.0251C56.6097 23.1888 56.4435 24.8513 56.4435 26.8463C56.4435 27.2122 56.4494 27.5751 56.4614 27.9325C54.4776 30.6066 52.0297 31.5013 51.2897 31.5013C50.3753 31.5013 50.2091 30.67 50.3753 30.3375C50.9572 27.9269 51.7053 25.1838 52.3703 23.2719C52.7028 22.3575 52.8691 21.5263 52.786 21.0275C52.6197 20.1131 52.0378 19.6975 51.2066 19.6975C49.2116 19.6975 46.0528 21.6925 43.9747 24.4356L44.6397 21.4431C44.7228 21.1106 44.7228 20.8613 44.7228 20.695C44.6397 20.1131 44.3072 19.8638 43.8084 19.8638C41.4809 19.8638 41.0653 21.0275 40.816 22.1913C40.7678 22.4801 40.1063 25.8917 39.558 28.7121C37.7842 30.34 35.7966 31.4182 35.2467 31.4182C34.5817 31.4182 34.3323 30.9194 34.3323 30.5038C34.3323 30.2167 34.4975 29.434 34.6536 28.6945C34.7687 28.1492 34.8789 27.6273 34.9142 27.3451C34.9973 27.0126 34.9973 26.7632 34.9973 26.5969C34.9142 26.0982 34.4985 25.8488 33.9998 25.8488C33.0023 25.8488 31.5892 26.8463 31.2567 28.2594C30.7579 30.4207 29.2617 31.8338 28.2642 31.8338C27.0173 31.8338 26.3523 30.5038 26.186 29.1738C25.7704 26.1813 27.6823 21.3601 31.1735 21.3601C32.171 21.3601 33.1685 21.6926 33.2517 22.6901C33.3523 23.6463 32.8435 23.8712 32.4448 24.0475C32.185 24.1623 31.972 24.2565 32.0048 24.5188C32.0879 25.1838 33.1685 25.3501 33.8335 25.3501C34.5817 25.3501 36.6598 24.8513 36.3273 22.4407C36.0779 20.5288 34.0829 19.5313 31.6723 19.5313C26.0814 19.5313 22.361 25.0612 22.7631 29.4449C21.3433 31.1063 19.9248 32.1054 17.3747 33.4131C15.9616 34.1613 14.2991 34.5769 12.8029 34.5769C8.14787 34.5769 5.90349 30.3375 5.48787 26.68C4.32412 17.37 12.6366 4.48564 18.3722 4.48564C19.7022 4.48564 20.866 5.64939 21.1154 7.47814C21.4479 10.3044 21.3647 12.2994 18.4554 14.71C18.1229 14.9594 18.0397 15.375 18.206 15.6244C18.4554 15.9569 19.2866 16.04 20.866 15.2088C24.0247 13.6294 25.1054 11.2188 24.7729 8.39252C24.4404 5.23377 21.6972 2.65689 18.0397 2.65689C16.211 2.65689 14.2991 3.15564 12.5535 4.23627C4.98912 8.89127 0.0847445 19.365 0.99912 27.345C1.33162 29.9219 2.41225 32.665 4.40725 34.5769C5.73725 35.8238 8.14787 37.32 11.0572 37.32C14.216 37.32 16.876 36.1563 19.2035 34.66ZM65.9197 23.6876C65.0885 22.7732 64.4235 21.3601 64.4235 20.0301C64.4235 19.2819 64.6729 18.4507 65.2547 18.4507C65.7535 18.4507 66.4185 19.1988 66.4185 20.9444C66.4185 21.8588 66.2522 22.7732 65.9197 23.6876Z" fill="#7A7493"/>
</svg>
