<svg width="113" height="40" viewBox="0 0 113 40" fill="none" xmlns="http://www.w3.org/2000/svg">
<path d="M23.1614 14.9621C19.1043 14.9621 15.9342 18.042 15.9342 22.1649C15.9342 26.288 19.0242 29.3414 23.1614 29.3414C27.2986 29.3414 30.4423 26.2352 30.4423 22.1386C30.4423 18.0683 27.3523 14.9621 23.1614 14.9621ZM23.1888 26.3701C20.8784 26.3701 19.1854 24.5757 19.1854 22.166C19.1854 19.7289 20.851 17.9355 23.1614 17.9355C25.4991 17.9355 27.1911 19.7562 27.1911 22.166C27.1911 24.5757 25.4991 26.3701 23.1888 26.3701ZM31.3283 18.0957H33.3436V29.0748H36.5674V15.2298H31.3283V18.0957ZM7.82101 17.9345C9.51402 17.9345 10.8572 18.9787 11.3672 20.5318H14.7795C14.1612 17.2117 11.4209 14.9621 7.84838 14.9621C3.79127 14.9621 0.621216 18.042 0.621216 22.166C0.621216 26.29 3.71119 29.3425 7.84838 29.3425C11.3408 29.3425 14.1348 27.0929 14.7532 23.7454H11.3672C10.8836 25.2985 9.54036 26.3701 7.84738 26.3701C5.50962 26.3701 3.87135 24.5757 3.87135 22.166C3.87238 19.7289 5.48428 17.9345 7.82101 17.9345ZM92.5823 20.8268L90.2182 20.479C89.0901 20.3189 88.284 19.9438 88.284 19.0598C88.284 18.0957 89.3323 17.6141 90.7556 17.6141C92.3139 17.6141 93.3083 18.2832 93.523 19.3811H96.6396C96.2898 16.5963 94.1405 14.9631 90.8366 14.9631C87.4243 14.9631 85.1677 16.7038 85.1677 19.1672C85.1677 21.5232 86.6456 22.8898 89.6272 23.3176L91.9912 23.6653C93.1471 23.8255 93.7917 24.2817 93.7917 25.1383C93.7917 26.2363 92.6636 26.6914 91.1053 26.6914C89.1973 26.6914 88.1228 25.9149 87.9617 24.7369H84.7915C85.0876 27.4416 87.2095 29.3425 91.0779 29.3425C94.5978 29.3425 96.9345 27.7356 96.9345 24.9771C96.9345 22.5137 95.2425 21.2282 92.5823 20.8268ZM34.9555 9.52627C33.7734 9.52627 32.8866 10.3829 32.8866 11.5609C32.8866 12.7389 33.7725 13.5955 34.9555 13.5955C36.1375 13.5955 37.0247 12.7389 37.0247 11.5609C37.0247 10.3829 36.1375 9.52627 34.9555 9.52627ZM82.2663 19.9701C82.2663 16.9714 80.4396 14.9631 76.5708 14.9631C72.9172 14.9631 70.8754 16.8112 70.4721 19.6498H73.6694C73.8305 18.5519 74.6902 17.6415 76.5172 17.6415C78.1566 17.6415 78.9623 18.3643 78.9623 19.2483C78.9623 20.4 77.4842 20.694 75.6575 20.8815C73.1859 21.1491 70.1233 22.0058 70.1233 25.2194C70.1233 27.7103 71.9774 29.3161 74.9328 29.3161C77.2429 29.3161 78.6936 28.352 79.4196 26.8253C79.5272 28.1908 80.5481 29.0748 81.9723 29.0748H83.8529V26.2099H82.2672V19.9701H82.2663ZM79.0961 23.4514C79.0961 25.2995 77.4842 26.6651 75.5225 26.6651C74.3134 26.6651 73.2925 26.1562 73.2925 25.0856C73.2925 23.7201 74.9315 23.345 76.4362 23.1848C77.8869 23.051 78.6927 22.7296 79.0961 22.1133V23.4514ZM61.9827 14.9621C60.1822 14.9621 58.6779 15.7123 57.6034 16.9704V9.39246H54.3796V29.0748H57.5495V27.2541C58.624 28.5659 60.156 29.3425 61.9827 29.3425C65.8512 29.3425 68.7801 26.29 68.7801 22.166C68.7801 18.042 65.7975 14.9621 61.9827 14.9621ZM61.4992 26.3701C59.1888 26.3701 57.4958 24.5757 57.4958 22.166C57.4958 19.7562 59.2153 17.9355 61.5254 17.9355C63.8633 17.9355 65.5014 19.7299 65.5014 22.166C65.5014 24.5757 63.8094 26.3701 61.4992 26.3701ZM46.6686 14.9621C44.5732 14.9621 43.2026 15.8188 42.3968 17.0241V15.2298H39.1992V29.0738H42.423V21.5496C42.423 19.4339 43.7662 17.9345 45.7543 17.9345C47.6084 17.9345 48.763 19.2463 48.763 21.1482V29.0748H51.9868V20.9079C51.9881 17.4256 50.1885 14.9621 46.6686 14.9621ZM112.302 21.7108C112.302 17.748 109.401 14.9631 105.505 14.9631C101.368 14.9631 98.3316 18.0693 98.3316 22.166C98.3316 26.4775 101.583 29.3425 105.559 29.3425C108.917 29.3425 111.55 27.3605 112.221 24.5493H108.862C108.379 25.7811 107.197 26.4775 105.611 26.4775C103.542 26.4775 101.984 25.1921 101.635 22.9425H112.301V21.7108H112.302ZM101.824 20.6392C102.335 18.711 103.785 17.7743 105.451 17.7743C107.278 17.7743 108.675 18.8185 108.997 20.6392H101.824Z" fill="#7A7493"/>
</svg>
