<svg width="143" height="40" viewBox="0 0 143 40" fill="none" xmlns="http://www.w3.org/2000/svg">
<path d="M30.6767 8.07599C28.3829 7.00274 25.9301 6.22276 23.3659 5.77863C23.051 6.34799 22.6831 7.11379 22.4294 7.72298C19.7036 7.31305 17.0028 7.31305 14.3271 7.72298C14.0734 7.11379 13.6972 6.34799 13.3794 5.77863C10.8124 6.22276 8.35689 7.00561 6.06303 8.08167C1.43629 15.0733 0.182055 21.8912 0.809173 28.6124C3.87787 30.904 6.85181 32.2961 9.77556 33.2071C10.4975 32.2135 11.1413 31.1574 11.6959 30.0443C10.6396 29.6429 9.62784 29.1476 8.67186 28.5726C8.92548 28.3847 9.17356 28.1882 9.41323 27.9861C15.244 30.7133 21.5793 30.7133 27.3405 27.9861C27.5829 28.1882 27.831 28.3847 28.0818 28.5726C27.123 29.1504 26.1085 29.6457 25.0522 30.0472C25.6068 31.1574 26.2479 32.2164 26.9725 33.2099C29.8991 32.2989 32.8758 30.9069 35.9445 28.6124C36.6803 20.8209 34.6875 14.0655 30.6767 8.07599ZM12.4903 24.4789C10.7399 24.4789 9.30452 22.8449 9.30452 20.855C9.30452 18.8651 10.7093 17.2283 12.4903 17.2283C14.2713 17.2283 15.7067 18.8623 15.6761 20.855C15.6788 22.8449 14.2713 24.4789 12.4903 24.4789ZM24.2634 24.4789C22.5131 24.4789 21.0776 22.8449 21.0776 20.855C21.0776 18.8651 22.4824 17.2283 24.2634 17.2283C26.0444 17.2283 27.4798 18.8623 27.4492 20.855C27.4492 22.8449 26.0444 24.4789 24.2634 24.4789Z" fill="#7A7493"/>
<path d="M48.2775 12.7766H55.8863C57.7205 12.7766 59.2701 13.0698 60.5413 13.6534C61.8092 14.2369 62.7598 15.0511 63.3898 16.093C64.0194 17.1349 64.3371 18.3277 64.3371 19.6714C64.3371 20.9866 64.0082 22.1793 63.3505 23.2469C62.6928 24.3172 61.6921 25.1627 60.3461 25.7862C59 26.4096 57.3329 26.7227 55.3403 26.7227H48.2775V12.7766ZM55.2621 23.1786C56.4969 23.1786 57.4475 22.8626 58.1106 22.2334C58.7741 21.6014 59.1059 20.7417 59.1059 19.6514C59.1059 18.6408 58.8101 17.8352 58.2194 17.2317C57.6287 16.6282 56.7339 16.3236 55.538 16.3236H53.1578V23.1786H55.2621Z" fill="#7A7493"/>
<path d="M75.7285 26.7057C74.6749 26.4268 73.7243 26.0225 72.88 25.4902V22.1823C73.5183 22.6861 74.3737 23.1018 75.4468 23.4291C76.5198 23.7537 77.5569 23.9159 78.56 23.9159C79.0283 23.9159 79.3824 23.8533 79.6219 23.728C79.8619 23.6028 79.9819 23.4519 79.9819 23.2782C79.9819 23.079 79.9177 22.9139 79.7866 22.78C79.6554 22.6463 79.4019 22.5352 79.0259 22.4413L76.6845 21.9032C75.3438 21.5844 74.3932 21.1432 73.8278 20.5767C73.2618 20.013 72.9801 19.2729 72.9801 18.3562C72.9801 17.5847 73.2254 16.9158 73.7219 16.3436C74.2149 15.7714 74.9173 15.3301 75.8286 15.0198C76.7404 14.7067 77.8047 14.5501 79.0283 14.5501C80.1208 14.5501 81.1215 14.6697 82.0332 14.9088C82.9445 15.148 83.697 15.4525 84.2964 15.8254V18.954C83.6829 18.5811 82.9805 18.2879 82.178 18.0658C81.3779 17.8467 80.556 17.7385 79.7084 17.7385C78.4847 17.7385 77.8746 17.952 77.8746 18.3761C77.8746 18.5754 77.9694 18.7235 78.1588 18.8231C78.3483 18.9227 78.6965 19.0252 79.2012 19.1334L81.1521 19.4921C82.4262 19.717 83.3764 20.1127 84.0006 20.6763C84.6253 21.24 84.9371 22.0741 84.9371 23.1786C84.9371 24.3885 84.4217 25.3478 83.3875 26.0595C82.3533 26.7712 80.8873 27.127 78.9865 27.127C77.8688 27.1242 76.7822 26.9847 75.7285 26.7057Z" fill="#7A7493"/>
<path d="M89.5424 26.2871C88.4252 25.7291 87.5805 24.9719 87.0174 24.0154C86.4545 23.0589 86.1703 21.9828 86.1703 20.7872C86.1703 19.5916 86.4627 18.5212 87.0481 17.5789C87.6334 16.6366 88.4917 15.8965 89.6236 15.3585C90.7549 14.8204 92.1068 14.5528 93.6816 14.5528C95.6324 14.5528 97.252 14.9713 98.5397 15.8082V19.4549C98.0855 19.1361 97.5556 18.877 96.9508 18.6778C96.346 18.4785 95.6995 18.3788 95.0082 18.3788C93.7987 18.3788 92.8539 18.6037 92.1709 19.0564C91.4879 19.509 91.1455 20.0983 91.1455 20.8299C91.1455 21.5473 91.4767 22.1337 92.1403 22.5949C92.8038 23.0532 93.7652 23.2838 95.0277 23.2838C95.6771 23.2838 96.3183 23.187 96.9508 22.9963C97.5808 22.8027 98.1244 22.5664 98.5786 22.2874V25.8145C97.149 26.6913 95.4906 27.1297 93.6034 27.1297C92.015 27.124 90.6602 26.8451 89.5424 26.2871Z" fill="#7A7493"/>
<path d="M103.406 26.2873C102.28 25.7294 101.422 24.9664 100.83 23.9957C100.24 23.0249 99.9415 21.9432 99.9415 20.7476C99.9415 19.5519 100.237 18.4844 100.83 17.5478C101.424 16.6112 102.277 15.8768 103.398 15.3444C104.515 14.8121 105.85 14.5473 107.397 14.5473C108.944 14.5473 110.279 14.8121 111.397 15.3444C112.514 15.8768 113.367 16.6056 113.953 17.5364C114.538 18.4673 114.831 19.5348 114.831 20.7447C114.831 21.9403 114.538 23.0221 113.953 23.9928C113.367 24.9636 112.512 25.7265 111.386 26.2845C110.26 26.8425 108.93 27.1214 107.395 27.1214C105.859 27.1214 104.529 26.8453 103.406 26.2873ZM109.334 22.7517C109.808 22.2677 110.048 21.6272 110.048 20.8301C110.048 20.033 109.811 19.3982 109.334 18.9285C108.861 18.4559 108.214 18.2196 107.395 18.2196C106.561 18.2196 105.909 18.4559 105.432 18.9285C104.958 19.4011 104.721 20.033 104.721 20.8301C104.721 21.6272 104.958 22.2677 105.432 22.7517C105.906 23.2356 106.561 23.4804 107.395 23.4804C108.214 23.4776 108.861 23.2356 109.334 22.7517Z" fill="#7A7493"/>
<path d="M126.553 15.2875V19.5918C126.057 19.2587 125.416 19.0936 124.622 19.0936C123.582 19.0936 122.779 19.4153 122.222 20.0586C121.662 20.702 121.383 21.704 121.383 23.0591V26.7257H116.603V15.0683H121.286V18.7747C121.545 17.4197 121.966 16.4205 122.545 15.7742C123.122 15.1309 123.869 14.8092 124.778 14.8092C125.466 14.8092 126.057 14.9687 126.553 15.2875Z" fill="#7A7493"/>
<path d="M142.435 12.378V26.7256H137.655V24.1151C137.251 25.0973 136.638 25.846 135.813 26.3583C134.987 26.868 133.967 27.1241 132.758 27.1241C131.676 27.1241 130.735 26.8565 129.929 26.3185C129.123 25.7805 128.502 25.0432 128.064 24.1066C127.63 23.17 127.409 22.111 127.409 20.9268C127.395 19.7055 127.627 18.6095 128.103 17.6388C128.577 16.668 129.249 15.9108 130.113 15.3671C130.977 14.8233 131.964 14.5501 133.07 14.5501C135.347 14.5501 136.875 15.5606 137.655 17.579V12.378H142.435ZM136.942 22.6718C137.429 22.1879 137.672 21.5588 137.672 20.7902C137.672 20.0471 137.435 19.4408 136.961 18.9768C136.487 18.5128 135.838 18.2793 135.021 18.2793C134.216 18.2793 133.572 18.5156 133.09 18.9881C132.607 19.4607 132.368 20.0727 132.368 20.83C132.368 21.5872 132.607 22.205 133.09 22.6832C133.572 23.1614 134.207 23.4006 135.002 23.4006C135.807 23.3978 136.453 23.1558 136.942 22.6718Z" fill="#7A7493"/>
<path d="M68.3652 16.3092C69.6811 16.3092 70.7483 15.3303 70.7483 14.1229C70.7483 12.9154 69.6811 11.9366 68.3652 11.9366C67.0488 11.9366 65.982 12.9154 65.982 14.1229C65.982 15.3303 67.0488 16.3092 68.3652 16.3092Z" fill="#7A7493"/>
<path d="M65.9799 17.8153C67.4401 18.4586 69.252 18.4871 70.7458 17.8153V26.7882H65.9799V17.8153Z" fill="#7A7493"/>
</svg>
