<svg width="94" height="40" viewBox="0 0 94 40" fill="none" xmlns="http://www.w3.org/2000/svg">
<path fill-rule="evenodd" clip-rule="evenodd" d="M93.1094 26.4858C89.2374 33.0504 83.1054 31.1456 81.2637 29.6542C80.4799 30.186 79.1055 31.3516 77.2729 31.217C73.37 30.9305 71.9723 25.3531 71.9723 25.3531C72.0004 25.3754 70.8097 25.7639 70.1662 25.757C70.1579 27.3926 68.7441 31.2998 64.9283 31.2498C60.6465 31.194 59.776 24.8148 59.776 24.8148C59.776 24.8148 59.3499 25.4065 57.7298 25.9958C57.8113 24.7392 57.7517 31.0585 52.6197 31.1514C48.5626 31.2249 47.4674 24.7164 47.4674 24.7164C47.4674 24.7164 46.7636 25.4475 45.3996 25.7011C45.4863 24.424 45.3453 31.1729 40.2128 31.1514C36.7442 31.137 35.559 27.1422 35.6511 26.5877C35.7688 25.8811 34.4789 31.2508 31.1097 31.1671C29.7194 31.1263 28.6829 30.1196 28.0324 28.7776C27.1617 29.7739 25.8976 31.1671 24.4794 31.1671C21.9338 31.1671 20.8116 29.038 21.0016 22.9568C21.0178 22.2355 20.9658 21.9518 20.2488 21.8439C19.8184 21.7721 19.3777 21.6362 18.9114 21.5645C18.7619 22.0633 17.4942 31.0049 13.1351 31.1746C11.6727 31.2315 10.873 29.9647 10.2163 29.0245C9.20969 30.3561 7.88085 31.217 5.9878 31.217C2.78112 31.217 0.596313 28.6247 0.596313 25.4269C0.596313 22.2291 2.78112 19.637 5.9878 19.637C6.55477 19.637 6.71393 19.7183 7.2319 19.8694C6.16669 10.1709 8.68229 8.65521 10.8829 8.65521C12.9956 8.65521 16.6049 13.5588 11.5263 25.9968C12.6538 29.7067 15.0846 29.4969 16.2527 21.8598C16.4905 20.3074 15.8548 18.2125 16.8435 17.9201C18.651 17.3858 18.8427 18.989 19.6902 19.2561C20.5863 19.5384 21.1093 19.5108 21.9695 19.6905C23.4395 19.9775 24.0131 20.7672 23.834 22.5259C23.6189 24.7513 23.2427 27.9902 24.3898 28.385C25.217 28.6717 26.7273 26.9563 26.9924 26.0176C27.2573 25.079 27.3126 24.7577 27.3362 24.0693C27.372 22.5979 27.417 21.5193 27.6679 20.4065C27.7753 19.9759 27.8977 19.6907 28.3849 19.6712C28.7858 19.661 29.5189 19.5403 29.8416 19.7915C30.2717 20.1146 30.2179 20.4426 30.1685 21.3057C29.6683 33.6112 33.5184 27.4682 34.6664 22.5495C34.2576 16.9875 34.5383 8.75706 38.0236 8.61902C39.8363 8.54723 40.6377 9.99937 40.7258 11.0833C40.9751 14.1446 39.5786 19.2155 37.7419 22.6258C36.6922 29.5842 42.3314 30.96 43.2333 25.4058C41.7578 24.7043 40.1633 21.8649 41.4608 20.4812C42.1889 19.7046 45.2196 20.8202 45.2693 23.2534C46.7559 22.8558 46.9544 22.0164 46.975 22.1555C46.5663 16.5936 46.9454 8.75713 50.431 8.61909C52.2434 8.5473 53.0446 9.99944 53.1328 11.0833C53.3821 14.1446 51.9855 19.2156 50.1491 22.6259C49.0993 29.5842 54.7387 30.9601 55.6402 25.406C54.5479 25.1952 52.2419 22.1751 53.5724 20.4812C54.2834 19.5761 57.3031 21.4584 57.6411 23.334C59.0693 22.9298 59.2632 22.1171 59.2837 22.2539C58.8749 16.6922 59.254 8.8557 62.7396 8.71766C64.552 8.64587 65.3532 10.098 65.4414 11.1819C65.6907 14.2432 64.2941 19.3143 62.4574 22.7245C61.4079 29.6829 67.0471 31.0585 67.9489 25.5044C66.4478 25.2544 64.3144 22.0656 66.0314 20.4342C66.7175 19.7824 69.3388 21.4744 69.9524 23.4047C70.805 23.3719 71.3357 23.0778 71.4494 23.0482C70.0883 16.5189 71.1016 8.68458 74.8511 8.61918C76.8777 8.58387 78.859 9.71481 77.9894 15.9266C77.1593 21.8534 74.1753 24.3407 74.1823 24.3787C74.3559 25.0887 75.8871 31.031 79.7428 27.8956C79.5432 27.4437 79.3434 26.982 79.2317 26.4226C78.5926 23.1644 79.8479 19.4842 83.2597 18.8894C85.2145 18.5487 87.056 19.5004 87.3471 21.6459C87.8261 25.1568 84.6559 27.6993 83.4504 28.2509C82.9104 27.9441 88.3449 31.4295 91.57 24.4448C91.7571 24.046 91.9825 24.0798 92.2746 24.2853C92.4809 24.4305 93.6559 25.5436 93.1094 26.4858ZM8.32037 24.5643C8.15627 24.0737 7.8195 22.9926 7.70041 22.5242C7.04455 21.9539 6.57641 21.8612 5.73455 21.8612C3.86368 21.8612 2.76252 23.591 2.76252 25.4562C2.76252 27.3213 3.96215 29.0513 5.83304 29.0513C7.45437 29.0513 8.68835 27.9489 9.06483 26.3884C8.80132 25.78 8.53992 25.2209 8.32037 24.5643ZM10.8371 11.2225C9.52248 11.2225 9.07654 14.3584 9.16308 17.0337C9.23963 19.3989 9.90056 21.4812 10.2434 22.4143C10.3305 22.5312 10.3143 22.4551 10.392 22.5791C12.6745 17.578 11.7278 11.2225 10.8371 11.2225ZM38.2114 11.321C36.5124 11.1261 36.5233 18.2038 36.7342 19.7915C37.6167 18.3798 39.1495 11.7011 38.2114 11.321ZM50.6184 11.321C48.9193 11.1261 48.9303 18.2038 49.1413 19.7915C50.0236 18.3798 51.5566 11.7011 50.6184 11.321ZM62.9271 11.4194C61.2279 11.2246 61.2389 18.3024 61.4499 19.8901C62.3322 18.4783 63.8652 11.7995 62.9271 11.4194ZM75.0386 10.9066C72.3915 11.4382 73.0079 20.2644 73.41 21.8124C76.5281 17.5296 76.5923 10.7458 75.0386 10.9066ZM84.9596 21.9363C84.825 21.3736 84.152 21.0728 83.6875 21.1469C82.3584 21.3285 81.0692 22.9838 81.5683 25.5041C81.6793 26.0654 81.9573 26.5821 81.9528 26.5649C84.9274 24.5693 85.1803 22.9966 84.9596 21.9363ZM28.906 17.7231C28.5261 17.7232 28.1547 17.6106 27.8388 17.3996C27.523 17.1886 27.2767 16.8886 27.1312 16.5377C26.9858 16.1867 26.9478 15.8005 27.0219 15.4279C27.0959 15.0553 27.2789 14.7131 27.5475 14.4444C27.816 14.1758 28.1583 13.9928 28.5308 13.9187C28.9034 13.8446 29.2896 13.8826 29.6406 14.028C29.9916 14.1734 30.2916 14.4196 30.5026 14.7355C30.7136 15.0513 30.8263 15.4227 30.8263 15.8026C30.8263 16.0548 30.7767 16.3045 30.6801 16.5375C30.5837 16.7705 30.4422 16.9822 30.2639 17.1606C30.0855 17.3389 29.8739 17.4804 29.6409 17.5769C29.4079 17.6734 29.1582 17.7231 28.906 17.7231Z" fill="#7A7493"/>
</svg>
