<svg width="79" height="40" viewBox="0 0 79 40" fill="none" xmlns="http://www.w3.org/2000/svg">
<path d="M0.0775146 5.72992V27.784L2.89915 27.795V17.293H9.68192V14.5144H2.88829V8.49762H11.733V5.72992H0.0775146ZM16.7903 10.2151C17.2796 10.2151 17.7488 10.0192 18.0948 9.67043C18.4408 9.32167 18.6352 8.84864 18.6352 8.35541C18.6352 7.86218 18.4408 7.38915 18.0948 7.04039C17.7488 6.69162 17.2796 6.49569 16.7903 6.49569C16.301 6.49569 15.8317 6.69162 15.4857 7.04039C15.1397 7.38915 14.9453 7.86218 14.9453 8.35541C14.9453 8.84864 15.1397 9.32167 15.4857 9.67043C15.8317 10.0192 16.301 10.2151 16.7903 10.2151ZM15.3686 12.9828V27.795H18.1902V12.9828H15.3686Z" fill="#7A7493"/>
<path fill-rule="evenodd" clip-rule="evenodd" d="M28.6194 12.5562C24.8861 12.5562 22.2815 15.7396 22.2815 19.5247C22.2815 23.3098 24.8861 26.4932 28.6194 26.4932C30.3341 26.4932 31.7449 25.8368 32.7759 24.7428V26.712C32.783 27.3003 32.6744 27.8843 32.4564 28.4301C32.2383 28.9759 31.915 29.4727 31.5053 29.8918C31.0956 30.3109 30.6075 30.644 30.0693 30.8718C29.5311 31.0996 28.9535 31.2177 28.3698 31.2191C27.469 31.2191 26.5791 30.869 25.8737 30.3658L24.4629 32.8272C25.5538 33.538 26.8148 33.9388 28.1129 33.9874C29.411 34.036 30.698 33.7305 31.8382 33.1032C32.9784 32.4759 33.9295 31.55 34.5911 30.4232C35.2528 29.2963 35.6004 28.0104 35.5975 26.701V12.9938H32.7759V14.3175C31.7449 13.2235 30.3341 12.5671 28.6194 12.5671V12.5562ZM25.0923 19.5247C25.0923 17.1727 26.8721 15.3239 28.9341 15.3239C30.9961 15.3239 32.765 17.1836 32.765 19.5247C32.765 21.8767 30.9852 23.7145 28.9341 23.7145C26.8721 23.7145 25.0923 21.8767 25.0923 19.5247Z" fill="#7A7493"/>
<path d="M45.7336 15.324C44.9267 15.3383 44.1577 15.6723 43.5931 16.2537C43.0285 16.8351 42.7137 17.6172 42.7167 18.4308V27.795H39.895V12.9829H42.7167V14.3394C43.1388 13.7754 43.6872 13.3199 44.3171 13.01C44.947 12.7002 45.6406 12.5447 46.3414 12.5563C48.3165 12.5563 49.8359 13.5408 50.704 15.0505C51.1884 14.2937 51.8513 13.6697 52.6335 13.2344C53.4157 12.7992 54.2927 12.5662 55.1861 12.5563C58.3876 12.5563 60.3953 15.1599 60.3953 18.387V27.795H57.5953V18.4199C57.5983 17.6063 57.2835 16.8242 56.7189 16.2428C56.1543 15.6614 55.3854 15.3274 54.5784 15.313C53.7714 15.3274 53.0024 15.6614 52.4379 16.2428C51.8733 16.8242 51.5584 17.6063 51.5614 18.4199V27.7841H48.7398V18.4199C48.7428 17.6081 48.4294 16.8277 47.8672 16.2466C47.3049 15.6655 46.5387 15.3302 45.7336 15.313V15.324Z" fill="#7A7493"/>
<path fill-rule="evenodd" clip-rule="evenodd" d="M75.4042 14.6676C74.7635 13.9941 73.9932 13.4595 73.1404 13.0964C72.2876 12.7334 71.3704 12.5496 70.4447 12.5562C66.2556 12.5562 63.2821 16.1225 63.2821 20.3889C63.2821 24.6554 66.2556 28.2217 70.4447 28.2217C71.3701 28.2264 72.2868 28.0417 73.1393 27.6788C73.9918 27.3159 74.7623 26.7823 75.4042 26.1103V27.795H78.215V12.9829H75.3934V14.6676H75.4042ZM66.0928 20.3889C66.0928 17.5665 68.2416 15.3239 70.7486 15.3239C73.2446 15.3239 75.4042 17.5665 75.4042 20.3889C75.4042 23.2113 73.2555 25.443 70.7486 25.443C68.2525 25.443 66.0928 23.2113 66.0928 20.3889Z" fill="#7A7493"/>
</svg>
