<svg width="113" height="40" viewBox="0 0 113 40" fill="none" xmlns="http://www.w3.org/2000/svg">
<path d="M0.621216 1.74244H24.8461V13.8549H12.7336L0.621216 1.74244ZM0.621216 13.8549H12.7336L24.8461 25.9673H0.621216V13.8549ZM0.621216 25.9673H12.7336V38.0797L0.621216 25.9673Z" fill="#7A7493"/>
<path d="M38.5145 11.298H48.3067V14.4096H42.2208V18.7338H48.3067V21.7767H42.2208V27.3134H38.5145V11.298ZM50.3199 16.2855H53.8206V18.5963C54.0035 17.8022 54.3775 17.1926 54.9417 16.7659C55.5202 16.3231 56.1625 16.1026 56.8635 16.1026C57.2298 16.1026 57.5352 16.1336 57.7785 16.194V19.4431C57.4293 19.401 57.078 19.3783 56.7261 19.3744C55.7652 19.3744 55.0414 19.6864 54.5527 20.312C54.0656 20.9222 53.8206 21.8371 53.8206 23.0579V27.3134H50.3216V16.2855H50.3199ZM63.3046 27.611C62.2373 27.611 61.3063 27.3588 60.5133 26.8556C59.7352 26.3525 59.1168 25.6381 58.7289 24.7964C58.3171 23.9125 58.1099 22.9122 58.1099 21.7994C58.1099 20.7011 58.3249 19.7091 58.7516 18.8252C59.1517 17.9712 59.7868 17.2492 60.582 16.7432C61.3894 16.24 62.3127 15.9879 63.3506 15.9879C64.1281 15.9879 64.823 16.1563 65.4326 16.4916C66.0422 16.828 66.4999 17.2857 66.8053 17.8643V16.2855H70.2827V27.3134H66.8053V25.7573C66.4999 26.3065 66.0272 26.7559 65.3866 27.1072C64.746 27.4469 64.03 27.6198 63.3046 27.611ZM64.3115 24.7049C65.15 24.7049 65.7984 24.4306 66.2561 23.8814C66.7139 23.3322 66.9427 22.6379 66.9427 21.7994C66.9427 20.9759 66.7139 20.2893 66.2561 19.7401C65.7984 19.191 65.15 18.9166 64.3115 18.9166C63.5174 18.9166 62.8779 19.1832 62.3897 19.7174C61.917 20.2516 61.6804 20.9449 61.6804 21.7994C61.6804 22.6539 61.917 23.355 62.3897 23.9041C62.8779 24.4384 63.5185 24.7049 64.3115 24.7049ZM72.731 16.2855H76.2317V17.887C76.4766 17.3218 76.8723 16.864 77.4209 16.5143C77.9861 16.1647 78.6417 15.9879 79.3887 15.9879C81.1277 15.9879 82.2798 16.6662 82.8434 18.0244C83.1538 17.4088 83.6392 16.8995 84.2394 16.5603C84.8811 16.1741 85.6181 15.9762 86.3668 15.9879C88.9753 15.9879 90.2792 17.4819 90.2792 20.4722V27.3134H86.7558V21.1128C86.7558 20.3663 86.6184 19.8172 86.3441 19.4658C86.0692 19.1156 85.6575 18.9394 85.1083 18.9394C84.5137 18.9394 84.0559 19.1455 83.7356 19.5573C83.4153 19.954 83.2552 20.6473 83.2552 21.6393V27.3134H79.7318V21.0901C79.7318 20.3431 79.5949 19.8011 79.32 19.4658C79.0618 19.1156 78.6567 18.9394 78.1086 18.9394C77.4979 18.9394 77.0324 19.1455 76.7121 19.5573C76.3918 19.954 76.2317 20.6473 76.2317 21.6393V27.3134H72.7321V16.2855H72.731ZM103.43 21.2275C103.43 21.6997 103.399 22.2112 103.337 22.7603H95.193C95.2241 23.4774 95.4673 24.0255 95.9251 24.4079C96.3828 24.7886 97.0018 24.9798 97.7782 24.9798C98.8616 24.9798 99.5482 24.6512 99.8375 23.9956H103.269C103.101 25.079 102.506 25.9551 101.484 26.6268C100.478 27.2823 99.2423 27.611 97.7782 27.611C95.8874 27.611 94.4 27.0995 93.3166 26.0776C92.2493 25.0551 91.7151 23.6298 91.7151 21.7994C91.7151 20.6096 91.9589 19.58 92.4471 18.7105C92.9187 17.8421 93.6458 17.1394 94.5291 16.6972C95.4296 16.2251 96.4743 15.9879 97.6652 15.9879C98.7929 15.9879 99.7915 16.209 100.661 16.6518C101.545 17.0945 102.225 17.7119 102.697 18.5049C103.186 19.299 103.43 20.2062 103.43 21.2275ZM99.9733 20.5869C99.9583 19.8548 99.7527 19.2974 99.3554 18.9166C98.9597 18.5359 98.3867 18.3447 97.6397 18.3447C96.8927 18.3447 96.298 18.5503 95.8553 18.9626C95.4285 19.3594 95.2074 19.9003 95.1914 20.5869H99.9733ZM104.973 16.2855H108.474V18.5963C108.657 17.8022 109.031 17.1926 109.595 16.7659C110.142 16.3348 110.819 16.1009 111.517 16.1026C111.882 16.1026 112.188 16.1336 112.431 16.194V19.4431C112.082 19.401 111.731 19.3783 111.379 19.3744C110.418 19.3744 109.694 19.6864 109.206 20.312C108.717 20.9222 108.474 21.8371 108.474 23.0579V27.3134H104.973V16.2855Z" fill="#7A7493"/>
</svg>
