<svg width="113" height="40" viewBox="0 0 113 40" fill="none" xmlns="http://www.w3.org/2000/svg">
<path fill-rule="evenodd" clip-rule="evenodd" d="M15.1099 5.2362C7.1049 5.2362 0.621216 11.7199 0.621216 19.7249C0.621216 26.1361 4.7686 31.5513 10.5279 33.471C11.2523 33.5978 11.524 33.1631 11.524 32.7828C11.524 32.4387 11.5058 31.2977 11.5058 30.0843C7.86556 30.7544 6.92379 29.1969 6.63402 28.3819C6.47102 27.9653 5.7647 26.6795 5.14893 26.3353C4.64183 26.0637 3.91739 25.3936 5.13082 25.3755C6.2718 25.3574 7.08679 26.4259 7.35845 26.8606C8.66244 29.052 10.7452 28.4362 11.5783 28.0559C11.7051 27.1141 12.0854 26.4802 12.5019 26.118C9.2782 25.7558 5.90959 24.5062 5.90959 18.9642C5.90959 17.3886 6.47102 16.0846 7.39468 15.0704C7.24979 14.7082 6.74268 13.2231 7.53956 11.2309C7.53956 11.2309 8.75299 10.8506 11.524 12.716C12.683 12.39 13.9146 12.227 15.1461 12.227C16.3777 12.227 17.6092 12.39 18.7683 12.716C21.5393 10.8325 22.7527 11.2309 22.7527 11.2309C23.5496 13.2231 23.0425 14.7082 22.8976 15.0704C23.8212 16.0846 24.3827 17.3705 24.3827 18.9642C24.3827 24.5243 20.9959 25.7558 17.7722 26.118C18.2974 26.5708 18.7502 27.4401 18.7502 28.7984C18.7502 30.7363 18.7321 32.2938 18.7321 32.7828C18.7321 33.1631 19.0037 33.6159 19.7282 33.471C22.6044 32.5 25.1038 30.6515 26.8744 28.1856C28.6451 25.7197 29.5978 22.7606 29.5986 19.7249C29.5986 11.7199 23.1149 5.2362 15.1099 5.2362Z" fill="#7A7493"/>
<path d="M68.165 26.7182H68.1312C68.1465 26.7182 68.1566 26.7351 68.1718 26.7368H68.182L68.165 26.7199V26.7182ZM68.1718 26.7368C68.0146 26.7385 67.6191 26.8213 67.2015 26.8213C65.8831 26.8213 65.4267 26.2128 65.4267 25.4183V20.1259H68.1143C68.2665 20.1259 68.3848 19.9906 68.3848 19.8047V16.9311C68.3848 16.779 68.2496 16.6437 68.1143 16.6437H65.4267V13.0771C65.4267 12.9419 65.3422 12.8574 65.19 12.8574H61.5389C61.3868 12.8574 61.3022 12.9419 61.3022 13.0771V16.7452C61.3022 16.7452 59.4598 17.2016 59.3414 17.2185C59.2062 17.2523 59.1217 17.3706 59.1217 17.5058V19.8047C59.1217 19.9906 59.2569 20.1259 59.4091 20.1259H61.2853V25.6702C61.2853 29.7946 64.1589 30.2172 66.1197 30.2172C67.0156 30.2172 68.0974 29.9299 68.2665 29.8454C68.3679 29.8115 68.4186 29.6932 68.4186 29.5749V27.0394C68.4209 26.9675 68.3973 26.8971 68.3519 26.8412C68.3066 26.7854 68.2427 26.7477 68.1718 26.7351V26.7368ZM108.226 23.0163C108.226 19.9568 106.992 19.5511 105.691 19.6864C104.677 19.754 103.865 20.2611 103.865 20.2611V26.2111C103.865 26.2111 104.693 26.7858 105.927 26.8196C107.668 26.8703 108.226 26.2449 108.226 23.0163ZM112.334 22.7459C112.334 28.5438 110.458 30.2003 107.178 30.2003C104.406 30.2003 102.919 28.7973 102.919 28.7973C102.919 28.7973 102.851 29.5749 102.766 29.6763C102.716 29.7777 102.631 29.8115 102.53 29.8115H100.028C99.859 29.8115 99.7069 29.6763 99.7069 29.5242L99.7407 10.7444C99.7407 10.5923 99.876 10.4571 100.028 10.4571H103.629C103.781 10.4571 103.916 10.5923 103.916 10.7444V17.117C103.916 17.117 105.302 16.2212 107.33 16.2212L107.313 16.1874C109.342 16.1874 112.334 16.948 112.334 22.7459ZM97.594 16.6437H94.0443C93.8583 16.6437 93.7569 16.779 93.7569 16.9649V26.1604C93.7569 26.1604 92.8272 26.8196 91.5594 26.8196C90.2917 26.8196 89.9198 26.2449 89.9198 24.9772V16.948C89.9198 16.7959 89.7846 16.6606 89.6324 16.6606H86.0151C85.863 16.6606 85.7278 16.7959 85.7278 16.948V25.5857C85.7278 29.3044 87.8069 30.2341 90.6636 30.2341C93.0131 30.2341 94.9232 28.9326 94.9232 28.9326C94.9232 28.9326 95.0077 29.5918 95.0585 29.6932C95.0923 29.7777 95.2106 29.8454 95.3289 29.8454H97.594C97.7799 29.8454 97.8813 29.7101 97.8813 29.558L97.9152 16.9311C97.9152 16.779 97.7799 16.6437 97.594 16.6437ZM57.5328 16.6268H53.9323C53.7802 16.6268 53.645 16.779 53.645 16.9649V29.3721C53.645 29.7101 53.8647 29.8284 54.1521 29.8284H57.3975C57.7356 29.8284 57.8201 29.6763 57.8201 29.3721V16.9142C57.8201 16.7621 57.6849 16.6268 57.5328 16.6268ZM55.7579 10.9135C54.4563 10.9135 53.4252 11.9446 53.4252 13.2461C53.4252 14.5477 54.4563 15.5788 55.7579 15.5788C57.0257 15.5788 58.0568 14.5477 58.0568 13.2461C58.0568 11.9446 57.0257 10.9135 55.7579 10.9135ZM83.6317 10.4909H80.0651C79.913 10.4909 79.7777 10.6261 79.7777 10.7782V17.6918H74.1827V10.7782C74.1827 10.6261 74.0475 10.4909 73.8953 10.4909H70.2949C70.1428 10.4909 70.0075 10.6261 70.0075 10.7782V29.558C70.0075 29.7101 70.1597 29.8454 70.2949 29.8454H73.8953C74.0475 29.8454 74.1827 29.7101 74.1827 29.558V21.5288H79.7777L79.7439 29.558C79.7439 29.7101 79.8791 29.8454 80.0313 29.8454H83.6317C83.7839 29.8454 83.9191 29.7101 83.9191 29.558V10.7782C83.9191 10.6261 83.7839 10.4909 83.6317 10.4909ZM51.7349 18.8074V28.51C51.7349 28.5776 51.718 28.6959 51.6335 28.7297C51.6335 28.7297 49.5205 30.2341 46.0384 30.2341C41.8294 30.2341 36.8429 28.9157 36.8429 20.2273C36.8429 11.5389 41.204 9.74713 45.4637 9.76403C49.1487 9.76403 50.6362 10.5923 50.8728 10.7444C50.9404 10.829 50.9742 10.8966 50.9742 10.9811L50.2643 13.9899C50.2643 14.142 50.1121 14.328 49.9262 14.2773C49.3177 14.0913 48.4049 13.7194 46.2582 13.7194C43.7733 13.7194 41.1026 14.4294 41.1026 20.0244C41.1026 25.6195 43.6381 26.2787 45.4637 26.2787C47.0188 26.2787 47.5766 26.0928 47.5766 26.0928V22.205H45.0918C44.9059 22.205 44.7707 22.0698 44.7707 21.9176V18.8074C44.7707 18.6553 44.9059 18.52 45.0918 18.52H51.4137C51.5997 18.52 51.7349 18.6553 51.7349 18.8074Z" fill="#7A7493"/>
</svg>
