<svg width="114" height="40" viewBox="0 0 114 40" fill="none" xmlns="http://www.w3.org/2000/svg">
<path fill-rule="evenodd" clip-rule="evenodd" d="M2.9145 15.8181H13.1356L8.72932 2.26776C8.51262 1.56126 7.5194 1.56126 7.3027 2.26776L2.9145 15.8181ZM80.2231 11.7603H82.4443V26.3251H89.2342V28.3903H80.2231V11.7603ZM95.0491 26.6331C96.3132 26.6331 97.2522 26.0534 97.812 25.4737V22.3759C97.4328 22.3035 96.6924 22.2491 96.2409 22.2491C93.803 22.2491 92.6653 23.0462 92.6653 24.6947C92.6653 25.7998 93.3516 26.6331 95.0491 26.6331ZM90.7873 17.1044C92.0694 16.0356 93.7127 15.4015 95.5186 15.4015C98.8233 15.4015 99.9971 17.1949 100.015 19.8941V28.4084H98.4441L98.0468 26.778C97.5231 27.9736 95.9881 28.7163 94.3809 28.7163C91.9972 28.7163 90.4261 27.4301 90.4261 24.8578C90.4261 21.9955 92.3945 20.6188 96.2951 20.6188C96.7646 20.6188 97.487 20.6731 97.8481 20.7456V19.9304C97.8481 18.3543 97.0355 17.4123 95.2116 17.4123C93.6044 17.4123 92.4848 17.9558 91.5818 18.4811L90.7873 17.1044ZM105.053 26.3613C105.613 26.615 106.354 26.7236 107.184 26.7236C109.586 26.7236 110.94 25.0751 110.922 21.5789C110.922 19.1152 110.092 17.5935 107.943 17.5935C106.751 17.5935 105.812 18.0464 105.053 18.6804V26.3613ZM105.053 16.7602C105.053 16.7602 106.137 15.4015 108.123 15.4015C111.392 15.4015 113.234 17.8109 113.234 21.4339C113.234 26.0353 111.229 28.6982 107.076 28.6982C105.451 28.6982 103.952 28.4446 102.868 27.9917V11.7603H105.053V14.6044V16.7602ZM62.291 14.8943C61.4603 14.224 60.1782 13.5719 58.2098 13.5719C54.869 13.5719 52.5936 15.7276 52.5936 20.1659C52.5936 24.5317 54.7968 26.615 58.0834 26.615C59.2753 26.615 60.1601 26.4157 60.6658 26.1621L60.6116 21.1984H56.729V19.1333H62.8147V21.2166L62.8689 27.7562C61.7312 28.2272 59.9976 28.7163 57.9389 28.7163C53.8397 28.7163 50.2641 26.3251 50.2641 20.2021C50.2641 14.3689 53.5868 11.4705 58.3182 11.4705C60.1782 11.4705 61.9479 12.0864 63.2481 13.2277L62.291 14.8943ZM71.6995 11.7603H73.8846L73.8665 15.7095H77.5143V17.521H73.8665V24.1694C73.8665 25.7454 74.6791 26.6874 76.503 26.6874C76.8642 26.6874 77.2073 26.6693 77.5143 26.615V28.5714C77.0809 28.662 76.6294 28.6982 76.178 28.6982C72.8733 28.6982 71.6995 26.9048 71.6995 24.2056V14.5501V11.7603ZM68.3587 28.3903H66.1736V15.7095H68.3587V28.3903ZM68.3587 13.9523H66.1736V11.7603H68.3587V13.9523ZM27.7088 15.8182L20.4132 38.3174L13.1176 15.8181H27.6909L32.0791 2.26787C32.3138 1.57949 33.289 1.57949 33.5057 2.26787L37.9119 15.8181H37.9122L37.9122 15.8181L37.9122 15.8181H37.93L37.9175 15.8343L40.1334 22.6476C40.332 23.2635 40.1153 23.9519 39.5917 24.3323L20.4316 38.2993L23.7417 34.0423L20.4133 38.3175L27.7089 15.8182H27.7088ZM20.4131 38.3174L13.1175 15.8181H2.91485H2.9145L2.91474 15.8184L0.693658 22.6476C0.495015 23.2635 0.711716 23.9519 1.23541 24.3323L20.3954 38.2993L4.44298 17.7834L20.4131 38.3174Z" fill="#7A7493"/>
</svg>
