<svg width="95" height="40" viewBox="0 0 95 40" fill="none" xmlns="http://www.w3.org/2000/svg">
<path fill-rule="evenodd" clip-rule="evenodd" d="M12.9823 15.1414V18.4021L20.7753 18.3987C20.5362 20.197 19.9298 21.5138 19.0081 22.4355C17.8715 23.5721 16.0974 24.823 12.9823 24.823C8.17964 24.823 4.42346 20.9524 4.42346 16.1498C4.42346 11.3472 8.17964 7.47664 12.9823 7.47664C15.5742 7.47664 17.4661 8.49538 18.8626 9.80519L21.1634 7.50436C19.216 5.6436 16.6241 4.21597 12.9857 4.21597C6.40897 4.21597 0.878662 9.57303 0.878662 16.1498C0.878662 22.7266 6.40897 28.0836 12.9857 28.0836C16.534 28.0836 19.2125 26.9193 21.3089 24.7363C23.4642 22.581 24.133 19.556 24.133 17.1096C24.133 16.382 24.0775 15.7097 23.9701 15.1414H12.9823ZM78.7188 27.6161V5.09288H75.4269V27.6161H78.7188ZM33.1526 28.0872C37.4008 28.0872 40.8625 24.8265 40.8625 20.4016C40.8625 15.9455 37.4008 12.716 33.1526 12.716C28.9044 12.716 25.4427 15.9455 25.4427 20.4016C25.4427 24.8265 28.9044 28.0872 33.1526 28.0872ZM33.1526 15.7445C35.4812 15.7445 37.4875 17.6364 37.4875 20.4016C37.4875 23.1356 35.4812 25.0587 33.1526 25.0587C30.8241 25.0587 28.8178 23.139 28.8178 20.4016C28.8178 17.6364 30.8241 15.7445 33.1526 15.7445ZM49.7853 28.0872C54.0335 28.0872 57.4952 24.8265 57.4952 20.4016C57.4952 15.9455 54.0335 12.716 49.7853 12.716C45.5371 12.716 42.0755 15.9489 42.0755 20.4016C42.0755 24.8265 45.5371 28.0872 49.7853 28.0872ZM49.7853 15.7445C52.1139 15.7445 54.1202 17.6364 54.1202 20.4016C54.1202 23.1356 52.1139 25.0587 49.7853 25.0587C47.4568 25.0587 45.4505 23.139 45.4505 20.4016C45.4505 17.6364 47.4568 15.7445 49.7853 15.7445ZM73.4349 13.1838V26.9784C73.4349 32.6542 70.0876 34.9724 66.1305 34.9724C62.4055 34.9724 60.1635 32.481 59.3181 30.4435L62.2565 29.2203C62.7797 30.4712 64.0618 31.9473 66.127 31.9473C68.66 31.9473 70.2297 30.3846 70.2297 27.4427V26.3373H70.1119C69.3565 27.2694 67.9011 28.0837 66.0646 28.0837C62.2218 28.0837 58.7013 24.7364 58.7013 20.4293C58.7013 16.091 62.2218 12.716 66.0646 12.716C67.8977 12.716 69.353 13.5303 70.1119 14.4347H70.2297V13.1838H73.4349ZM70.4688 20.4293C70.4688 17.7231 68.6635 15.7445 66.3661 15.7445C64.0375 15.7445 62.0867 17.7231 62.0867 20.4293C62.0867 23.1078 64.0375 25.0587 66.3661 25.0587C68.6635 25.0587 70.4688 23.1078 70.4688 20.4293ZM91.547 22.9311L94.1666 24.6775C93.3211 25.9285 91.2836 28.0837 87.7631 28.0837C83.3971 28.0837 80.1364 24.7087 80.1364 20.3981C80.1364 15.8277 83.4248 12.7125 87.3854 12.7125C91.3737 12.7125 93.3246 15.8866 93.9622 17.6018L94.3121 18.475L84.0381 22.7302C84.8247 24.2721 86.0479 25.0587 87.7631 25.0587C89.4818 25.0587 90.6738 24.2132 91.547 22.9311ZM83.4837 20.166L90.3515 17.3142C89.9738 16.3544 88.8373 15.6856 87.4997 15.6856C85.7845 15.6856 83.3971 17.1999 83.4837 20.166Z" fill="#7A7493"/>
</svg>
