<svg width="123" height="40" viewBox="0 0 123 40" fill="none" xmlns="http://www.w3.org/2000/svg">
<path d="M73.4266 11.549C70.9077 11.549 68.4452 13.8301 68.162 17.1261V11.8207H64.5445V27.8177H68.2063V20.0745C68.2063 17.9055 69.7438 14.8458 73.4266 14.8458V11.549Z" fill="#7A7493"/>
<path d="M111.837 25.2568V14.2969H113.958C116.786 14.2969 119.085 16.0646 119.085 19.6885C119.085 23.3122 116.786 25.2568 113.958 25.2568H111.837ZM108.213 27.82H114.4C118.201 27.82 122.885 25.3452 122.885 19.6885C122.885 14.1201 118.201 11.8221 114.4 11.8221H108.213V27.82Z" fill="#7A7493"/>
<path d="M94.3473 19.8654C94.3473 16.9487 95.8498 14.5622 98.3244 14.5622C100.711 14.5622 102.037 16.9487 102.037 19.8654C102.037 22.7821 100.711 25.1686 98.3244 25.1686C95.8498 25.1686 94.3473 22.7821 94.3473 19.8654ZM90.635 20.0421C90.635 24.815 93.1097 28.1737 96.9987 28.1737C99.827 28.1737 101.506 26.3176 102.39 23.3124V27.8202H106.013V11.8223H102.39V16.0648C101.595 13.2364 99.9156 11.5571 97.2642 11.5571C93.2865 11.5571 90.635 15.1809 90.635 20.0421Z" fill="#7A7493"/>
<path d="M8.11363 28.1737C3.60593 28.1737 0.954346 24.5499 0.954346 20.0421C0.954346 15.3577 3.87109 11.5571 9.4394 11.5571C15.1845 11.5571 17.129 15.4461 17.2174 17.6557H13.0632C12.9748 16.4183 11.9142 14.5622 9.351 14.5622C6.61105 14.5622 4.84334 16.9487 4.84334 19.8654C4.84334 22.7821 6.61105 25.1686 9.351 25.1686C11.8258 25.1686 12.8864 23.2241 13.3284 21.2796H9.351V19.6886H17.6969V27.8202H14.0355V22.6937C13.7703 24.5499 12.6213 28.1737 8.11363 28.1737Z" fill="#7A7493"/>
<path d="M25.1206 28.1735C21.6735 28.1735 19.5523 25.8754 19.5523 21.2794V11.8221H23.2644V21.2794C23.2644 23.6658 24.4135 24.8148 26.3579 24.8148C30.1586 24.8148 31.5728 20.1303 31.5728 16.8601V11.8221H35.2849V27.82H31.6611V21.8981C30.954 25.1684 29.0096 28.1735 25.1206 28.1735Z" fill="#7A7493"/>
<path d="M57.4681 11.5487C54.3009 11.5487 52.303 14.6082 51.6508 17.437C51.5393 13.646 49.675 11.5487 46.6921 11.5487C44.115 11.5487 41.724 13.847 41.1031 17.4828V11.8208H37.4843V27.8191H41.1494V22.0838C41.1494 20.6619 41.7422 14.827 45.4318 14.827C47.8219 14.827 48.0711 16.9829 48.0711 19.93V27.8191H51.7346V22.0838C51.7346 20.6619 52.3519 14.827 56.0415 14.827C58.4297 14.827 58.6763 16.9829 58.6763 19.93V27.8191H62.3448V18.3562C62.3614 13.8165 60.7586 11.5487 57.4681 11.5487Z" fill="#7A7493"/>
<path d="M81.29 11.5487C76.5453 11.5487 73.3302 15.2691 73.3302 19.8612C73.3302 24.921 76.3879 28.1736 81.29 28.1736C86.0348 28.1736 89.307 24.4533 89.307 19.8612C89.307 14.8014 86.19 11.5487 81.29 11.5487ZM81.29 25.3419C78.5278 25.3419 76.7387 23.0033 76.7387 19.8612C76.7387 16.719 78.5339 14.3804 81.29 14.3804C84.0457 14.3804 85.7693 16.719 85.7693 19.8612C85.7693 23.0033 84.044 25.3419 81.29 25.3419Z" fill="#7A7493"/>
</svg>
