<svg width="105" height="40" viewBox="0 0 105 40" fill="none" xmlns="http://www.w3.org/2000/svg">
<path d="M6.11922 5.62985C3.9949 6.51906 1.65957 9.03119 0.921989 12.1845C-0.0120925 16.1798 3.87506 17.8693 4.19388 17.3153C4.56914 16.6644 3.49735 16.4443 3.27673 14.3713C2.9916 11.6939 4.23632 8.70223 5.80283 7.38957C6.09402 7.14569 6.08017 7.48513 6.08017 8.11299C6.08017 9.23575 6.01813 19.3149 6.01813 21.4184C6.01813 24.2647 5.90057 25.1635 5.68943 26.0517C5.47549 26.9517 5.13156 27.5599 5.39217 27.7942C5.68335 28.0562 6.92656 27.4329 7.64627 26.4284C8.50931 25.2237 8.81141 23.7769 8.86565 22.2056C8.93117 20.3116 8.92837 17.3061 8.93117 15.5918C8.93379 14.0195 8.95765 9.41558 8.90361 6.64785C8.89036 5.96898 7.00762 5.25675 6.11912 5.62902L6.11922 5.62985ZM81.5537 18.9505C81.4853 20.4302 81.1577 21.5868 80.7512 22.4026C79.9642 23.982 78.3311 24.4724 77.6377 22.202C77.2599 20.9644 77.2422 18.8975 77.5139 17.1704C77.7904 15.411 78.5626 14.0823 79.8412 14.2021C81.1023 14.3206 81.6926 15.9457 81.5537 18.9505ZM60.2932 28.1311C60.276 30.5898 59.8891 32.7455 59.0593 33.3717C57.8824 34.2595 56.3005 33.5935 56.628 31.7994C56.9179 30.2118 58.2885 28.5904 60.2965 26.6093C60.2965 26.6093 60.3006 27.0611 60.2932 28.1311ZM59.9717 18.9361C59.8998 20.2839 59.5504 21.6378 59.1692 22.4028C58.3823 23.9822 56.7374 24.4759 56.0557 22.2022C55.5896 20.6487 55.7013 18.638 55.9319 17.3711C56.2311 15.7274 56.9565 14.2025 58.2592 14.2025C59.5257 14.2025 60.1503 15.5919 59.9717 18.9361ZM47.6554 18.9155C47.5782 20.3429 47.2998 21.5361 46.8529 22.4028C46.0444 23.9713 44.4449 24.4688 43.7394 22.2022C43.2309 20.5678 43.404 18.3393 43.6156 17.1355C43.9295 15.349 44.7156 14.0825 45.9429 14.2025C47.2035 14.3256 47.8163 15.9457 47.6554 18.9155ZM104.098 20.5828C103.79 20.5828 103.649 20.9004 103.533 21.4351C103.129 23.2942 102.705 23.714 102.158 23.714C101.547 23.714 100.998 22.7935 100.857 20.9507C100.746 19.5017 100.764 16.834 100.906 14.1803C100.935 13.6351 100.784 13.0956 99.322 12.5644C98.6927 12.3359 97.778 11.9994 97.3226 13.0988C96.0357 16.2047 95.5323 18.6705 95.4138 19.6723C95.4077 19.7241 95.3441 19.7347 95.3329 19.6136C95.2575 18.8113 95.0887 17.3533 95.0677 14.2902C95.0637 13.6926 94.9371 13.1839 94.2774 12.7674C93.8494 12.4971 92.5497 12.0192 92.0817 12.5878C91.6762 13.0528 91.2066 14.3043 90.7187 15.7879C90.3221 16.9936 90.0459 17.8093 90.0459 17.8093C90.0459 17.8093 90.0512 14.5559 90.0559 13.3219C90.058 12.8563 89.7386 12.7012 89.6424 12.673C89.2089 12.5472 88.355 12.3371 87.9925 12.3371C87.5453 12.3371 87.4358 12.5871 87.4358 12.9513C87.4358 12.999 87.3652 17.2347 87.3652 20.1965C87.3652 20.3252 87.3652 20.4655 87.3665 20.6146C87.1191 21.9759 86.3169 23.8238 85.4445 23.8238C84.571 23.8238 84.1589 23.0513 84.1589 19.5203C84.1589 17.4605 84.2207 16.5648 84.2512 15.075C84.2688 14.2169 84.3029 13.5579 84.3009 13.4084C84.2945 12.9498 83.5015 12.7187 83.1326 12.6333C82.7619 12.5471 82.4397 12.5138 82.1882 12.5281C81.8321 12.5482 81.5802 12.7818 81.5802 13.103C81.5802 13.2753 81.5822 13.6028 81.5822 13.6028C81.1236 12.8822 80.386 12.3807 79.8953 12.2353C78.5736 11.8428 77.1943 12.1906 76.154 13.6463C75.3272 14.803 74.8288 16.1131 74.6326 17.9952C74.4892 19.3713 74.536 20.7666 74.7909 21.9467C74.4829 23.2783 73.9111 23.8238 73.285 23.8238C72.376 23.8238 71.7171 22.3402 71.7936 19.7743C71.8441 18.0867 72.1818 16.9023 72.5509 15.1889C72.7083 14.4585 72.5804 14.0761 72.2597 13.7096C71.9655 13.3735 71.3387 13.2017 70.4376 13.4129C69.7958 13.5635 68.8781 13.7255 68.0385 13.8499C68.0385 13.8499 68.0891 13.6477 68.1307 13.2914C68.3491 11.4225 66.3183 11.5741 65.6703 12.171C65.2835 12.5274 65.0203 12.9477 64.9203 13.7035C64.7619 14.9028 65.74 15.4684 65.74 15.4684C65.4191 16.9375 64.6324 18.8565 63.8203 20.2439C63.3853 20.9873 63.0525 21.5381 62.6229 22.1237C62.6213 21.9056 62.6201 21.6876 62.6194 21.4706C62.6095 18.3821 62.6506 15.9514 62.6688 15.0753C62.6864 14.2172 62.7209 13.5757 62.7189 13.4262C62.7141 13.0908 62.5182 12.9641 62.1108 12.8037C61.7506 12.6619 61.3247 12.5637 60.8829 12.5295C60.3252 12.486 59.9893 12.7817 59.998 13.1315C59.9997 13.1975 59.9997 13.603 59.9997 13.603C59.5411 12.8823 58.8036 12.3808 58.3129 12.2354C56.9911 11.8431 55.6119 12.1909 54.5715 13.6465C53.7449 14.8031 53.2035 16.4262 53.0501 17.981C52.9072 19.4301 52.9336 20.6616 53.1284 21.6989C52.9182 22.7377 52.3139 23.8239 51.6307 23.8239C50.7572 23.8239 50.2602 23.0514 50.2602 19.5205C50.2602 17.4606 50.322 16.5649 50.3524 15.0753C50.3701 14.2172 50.4042 13.5581 50.4022 13.4087C50.3958 12.9501 49.6028 12.719 49.2339 12.6334C48.8478 12.5441 48.5145 12.5113 48.2585 12.5301C47.9208 12.5553 47.6834 12.8577 47.6834 13.0832V13.603C47.2248 12.8823 46.4873 12.3808 45.9966 12.2354C44.6748 11.8431 43.3033 12.1965 42.2553 13.6465C41.5718 14.5919 41.0186 15.6401 40.7338 17.9604C40.6515 18.631 40.6152 19.2589 40.6199 19.8458C40.3474 21.5124 39.1437 23.4333 38.1591 23.4333C37.583 23.4333 37.0343 22.3158 37.0343 19.9341C37.0343 16.7616 37.2306 12.2447 37.2638 11.8094C37.2638 11.8094 38.5078 11.7882 38.7487 11.7854C39.3693 11.7786 39.9313 11.7933 40.7578 11.751C41.1723 11.7299 41.5717 10.2421 41.1438 10.058C40.9499 9.97469 39.5794 9.90167 39.0361 9.89014C38.5793 9.87979 37.3075 9.78567 37.3075 9.78567C37.3075 9.78567 37.4216 6.78752 37.4481 6.4708C37.4707 6.20684 37.1291 6.07093 36.9333 5.98846C36.4571 5.78704 36.031 5.6906 35.526 5.58648C34.8282 5.44254 34.5117 5.58334 34.4498 6.17224C34.3567 7.066 34.3085 9.68382 34.3085 9.68382C33.7964 9.68382 32.0474 9.58372 31.5352 9.58372C31.0593 9.58372 30.5457 11.6303 31.2036 11.6554C31.9606 11.6848 33.2797 11.7101 34.1542 11.7365C34.1542 11.7365 34.1153 16.3279 34.1153 17.7454C34.1153 17.8962 34.1166 18.0414 34.1168 18.1823C33.6355 20.691 31.9403 22.0461 31.9403 22.0461C32.3044 20.3865 31.5607 19.1402 30.2211 18.0852C29.7276 17.6964 28.7533 16.9604 27.6632 16.1539C27.6632 16.1539 28.2945 15.5316 28.8545 14.2798C29.2512 13.393 29.2683 12.3782 28.2945 12.1544C26.6856 11.7844 25.359 12.9661 24.9633 14.2275C24.6567 15.2048 24.8202 15.93 25.4208 16.6832C25.4646 16.7383 25.5122 16.7945 25.5612 16.8511C25.198 17.5512 24.6991 18.4937 24.2765 19.2246C23.1036 21.2538 22.2176 22.8589 21.5479 22.8589C21.0127 22.8589 21.0198 21.2293 21.0198 19.7036C21.0198 18.3882 21.117 16.4107 21.1945 14.3633C21.2202 13.6862 20.8816 13.3004 20.3141 12.951C19.9692 12.7388 19.2332 12.3214 18.8069 12.3214C18.1689 12.3214 16.3282 12.4082 14.5889 17.4393C14.3697 18.0735 13.9391 19.2289 13.9391 19.2289L13.9762 13.1788C13.9762 13.037 13.9006 12.8998 13.7276 12.806C13.4345 12.6469 12.6517 12.3214 11.9557 12.3214C11.624 12.3214 11.4585 12.4757 11.4585 12.7831L11.3978 22.2486C11.3978 22.9678 11.4166 23.8068 11.4877 24.1737C11.5585 24.5411 11.6733 24.84 11.8154 25.0179C11.9574 25.1954 12.1216 25.3308 12.3923 25.3866C12.6442 25.4385 14.0239 25.6157 14.0956 25.0884C14.1815 24.4566 14.1848 23.7732 14.9092 21.2243C16.037 17.2561 17.5075 15.3199 18.1988 14.6323C18.3196 14.5121 18.4576 14.505 18.451 14.7017C18.4215 15.5717 18.3177 17.7456 18.2478 19.5925C18.0606 24.535 18.9597 25.4511 20.2446 25.4511C21.2276 25.4511 22.6133 24.4744 24.0988 22.0019C25.0248 20.4611 25.924 18.9503 26.57 17.8614C27.0202 18.2782 27.5254 18.7267 28.0303 19.2059C29.2036 20.3194 29.5888 21.3775 29.3332 22.3813C29.1377 23.1487 28.4016 23.9395 27.0913 23.1709C26.7094 22.9466 26.5464 22.7734 26.1625 22.5206C25.9561 22.3847 25.6412 22.3441 25.4523 22.4864C24.9618 22.8563 24.6812 23.3267 24.521 23.9092C24.3652 24.4759 24.9328 24.7755 25.5211 25.0376C26.0278 25.2631 27.1167 25.4675 27.8111 25.4907C30.5168 25.5812 32.6842 24.1843 34.1931 20.5811C34.4632 23.6929 35.6127 25.4539 37.6098 25.4539C38.945 25.4539 40.2837 23.728 40.8691 22.0302C41.0372 22.7223 41.286 23.3241 41.6072 23.833C43.1461 26.2713 46.1315 25.7465 47.6311 23.676C48.0948 23.0363 48.1653 22.8064 48.1653 22.8064C48.384 24.7614 49.9584 25.4445 50.8599 25.4445C51.8694 25.4445 52.9118 24.9672 53.6424 23.3224C53.728 23.5009 53.8215 23.6714 53.9235 23.833C55.4624 26.2712 58.4478 25.7464 59.9474 23.676C60.0181 23.5789 60.0795 23.4907 60.1331 23.4117L60.1771 24.6958C60.1771 24.6958 59.3216 25.4806 58.7965 25.962C56.4853 28.0825 54.7278 29.6913 54.5985 31.5647C54.4326 33.9535 56.37 34.8413 57.8357 34.9577C59.3922 35.0812 60.7251 34.2214 61.5445 33.018C62.2651 31.9589 62.7368 29.6792 62.7022 27.4277C62.6884 26.5261 62.6657 25.3798 62.6479 24.151C63.4602 23.2076 64.3754 22.0153 65.2182 20.6196C66.1366 19.0987 67.1208 17.0562 67.6248 15.4666C67.6248 15.4666 68.4799 15.4739 69.3925 15.4142C69.6845 15.3952 69.7683 15.4547 69.7143 15.6687C69.6492 15.9273 68.5613 20.1232 69.5541 22.9183C70.2337 24.8317 71.7656 25.4474 72.6739 25.4474C73.7371 25.4474 74.7542 24.6445 75.2992 23.4522C75.3649 23.5851 75.4335 23.7137 75.5085 23.8325C77.0474 26.2707 80.0223 25.7428 81.5324 23.6754C81.8732 23.209 82.0666 22.8058 82.0666 22.8058C82.3907 24.8291 83.9642 25.4542 84.8654 25.4542C85.8042 25.4542 86.6952 25.0693 87.4181 23.3589C87.4483 24.112 87.4958 24.7278 87.5709 24.9219C87.6167 25.0407 87.8835 25.1897 88.0776 25.2617C88.9364 25.5802 89.8123 25.4296 90.1364 25.3641C90.3608 25.3186 90.5359 25.1385 90.5598 24.6735C90.6227 23.4524 90.5841 21.4007 90.9543 19.8759C91.5757 17.317 92.1553 16.3244 92.4303 15.833C92.5842 15.5576 92.7579 15.5122 92.7642 15.8036C92.7771 16.3932 92.8064 18.1246 93.0472 20.4509C93.224 22.1618 93.4601 23.173 93.6416 23.493C94.1596 24.4083 94.7994 24.4516 95.3203 24.4516C95.6517 24.4516 96.3447 24.36 96.2827 23.7776C96.2525 23.4937 96.3054 21.7392 96.9181 19.2182C97.3182 17.5719 97.9851 16.0843 98.2257 15.5405C98.3144 15.3399 98.3557 15.498 98.3543 15.5288C98.3036 16.6626 98.1899 20.3711 98.6518 22.3993C99.2779 25.1469 101.089 25.4544 101.72 25.4544C103.068 25.4544 104.17 24.4294 104.541 21.7325C104.63 21.0835 104.498 20.5823 104.101 20.5823" fill="#7A7493"/>
</svg>
