<svg width="139" height="40" viewBox="0 0 139 40" fill="none" xmlns="http://www.w3.org/2000/svg">
<path fill-rule="evenodd" clip-rule="evenodd" d="M48.7026 25.1569C48.7026 25.7488 48.2688 26.2353 47.6515 26.2353C47.051 26.2353 46.6172 25.7477 46.6172 25.1569V14.875C46.6172 14.2831 47.051 13.7966 47.6683 13.7966C48.2688 13.7966 48.7026 14.2842 48.7026 14.875V25.1569Z" fill="#7A7493"/>
<path fill-rule="evenodd" clip-rule="evenodd" d="M62.1819 14.8749V24.2702C62.1819 25.5404 61.5316 26.2541 60.4973 26.2541H60.4144C59.4304 26.2541 58.9625 25.6623 58.5459 24.7922L56.4437 20.5296L54.5752 16.1284L54.6255 20.3911L54.6423 25.1403C54.6423 25.7321 54.2089 26.2187 53.5912 26.2187C52.9907 26.2187 52.5573 25.731 52.5573 25.1403V15.745C52.5573 14.579 53.2076 13.761 54.3425 13.761H54.4258C55.4769 13.761 55.9103 14.3529 56.3278 15.2229L58.396 19.4512L60.1645 23.5576L60.1147 19.6252L60.0979 14.8761C60.0979 14.2842 60.5313 13.7976 61.149 13.7976C61.7481 13.7965 62.1819 14.2831 62.1819 14.8749Z" fill="#7A7493"/>
<path fill-rule="evenodd" clip-rule="evenodd" d="M70.5407 25.1403C70.5407 25.7322 70.1074 26.2187 69.4896 26.2187C68.8896 26.2187 68.4558 25.731 68.4558 25.1403V15.8326H65.8699C65.3365 15.8326 64.9031 15.4147 64.9031 14.8062C64.9031 14.2144 65.3365 13.7977 65.8699 13.7977H73.1266C73.66 13.7977 74.0939 14.2155 74.0939 14.824C74.0939 15.4158 73.66 15.8326 73.1266 15.8326H70.5407V25.1403Z" fill="#7A7493"/>
<path fill-rule="evenodd" clip-rule="evenodd" d="M76.8133 24.7924V15.1366C76.8133 14.2322 77.2969 13.7279 78.1814 13.7623H84.1872C84.7207 13.7623 85.154 14.1967 85.154 14.7886C85.154 15.3805 84.7207 15.7972 84.1872 15.7972H78.8815V18.7897H83.5695C84.0871 18.7897 84.5037 19.1898 84.5037 19.7639C84.5037 20.338 84.0871 20.7381 83.5695 20.7381H78.8815V24.1828H84.1872C84.7207 24.1828 85.154 24.6173 85.154 25.2091C85.154 25.801 84.7207 26.2177 84.1872 26.2177H78.1311C77.2639 26.2188 76.7807 25.7145 76.8133 24.7924Z" fill="#7A7493"/>
<path fill-rule="evenodd" clip-rule="evenodd" d="M96.5162 26.2709C97.0999 25.9572 97.2838 25.3133 96.9999 24.809L94.9144 20.9476C96.6331 20.5996 97.6343 19.2773 97.6343 17.4852C97.6343 15.6065 96.5004 13.7623 93.7805 13.7623H89.827C88.943 13.7279 88.4594 14.2322 88.4594 15.1366V25.1581C88.4594 25.7489 88.8927 26.2365 89.4932 26.2365C90.1109 26.2365 90.5443 25.75 90.5443 25.1581L90.5276 21.3654H92.7294L95.0485 25.8364C95.331 26.3407 95.9488 26.5668 96.5162 26.2709ZM93.8294 19.3982H90.5262V15.7961H93.8126C94.9135 15.7961 95.5312 16.5265 95.5312 17.5883C95.5312 18.65 94.9475 19.3982 93.8294 19.3982Z" fill="#7A7493"/>
<path fill-rule="evenodd" clip-rule="evenodd" d="M101.937 25.2966C100.687 24.1306 100.119 22.3041 100.119 20.0077C100.119 17.6934 100.67 15.8847 101.905 14.7364C102.672 14.0404 103.706 13.5705 105.208 13.5705C106.526 13.5705 107.544 13.8841 108.311 14.5624C108.979 15.1188 109.462 15.9024 109.746 16.9985C109.896 17.5726 109.512 18.1467 108.878 18.2687C108.278 18.3729 107.795 17.9727 107.611 17.3986C107.411 16.8423 107.143 16.4421 106.827 16.1628C106.393 15.7627 105.859 15.5887 105.158 15.5887C104.407 15.5887 103.756 15.8148 103.272 16.3191C102.572 17.0495 102.271 18.3551 102.271 20.0077C102.271 21.6435 102.555 22.948 103.289 23.6784C103.773 24.1827 104.407 24.4088 105.141 24.4088C105.908 24.4088 106.492 24.2005 106.976 23.7305C107.226 23.4867 107.444 23.1741 107.594 22.8084C107.811 22.2686 108.261 21.8685 108.844 22.0082C109.428 22.1478 109.796 22.7386 109.612 23.3127C109.311 24.2692 108.795 25.035 108.094 25.5571C107.327 26.1312 106.376 26.4271 105.175 26.4271C103.64 26.4271 102.672 25.9571 101.937 25.2966Z" fill="#7A7493"/>
<path fill-rule="evenodd" clip-rule="evenodd" d="M117.253 13.5705C113.632 13.5705 112.098 16.1108 112.098 20.0077C112.098 24.0265 113.617 26.4448 117.253 26.4448C120.823 26.4448 122.392 24.0265 122.392 20.0077C122.392 16.0409 120.84 13.5705 117.253 13.5705ZM117.236 15.6065C119.222 15.6065 120.255 17.0495 120.255 20.0077C120.255 22.9647 119.204 24.4088 117.236 24.4088C115.251 24.4088 114.25 22.9658 114.25 20.0077C114.25 17.0506 115.284 15.6065 117.236 15.6065Z" fill="#7A7493"/>
<path fill-rule="evenodd" clip-rule="evenodd" d="M138.574 25.1402C138.574 25.7321 138.14 26.2187 137.523 26.2187C136.923 26.2187 136.489 25.731 136.489 25.1402V20.4775L136.539 15.9367L135.087 20.5474L133.619 25.0882C133.37 25.8884 132.852 26.202 132.201 26.202C131.517 26.202 131.017 25.8718 130.75 25.0715L129.248 20.5485L127.863 16.0076L127.913 20.4787V25.1414C127.913 25.7332 127.479 26.2198 126.862 26.2198C126.262 26.2198 125.828 25.7321 125.828 25.1414V15.8336C125.828 14.5457 126.495 13.7976 127.663 13.7976C128.765 13.7976 129.382 14.4061 129.732 15.52L131.266 20.2692L132.201 23.5055L133.152 20.2692L134.686 15.52C135.037 14.4061 135.638 13.7976 136.739 13.7976C137.907 13.7976 138.557 14.528 138.557 15.8336L138.574 25.1402Z" fill="#7A7493"/>
<path d="M29.7791 21.7852C29.7791 22.0964 29.6599 22.3949 29.4477 22.615C29.2355 22.835 28.9477 22.9587 28.6476 22.9587C28.3475 22.9587 28.0596 22.835 27.8474 22.615C27.6352 22.3949 27.516 22.0964 27.516 21.7852V11.3019C27.516 10.9906 27.6352 10.6921 27.8474 10.4721C28.0596 10.252 28.3475 10.1284 28.6476 10.1284C28.9477 10.1284 29.2355 10.252 29.4477 10.4721C29.6599 10.6921 29.7791 10.9906 29.7791 11.3019V21.7852ZM29.3864 29.0489C29.2367 29.2041 25.0285 32.8408 17.3133 32.8408C9.59815 32.8408 5.41798 29.2235 5.2403 29.0683C5.1283 28.9704 5.03608 28.8506 4.96886 28.7156C4.90165 28.5806 4.86082 28.4333 4.84863 28.2819C4.83648 28.1305 4.85323 27.9782 4.89797 27.8336C4.9427 27.6889 5.01453 27.5549 5.10935 27.4391C5.30467 27.2048 5.58137 27.06 5.87919 27.0364C6.17702 27.0127 6.47177 27.1122 6.69912 27.313C6.76462 27.3615 10.524 30.523 17.3039 30.523C24.0839 30.523 27.8714 27.3421 27.9088 27.313C28.1387 27.114 28.4344 27.0159 28.733 27.0394C29.0317 27.0629 29.3096 27.2063 29.5079 27.4391C29.6987 27.6699 29.7939 27.9695 29.7729 28.2728C29.7519 28.5761 29.6164 28.8584 29.3957 29.0587L29.3864 29.0489ZM4.83815 11.3019C4.85505 10.9896 4.99046 10.6971 5.21479 10.4881C5.43906 10.2791 5.73405 10.1707 6.03518 10.1866C6.31434 10.203 6.57776 10.3261 6.77462 10.532C6.97148 10.738 7.08786 11.0122 7.10126 11.3019V21.7658C7.10126 22.0771 6.98205 22.3755 6.76983 22.5956C6.55765 22.8157 6.26984 22.9393 5.96973 22.9393C5.66963 22.9393 5.38181 22.8157 5.16959 22.5956C4.95737 22.3755 4.83815 22.0771 4.83815 21.7658V11.3019ZM10.5146 8.97437C10.5316 8.66216 10.6669 8.36959 10.8913 8.16058C11.1155 7.95162 11.4105 7.84321 11.7116 7.85908C11.9908 7.87551 12.2542 7.99859 12.4511 8.20453C12.6479 8.41046 12.7643 8.68469 12.7777 8.97437V24.491C12.7777 24.8021 12.6585 25.1006 12.4463 25.3207C12.2341 25.5407 11.9463 25.6644 11.6462 25.6644C11.3461 25.6644 11.0583 25.5407 10.8461 25.3207C10.6338 25.1006 10.5146 24.8021 10.5146 24.491V8.97437ZM16.2192 8.39249C16.2192 8.08126 16.3384 7.78278 16.5506 7.56274C16.7628 7.34266 17.0506 7.21902 17.3507 7.21902C17.6508 7.21902 17.9387 7.34266 18.1508 7.56274C18.363 7.78278 18.4823 8.08126 18.4823 8.39249V25.2668C18.4823 25.578 18.363 25.8765 18.1508 26.0965C17.9387 26.3166 17.6508 26.4402 17.3507 26.4402C17.0506 26.4402 16.7628 26.3166 16.5506 26.0965C16.3384 25.8765 16.2192 25.578 16.2192 25.2668V8.39249ZM21.8302 8.97437C21.8302 8.66313 21.9494 8.36466 22.1616 8.14462C22.3738 7.92453 22.6616 7.80089 22.9617 7.80089C23.2619 7.80089 23.5497 7.92453 23.7618 8.14462C23.9741 8.36466 24.0933 8.66313 24.0933 8.97437V24.491C24.0933 24.8021 23.9741 25.1006 23.7618 25.3207C23.5497 25.5407 23.2619 25.6644 22.9617 25.6644C22.6616 25.6644 22.3738 25.5407 22.1616 25.3207C21.9494 25.1006 21.8302 24.8021 21.8302 24.491V8.97437ZM30.0877 2.57377H4.57631C4.02041 2.5699 3.46926 2.67981 2.95442 2.8972C2.43954 3.11454 1.97111 3.43508 1.57585 3.84043C1.1806 4.24584 0.86634 4.72805 0.651094 5.25955C0.435801 5.79101 0.323756 6.36134 0.321289 6.93781V33.122C0.323756 33.6985 0.435801 34.2688 0.651094 34.8003C0.86634 35.3318 1.1806 35.814 1.57585 36.2194C1.97111 36.6248 2.43954 36.9453 2.95442 37.1627C3.46926 37.38 4.02041 37.4898 4.57631 37.4861H30.0877C30.6428 37.4898 31.1932 37.3804 31.7075 37.1636C32.2217 36.9468 32.6898 36.6271 33.0849 36.2228C33.48 35.8185 33.7944 35.3374 34.0103 34.807C34.2261 34.2767 34.3391 33.7074 34.3427 33.1318V6.93781C34.3403 6.36213 34.2285 5.79264 34.0138 5.26179C33.7991 4.73093 33.4857 4.24914 33.0915 3.84388C32.6972 3.43866 32.2299 3.11794 31.7161 2.89999C31.2023 2.68204 30.6522 2.57121 30.0971 2.57377" fill="#7A7493"/>
</svg>
