<svg width="103" height="40" viewBox="0 0 103 40" fill="none" xmlns="http://www.w3.org/2000/svg">
<path fill-rule="evenodd" clip-rule="evenodd" d="M0.608765 37.4863H35.4381V20.6264L38.9106 29.2128H42.3833L47.8988 15.3219H44.0176L40.647 24.6166L37.2764 15.3219H35.4381V2.65692H0.608765V37.4863ZM12.8654 13.5859C13.9889 13.5859 14.9081 12.7688 14.9081 11.5431C14.9081 10.4196 13.9889 9.50033 12.8654 9.50033C11.7418 9.50033 10.8226 10.3174 10.8226 11.5431C10.8226 12.7688 11.7418 13.5859 12.8654 13.5859ZM8.57552 24.4126L8.57552 24.4126C8.47338 24.9233 8.37124 25.434 8.37124 25.9447C8.37124 27.6811 9.29049 28.9067 11.3333 28.9067C13.0696 28.9067 14.3974 27.8853 15.4188 26.2511L14.806 28.7024H18.1766L20.1172 21.042C20.6279 19.1014 21.5472 18.08 22.9771 18.08C24.1006 18.08 24.8156 18.795 24.8156 19.9185C24.8156 20.2249 24.8156 20.6335 24.7135 21.042L23.6921 24.6169L23.6921 24.6169C23.5899 25.1276 23.4878 25.6383 23.4878 26.149C23.4878 27.7832 24.5092 29.0089 26.552 29.0089C28.2883 29.0089 29.7183 27.8853 30.5354 25.1276L29.2076 24.6169C28.5948 26.4554 27.9819 26.7618 27.5734 26.7618C27.1648 26.7618 26.8584 26.4554 26.8584 25.8426C26.8584 25.6893 26.8839 25.5361 26.9095 25.3829C26.935 25.2297 26.9605 25.0765 26.9605 24.9233L27.8798 21.4506C28.0841 20.6335 28.1862 19.9185 28.1862 19.3057C28.1862 16.7522 26.6541 15.4244 24.7135 15.4244C22.9771 15.4244 21.1386 17.0586 20.2194 18.6928L20.8322 15.7308H15.7252L15.0103 18.3864H17.3595L15.9295 24.0041C14.806 26.5575 12.6611 26.6597 12.3547 26.5575C11.9461 26.4554 11.6397 26.2511 11.6397 25.7404C11.6397 25.434 11.7418 24.9233 11.844 24.4126L14.091 15.5265H8.47338L7.75841 18.1821H10.1076L8.57552 24.4126ZM52.9036 29.1107H49.1245V15.3219H52.9036V29.1107ZM58.4191 24.6166H54.64C54.8443 27.2722 56.3764 29.4171 60.7683 29.5193C64.4453 29.5193 66.5903 27.5786 66.5903 25.1273C66.5903 21.6415 63.7451 21.1525 61.5227 20.7706C60.0984 20.5258 58.9298 20.325 58.9298 19.4075C58.9298 18.6925 59.6448 18.0797 60.8705 18.0797C62.1983 18.0797 62.8111 18.7947 62.9133 19.7139H66.4881C66.386 17.6711 64.956 15.0155 60.7683 15.0155C57.3978 15.0155 55.2528 17.0583 55.2528 19.6118C55.2528 22.9492 58.0576 23.4444 60.2729 23.8355C61.7186 24.0908 62.9133 24.3017 62.9133 25.2294C62.9133 25.9444 62.1983 26.4551 60.7683 26.4551C59.1341 26.4551 58.5213 25.5358 58.4191 24.6166ZM72.2079 29.1107H68.4288V15.3219H72.2079V29.1107ZM84.5667 22.1653C84.5667 24.7187 83.0346 26.1487 81.094 26.1487C79.1534 26.1487 77.6213 24.7187 77.6213 22.1653C77.6213 19.6118 79.1534 18.1818 81.094 18.1818C83.0346 18.1818 84.5667 19.7139 84.5667 22.1653ZM81.094 14.9134C76.702 14.9134 73.8421 18.1818 73.8421 22.1653C73.8421 26.1487 76.702 29.4171 81.094 29.4171C85.486 29.4171 88.3459 26.1487 88.3459 22.1653C88.3459 18.1818 85.486 14.9134 81.094 14.9134ZM97.6405 14.9134C95.5977 14.9134 94.1678 15.7305 93.5549 16.9562V15.3219H89.9801V29.1107H93.7592V21.1439C93.7592 19.2032 94.7806 18.0797 96.6191 18.0797C98.2533 18.0797 98.9683 19.2032 98.9683 20.8375V29.1107H102.747V20.4289C102.747 17.1605 101.011 14.9134 97.6405 14.9134Z" fill="#7A7493"/>
</svg>
