<svg width="124" height="40" viewBox="0 0 124 40" fill="none" xmlns="http://www.w3.org/2000/svg">
<path fill-rule="evenodd" clip-rule="evenodd" d="M16.4161 4.40497C11.6241 4.40497 7.33019 6.53758 4.4317 9.90549L26.7208 32.1946C30.0887 29.2961 32.2213 25.0021 32.2213 20.2101C32.2213 11.4812 25.1451 4.40497 16.4161 4.40497ZM1.88553 13.982L22.6444 34.7408C23.4005 34.4163 24.1261 34.0345 24.8159 33.601L3.0254 11.8104C2.5918 12.5002 2.21003 13.2259 1.88553 13.982ZM17.2731 35.9925L0.633789 19.3532C0.686664 18.3636 0.830559 17.3982 1.05725 16.4652L20.161 35.569C19.2281 35.7957 18.2627 35.9396 17.2731 35.9925ZM0.832698 22.8635L13.7628 35.7936C7.15982 34.6774 1.94883 29.4664 0.832698 22.8635ZM60.2691 29.6749H48.6884V11.5839H52.5133V26.5213H60.2691V29.6749ZM66.4946 29.6749H62.7314V16.1066H66.4946V29.6749ZM66.6624 12.5909C66.6624 13.6686 65.7172 14.499 64.6218 14.499C63.5353 14.499 62.5902 13.6686 62.5902 12.5909C62.5902 11.5221 63.5353 10.6917 64.6218 10.6917C65.7172 10.6917 66.6624 11.5221 66.6624 12.5909ZM75.8425 19.057C74.3232 19.057 73.2808 20.0817 73.2721 21.8308V29.6749H69.5089V16.1066H73.0954V18.5005H73.2544C73.8639 16.9193 75.3214 15.93 77.3355 15.93C80.1623 15.93 82.0173 17.8733 82.0173 21.0357V29.6749H78.2542V21.7071C78.263 20.0464 77.3532 19.057 75.8425 19.057ZM97.35 25.7882C96.82 28.3057 94.5675 29.94 91.2019 29.94C87.0325 29.94 84.4796 27.2546 84.4796 22.9526C84.4796 18.7655 87.0677 15.93 91.0605 15.93C94.6469 15.93 97.4383 18.209 97.4383 22.8201V23.8536H88.1985V23.8625C88.1985 25.8853 89.3909 27.1309 91.2725 27.1309C92.518 27.1309 93.4985 26.5921 93.8784 25.5585L97.35 25.7882ZM91.1224 18.739C89.4529 18.739 88.2692 19.9757 88.1985 21.5216H93.8961C93.8784 19.9051 92.7477 18.739 91.1224 18.739ZM107.782 27.7934C107.12 29.0566 105.821 29.9311 103.816 29.9311C101.228 29.9311 99.311 28.5707 99.311 25.8853C99.311 22.8554 101.723 21.9544 104.408 21.7071C106.767 21.4774 107.703 21.3449 107.694 20.4527C107.685 19.3132 106.979 18.6772 105.68 18.6772C104.328 18.6772 103.525 19.3397 103.268 20.2407L99.7881 19.9581C100.309 17.4847 102.42 15.93 105.759 15.93C108.692 15.93 111.457 17.2903 111.457 20.5234V29.6749H107.888V27.7934H107.782ZM102.906 25.7616C102.906 26.7952 103.737 27.334 104.894 27.334C106.546 27.334 107.72 26.2475 107.72 24.8254V23.3855C107.27 23.6858 105.927 23.8801 105.106 23.995C103.781 24.1804 102.906 24.7017 102.906 25.7616ZM118.14 29.6749H114.377V16.1066H118.025V18.474H118.166C118.661 16.7957 119.898 15.9123 121.426 15.9123C122.15 15.9123 122.786 16.1066 123.281 16.407L122.15 19.5164C121.797 19.3397 121.381 19.1984 120.869 19.1984C119.35 19.1984 118.148 20.3379 118.14 21.9986V29.6749Z" fill="#7A7493"/>
</svg>
