<svg width="98" height="40" viewBox="0 0 98 40" fill="none" xmlns="http://www.w3.org/2000/svg">
<path fill-rule="evenodd" clip-rule="evenodd" d="M20.4413 18.2609H29.3505V21.306H20.4413L28.1566 25.738L26.6254 28.3758L18.7435 23.8488L23.2814 31.6673L20.7951 33.0948L16.2582 25.2783V34.3303H13.1959V25.4684L8.7398 33.1433L6.08878 31.6207L10.5439 23.9448L2.82666 28.3768L1.29647 25.7389L9.01173 21.307H0.102539V18.2609H9.0127L1.29647 13.8289L2.82763 11.1911L10.5429 15.6211L6.08878 7.94714L8.74078 6.42457L13.1959 14.0995V5.23657H16.2582V14.0985L20.7133 6.42457L23.3643 7.94714L18.9102 15.623L26.6274 11.1911L28.1576 13.8289L20.4413 18.2609ZM13.134 23.6094C13.6391 23.8174 14.1804 23.9245 14.727 23.9245C15.831 23.9243 16.8898 23.4878 17.6703 22.711C18.4509 21.9341 18.8893 20.8805 18.8892 19.782C18.8891 18.6835 18.4504 17.63 17.6697 16.8533C16.8889 16.0766 15.8301 15.6404 14.726 15.6405C14.1794 15.6406 13.6381 15.7478 13.1331 15.956C12.6281 16.1642 12.1692 16.4693 11.7827 16.854C11.3962 17.2387 11.0897 17.6953 10.8805 18.1979C10.6714 18.7004 10.5638 19.239 10.5638 19.783C10.5639 20.3269 10.6716 20.8655 10.8809 21.368C11.0901 21.8705 11.3968 22.3271 11.7834 22.7116C12.17 23.0962 12.6289 23.4013 13.134 23.6094ZM37.2454 9.14178V30.4248H41.1712V9.14178H37.2454ZM78.6471 15.9614H74.8987V30.4258H78.8235V21.9595C78.8235 20.372 79.8274 19.1064 81.5399 19.1064C83.3118 19.1064 84.109 20.2827 84.109 21.8412V30.4258H88.0037V21.9595C88.0037 20.4011 89.0076 19.1064 90.6908 19.1064C92.4919 19.1064 93.2599 20.2827 93.2599 21.8412V30.4248H97.0669V21.0469C97.0669 17.1668 94.4997 15.5502 91.8136 15.5502C89.8945 15.5502 88.3585 16.1951 87.2084 17.9601C86.4706 16.4036 84.877 15.5502 82.8985 15.5502C81.305 15.5502 79.4444 16.3153 78.6471 17.7264V15.9614ZM42.4178 23.1931C42.4178 27.5785 45.6205 30.8438 50.0434 30.8438C54.4644 30.8438 57.669 27.5475 57.669 23.1931C57.669 18.9086 54.4975 15.5356 50.0434 15.5356C45.6107 15.5356 42.4178 18.8775 42.4178 23.1931ZM47.1192 20.2836C47.8947 19.5114 48.9463 19.0769 50.0434 19.0754C51.1403 19.0772 52.1917 19.5118 52.9669 20.2839C53.7422 21.056 54.178 22.1026 54.1788 23.1941C54.178 24.2855 53.7422 25.3321 52.9669 26.1042C52.1917 26.8763 51.1403 27.311 50.0434 27.3128C48.9463 27.3112 47.8947 26.8767 47.1192 26.1045C46.3437 25.3324 45.9078 24.2857 45.907 23.1941C45.9078 22.1025 46.3437 21.0557 47.1192 20.2836ZM58.4282 23.1931C58.4282 27.5785 61.6309 30.8438 66.0538 30.8438C70.4728 30.8438 73.6794 27.5475 73.6794 23.1931C73.6794 18.9086 70.5079 15.5356 66.0538 15.5356C61.6211 15.5356 58.4282 18.8775 58.4282 23.1931ZM63.0961 20.2483C63.8805 19.4673 64.9442 19.0277 66.0538 19.0259C67.1635 19.0277 68.2271 19.4673 69.0115 20.2483C69.7958 21.0293 70.2369 22.088 70.2379 23.1921C70.2369 24.2963 69.7958 25.3549 69.0115 26.1359C68.2271 26.9169 67.1635 27.3566 66.0538 27.3583C64.9442 27.3566 63.8805 26.9169 63.0961 26.1359C62.3118 25.3549 61.8707 24.2963 61.8697 23.1921C61.8707 22.088 62.3118 21.0293 63.0961 20.2483Z" fill="#7A7493"/>
</svg>
