<svg width="140" height="40" viewBox="0 0 140 40" fill="none" xmlns="http://www.w3.org/2000/svg">
<path fill-rule="evenodd" clip-rule="evenodd" d="M63.9364 24.3818C62.9651 24.6059 62.4626 24.307 62.4626 23.6636C62.4626 22.7821 63.3741 22.4292 64.6762 22.4292C65.249 22.4292 65.7893 22.4787 65.7893 22.4787C65.7893 22.8561 64.9692 24.1437 63.9364 24.3818ZM64.9248 15.5561C61.8155 15.5561 59.5832 16.6995 59.5832 16.6995V20.0606C59.5832 20.0606 62.0478 18.6438 64.0474 18.6438C65.6426 18.6438 65.8387 19.5045 65.7664 20.2185C65.7664 20.2185 65.3059 20.0968 63.9019 20.0968C60.5923 20.0968 58.9223 21.6009 58.9223 24.0123C58.9223 26.2999 60.7993 27.2559 62.3812 27.2559C64.6887 27.2559 65.7037 25.7048 66.015 24.9691C66.2315 24.4587 66.2714 24.1146 66.4651 24.1146C66.6874 24.1146 66.6126 24.3615 66.6014 24.8694C66.5831 25.7592 66.6255 26.4317 66.7664 26.9986H69.8266V21.4941C69.8266 18.0573 68.6105 15.5561 64.9248 15.5561Z" fill="#7A7493"/>
<path fill-rule="evenodd" clip-rule="evenodd" d="M85.0662 21.4116C85.0662 20.4062 86.0009 19.4906 87.7166 19.4906C89.5857 19.4906 91.0898 20.3908 91.4269 20.5953V16.7042C91.4269 16.7042 90.2391 15.5604 87.3193 15.5604C84.2416 15.5604 81.6785 17.3613 81.6785 21.2378C81.6785 25.1139 84.0047 27.2635 87.311 27.2635C89.8941 27.2635 91.4335 25.8442 91.4335 25.8442V22.1489C90.9464 22.4211 89.5894 23.3633 87.7353 23.3633C85.7724 23.3633 85.0662 22.4598 85.0662 21.4116ZM44.1648 15.8152C44.1652 15.8177 44.3601 16.6539 44.1033 17.7474C43.9723 18.3035 43.7317 18.7765 44.0222 18.7765C44.2225 18.7765 44.223 18.6103 44.4836 18.0143C44.8647 17.1431 45.6681 15.5575 47.5455 15.5575C49.3301 15.5575 50.1709 16.6419 50.4494 17.6572C50.6614 18.4286 50.476 18.7765 50.7345 18.7765C50.9182 18.7765 50.9818 18.3763 51.2079 17.87C51.614 16.9631 52.4972 15.5575 54.2835 15.5575C56.9788 15.5575 58.0079 17.5039 58.0079 20.4236V27.0025H54.0038V20.9373C54.0038 19.9261 53.8405 18.9453 52.9186 18.9453C52.0645 18.9453 51.6664 20.459 51.6664 21.4361V27.005H47.5887V20.9377C47.5887 19.6439 47.4062 18.9457 46.4968 18.9457C45.7096 18.9457 45.2504 20.3384 45.2504 21.4365V27.0029H41.1889V15.8152H44.1648ZM71.1595 15.8306C71.1611 15.8314 71.8523 16.23 73.194 16.23C74.5381 16.23 75.2205 15.8306 75.2205 15.8306V27.0054H71.1595V15.8306ZM104.687 15.8306C104.689 15.8314 105.38 16.23 106.722 16.23C108.066 16.23 108.749 15.8306 108.749 15.8306V27.0054H104.687V15.8306ZM80.5962 12.4283V27.0054H76.5347V12.4283H80.5962ZM96.2535 12.4283C96.2539 12.4295 96.4219 12.8485 96.4219 14.0945C96.4219 15.9345 96.0216 17.432 95.8325 18.0026C95.7323 18.3048 95.5536 18.7711 95.8101 18.7794C95.958 18.784 96.047 18.5612 96.2282 18.1747C96.4086 17.7877 97.303 15.56 99.6537 15.56C102.892 15.56 103.368 18.2117 103.368 21.0832V27.005H99.3067V20.8401C99.3067 19.5758 99.0415 18.9477 98.1941 18.9477C97.1708 18.9477 96.8092 20.5321 96.8092 21.439V27.005H92.7477V12.4279L96.2535 12.4283ZM113.097 15.8152C113.097 15.8177 113.292 16.6539 113.035 17.7474C112.904 18.3035 112.664 18.7765 112.954 18.7765C113.154 18.7765 113.155 18.6103 113.415 18.0143C113.796 17.1431 114.6 15.5575 116.477 15.5575C118.343 15.5575 119.084 16.6469 119.381 17.6572C119.581 18.3343 119.408 18.7765 119.666 18.7765C119.85 18.7765 119.914 18.3763 120.14 17.87C120.545 16.9631 121.429 15.5575 123.215 15.5575C125.911 15.5575 126.94 17.5039 126.94 20.4236V27.0025H122.936V20.9373C122.936 19.9261 122.772 18.9453 121.85 18.9453C120.996 18.9453 120.598 20.459 120.598 21.4361V27.005H116.52V20.9377C116.52 19.6439 116.338 18.9457 115.429 18.9457C114.642 18.9457 114.182 20.3384 114.182 21.4365V27.0029H110.121V15.8152H113.097ZM73.1777 12.3152C71.8054 12.3152 70.6919 13.0417 70.6919 13.9378C70.6919 14.8339 71.8049 15.5604 73.1777 15.5604C74.551 15.5604 75.664 14.8339 75.664 13.9378C75.664 13.0417 74.5514 12.3152 73.1777 12.3152ZM106.706 12.3152C105.333 12.3152 104.22 13.0417 104.22 13.9378C104.22 14.8339 105.333 15.5604 106.706 15.5604C108.079 15.5604 109.192 14.8339 109.192 13.9378C109.192 13.0417 108.079 12.3152 106.706 12.3152Z" fill="#7A7493"/>
<path fill-rule="evenodd" clip-rule="evenodd" d="M133.858 24.5946C132.927 24.5946 132.242 23.4139 132.242 21.7684C132.242 20.1703 132.945 18.943 133.826 18.943C134.955 18.943 135.437 19.9792 135.437 21.7684C135.437 23.63 134.993 24.5946 133.858 24.5946ZM134.972 15.5536C132.885 15.5536 131.928 17.1184 131.513 18.0099C131.238 18.5989 131.253 18.7722 131.051 18.7722C130.762 18.7722 131.002 18.2992 131.133 17.7431C131.391 16.6479 131.195 15.8113 131.195 15.8113H128.221V30.085H132.28V25.5597C132.76 26.3748 133.65 27.2455 135.022 27.2455C137.959 27.2455 139.436 24.7613 139.436 21.4052C139.436 17.6014 137.668 15.5536 134.973 15.5536" fill="#7A7493"/>
<path fill-rule="evenodd" clip-rule="evenodd" d="M26.8318 18.931C27.1049 18.8986 27.3663 18.897 27.6069 18.931C27.7462 18.6118 27.7699 18.062 27.6448 17.463C27.459 16.5728 27.2071 16.0341 26.6868 16.1181C26.1664 16.2021 26.1473 16.8471 26.3335 17.7369C26.4382 18.2378 26.6244 18.6659 26.8318 18.931Z" fill="#7A7493"/>
<path fill-rule="evenodd" clip-rule="evenodd" d="M22.3676 19.6356C22.7395 19.7989 22.9685 19.9074 23.0579 19.8126C23.1157 19.7536 23.0982 19.641 23.0093 19.4959C22.8256 19.1962 22.4478 18.892 22.0467 18.7212C21.2271 18.3683 20.2491 18.4855 19.4948 19.0275C19.2458 19.21 19.0097 19.4627 19.0434 19.616C19.0542 19.6655 19.0916 19.7029 19.1789 19.7154C19.3842 19.7386 20.1016 19.3762 20.9283 19.3255C21.5114 19.2898 21.9952 19.4722 22.3676 19.6356Z" fill="#7A7493"/>
<path fill-rule="evenodd" clip-rule="evenodd" d="M21.6204 20.0628C21.1354 20.1393 20.8682 20.2993 20.6965 20.4477C20.5502 20.5757 20.4596 20.7175 20.4604 20.8168C20.4609 20.8642 20.4812 20.8916 20.4974 20.9053C20.5195 20.9249 20.5456 20.9357 20.5772 20.9357C20.6865 20.9357 20.9322 20.8372 20.9322 20.8372C21.6067 20.5957 22.0519 20.6252 22.4928 20.6751C22.7364 20.7025 22.8519 20.7175 22.9051 20.6339C22.9209 20.6098 22.94 20.5579 22.8914 20.4789C22.778 20.2948 22.2879 19.9835 21.6204 20.0628Z" fill="#7A7493"/>
<path fill-rule="evenodd" clip-rule="evenodd" d="M25.3254 21.6307C25.6545 21.7924 26.017 21.7288 26.135 21.489C26.253 21.2492 26.0818 20.9233 25.7526 20.7616C25.4235 20.6 25.061 20.6635 24.943 20.9034C24.825 21.1436 24.9962 21.469 25.3254 21.6307Z" fill="#7A7493"/>
<path fill-rule="evenodd" clip-rule="evenodd" d="M27.442 19.7817C27.1748 19.7771 26.9528 20.0706 26.9466 20.4376C26.9404 20.8046 27.1523 21.105 27.4196 21.1096C27.6868 21.1142 27.9088 20.8208 27.915 20.4538C27.9212 20.0872 27.7093 19.7863 27.442 19.7817Z" fill="#7A7493"/>
<path fill-rule="evenodd" clip-rule="evenodd" d="M9.47884 26.394C9.41234 26.3105 9.30304 26.3358 9.19705 26.3608C9.12307 26.3782 9.03953 26.3974 8.94768 26.3961C8.75109 26.3924 8.58442 26.3084 8.49091 26.1646C8.36913 25.9776 8.37619 25.6987 8.51044 25.3795L8.5732 25.2365C8.78766 24.7552 9.14635 23.9502 8.74361 23.1829C8.4402 22.6052 7.94561 22.2457 7.35086 22.1701C6.77979 22.0977 6.1921 22.3093 5.81721 22.7228C5.22577 23.3754 5.13309 24.2636 5.24739 24.5773C5.28936 24.6921 5.35503 24.7241 5.40241 24.7307C5.50299 24.744 5.65179 24.6709 5.74489 24.4202L5.77149 24.3388C5.81305 24.2062 5.89035 23.9593 6.01712 23.7615C6.17007 23.5229 6.40781 23.3587 6.68711 23.2985C6.97139 23.2374 7.26233 23.2918 7.50588 23.4514C7.92026 23.7224 8.07986 24.2303 7.9028 24.7145C7.81137 24.9651 7.66257 25.4443 7.6954 25.8379C7.7619 26.6347 8.25192 26.9547 8.69207 26.9888C9.12016 27.005 9.41941 26.7644 9.49505 26.589C9.53952 26.4851 9.50212 26.4219 9.47759 26.3949" fill="#7A7493"/>
<path fill-rule="evenodd" clip-rule="evenodd" d="M13.5505 11.7601C14.947 10.1466 16.6656 8.74391 18.2055 7.9563C18.2587 7.92887 18.3152 7.98664 18.2866 8.03901C18.1644 8.26054 17.9287 8.73476 17.8543 9.09427C17.8427 9.15038 17.9038 9.19237 17.9512 9.16036C18.9092 8.50742 20.5754 7.80751 22.0371 7.71773C22.0999 7.71399 22.1302 7.79421 22.0804 7.83286C21.858 8.00327 21.6149 8.23934 21.4374 8.47791C21.4071 8.51864 21.4357 8.57683 21.4864 8.57724C22.5126 8.58473 23.9594 8.94382 24.9024 9.47291C24.966 9.50865 24.9207 9.63209 24.8492 9.61588C23.4224 9.28879 21.087 9.04066 18.6606 9.63251C16.4948 10.1608 14.8415 10.9766 13.6357 11.8536C13.5746 11.8981 13.5011 11.817 13.5505 11.7601ZM20.5047 27.3925L20.5052 27.3933L20.506 27.395L20.5047 27.3925ZM26.2628 28.072C26.3043 28.0546 26.3326 28.0076 26.328 27.9606C26.3222 27.9029 26.2707 27.8609 26.2129 27.8667C26.2129 27.8667 23.2333 28.3077 20.4183 27.2774C20.725 26.2807 21.5401 26.6406 22.7724 26.74C24.9935 26.8725 26.9843 26.5479 28.4556 26.1257C29.7303 25.7599 31.4049 25.0384 32.7053 24.0118C33.1438 24.9752 33.2989 26.0359 33.2989 26.0359C33.2989 26.0359 33.6384 25.9752 33.9223 26.1498C34.1904 26.3148 34.387 26.6577 34.2527 27.5446C33.9792 29.2013 33.2752 30.5462 32.0915 31.7835C31.3708 32.5591 30.4963 33.2332 29.4955 33.7237C28.9639 34.003 28.3982 34.2444 27.8002 34.4394C23.338 35.897 18.7703 34.2947 17.2982 30.8542C17.1806 30.5957 17.0813 30.3247 17.0031 30.0417C16.3759 27.7744 16.9084 25.0542 18.5733 23.3418C18.676 23.2329 18.7807 23.1037 18.7807 22.942C18.7807 22.8069 18.6947 22.6644 18.6203 22.563C18.0376 21.718 16.0198 20.2783 16.425 17.4919C16.7159 15.4903 18.4665 14.0805 20.0987 14.164L20.5122 14.1877C21.2196 14.2297 21.8364 14.3203 22.4187 14.3448C23.3933 14.3872 24.2694 14.2455 25.3077 13.3806C25.6576 13.0888 25.9386 12.8357 26.4136 12.7555C26.4635 12.7468 26.5878 12.7023 26.8359 12.7139C27.0894 12.7277 27.3305 12.7971 27.547 12.9413C28.3791 13.4949 28.4972 14.8361 28.5404 15.817C28.5649 16.3768 28.6327 17.7317 28.6559 18.1208C28.7087 19.0102 28.9427 19.1353 29.4157 19.2912C29.6817 19.3789 29.9286 19.4441 30.2927 19.5464C31.3941 19.8556 32.047 20.1694 32.4589 20.5725C32.7045 20.8244 32.8188 21.0921 32.8541 21.3473C32.9838 22.2949 32.1185 23.4653 29.8272 24.5288C27.3226 25.6913 24.284 25.9856 22.1847 25.7516L21.449 25.6685C19.7699 25.4424 18.8119 27.6124 19.8198 29.0995C20.4694 30.0579 22.2387 30.6813 24.0089 30.6817C28.0674 30.6821 31.1871 28.949 32.3475 27.4523L32.4402 27.3202C32.4975 27.2341 32.4501 27.1868 32.3791 27.2354C31.431 27.8842 27.22 30.4598 22.7154 29.6846C22.7154 29.6846 22.1681 29.5945 21.6685 29.4004C21.2716 29.2457 20.4403 28.8634 20.3393 28.0109C23.9744 29.1352 26.2628 28.072 26.2628 28.072ZM6.29668 19.4333C5.03236 19.6789 3.91807 20.3955 3.23687 21.3855C2.82956 21.0459 2.07104 20.3884 1.9368 20.132C0.849111 18.0663 3.12381 14.0506 4.71315 11.7825C8.64079 6.17785 14.792 1.93559 17.6394 2.70532C18.1024 2.83624 19.6357 4.61386 19.6357 4.61386C19.6357 4.61386 16.7891 6.19323 14.1495 8.39478C10.5926 11.1333 7.90639 15.1137 6.29668 19.4333ZM8.42092 28.9116C8.22974 28.9444 8.0344 28.9573 7.83739 28.9523C5.93509 28.9012 3.88066 27.1888 3.67659 25.1581C3.45091 22.9133 4.59803 21.186 6.62876 20.7762C6.87148 20.7271 7.16491 20.6989 7.4812 20.7155C8.61917 20.7779 10.2958 21.6515 10.6786 24.1303C11.0177 26.3256 10.4791 28.5608 8.42092 28.9116ZM34.1879 24.9366C34.1717 24.8788 34.0653 24.491 33.9194 24.0235C33.7735 23.5555 33.6226 23.2267 33.6226 23.2267C34.2078 22.351 34.2182 21.5675 34.1401 21.1241C34.0569 20.5742 33.8279 20.1058 33.3666 19.6212C32.9053 19.137 31.9614 18.6407 30.6351 18.2683L29.9394 18.0751C29.936 18.0464 29.9028 16.4346 29.8729 15.7426C29.8508 15.2422 29.808 14.4612 29.5657 13.6923C29.2769 12.6512 28.774 11.7401 28.146 11.1574C29.8791 9.3611 30.961 7.38191 30.9581 5.68451C30.9531 2.41979 26.9436 1.43186 22.0022 3.47797L20.9553 3.92227C20.9507 3.9177 19.0625 2.06527 19.0343 2.04033C13.4005 -2.87358 -4.21359 16.7052 1.41768 21.4603L2.64834 22.5031C2.32915 23.3302 2.20362 24.2778 2.30628 25.2965C2.43762 26.6053 3.11259 27.8596 4.20693 28.8289C5.24557 29.7491 6.6113 30.3318 7.93631 30.3305C10.1279 35.3808 15.1353 38.4788 21.0064 38.6534C27.3043 38.8404 32.591 35.8853 34.8063 30.577C34.9514 30.2046 35.5661 28.5259 35.5661 27.0438C35.5661 25.5546 34.724 24.9366 34.1879 24.9366Z" fill="#7A7493"/>
</svg>
