<svg width="121" height="40" viewBox="0 0 121 40" fill="none" xmlns="http://www.w3.org/2000/svg">
<path d="M9.46804 10.6706C14.4297 10.6706 18.4711 14.712 18.4711 19.7137C18.4711 24.7155 14.4297 28.7568 9.46804 28.7568C4.50635 28.7568 0.464966 24.7555 0.464966 19.7137C0.464966 14.672 4.50635 10.6706 9.46804 10.6706ZM80.0522 10.4706V26.316C80.0522 27.5164 80.5323 27.8365 81.4527 28.0766L81.4927 28.2767H76.4109V26.316C75.8107 27.7565 74.5703 28.6368 72.9697 28.6368C70.2488 28.6368 68.4482 26.1559 68.4482 22.4747C68.4482 20.394 69.0484 18.6334 70.1688 17.3129C71.2492 16.0325 72.7297 15.3522 74.3702 15.3522C75.1705 15.3522 75.8507 15.5123 76.4109 15.8724V13.7117C76.4109 13.2315 76.2909 12.9114 76.0508 12.6713C75.7307 12.3912 75.2105 12.2712 74.4103 12.3512H74.3702V12.1512L80.0522 10.4706ZM99.3388 15.3923V26.316C99.3388 27.5164 99.8189 27.8365 100.739 28.0766V28.2767H95.6575V26.276C95.0573 27.7165 93.7369 28.6368 92.2564 28.6368C90.4958 28.6368 89.3754 27.8365 88.9352 26.276L88.8552 25.8758C88.7752 25.4757 88.7351 25.0756 88.7351 24.6754V18.8334C88.7351 17.553 88.4551 17.1529 87.3347 17.0728H87.2947V16.8728L92.3764 15.3923V24.5954C92.3764 25.9559 92.9766 26.7161 94.097 26.7161C94.7772 26.7161 95.3374 26.356 95.6575 25.7558V18.8334C95.6575 17.513 95.4174 17.1129 94.4971 17.0328H94.4571V16.8328L99.3388 15.3923ZM62.6462 15.3522C64.0067 15.3522 65.3271 15.8324 66.2075 16.6727C67.2078 17.633 67.728 19.0335 67.768 20.8741V20.9142H60.1254C59.9653 23.5551 61.6059 25.7158 63.7666 25.7958C65.3271 25.9159 66.6876 24.9555 67.4479 23.395L67.6479 23.475C67.2078 26.396 65.4872 28.5968 62.4862 28.5968C59.085 28.5968 57.1644 25.7558 57.0843 22.1946V21.2743C57.2444 19.7137 57.7245 18.3133 58.5648 17.2729C59.085 16.6327 59.6852 16.1525 60.4055 15.8324C61.0057 15.5123 61.886 15.3522 62.6062 15.3522H62.6462ZM115.584 15.3923C117.745 15.3923 119.066 16.7527 119.066 19.0735V26.5161C119.066 27.3964 119.466 27.8365 120.466 28.0766H120.506V28.2767H115.384V19.1936C115.384 17.7531 114.864 17.0328 113.784 17.0328C112.903 17.0328 112.463 17.673 112.223 18.2332C112.263 18.5133 112.303 18.7934 112.303 19.0735V26.6361C112.303 27.5564 112.583 27.8765 113.384 28.0766H113.424V28.2767H108.662V19.1936C108.662 17.7531 108.102 17.0328 107.061 17.0328C106.221 17.0328 105.781 17.633 105.581 18.1132V26.6761C105.581 27.5964 105.861 27.9165 106.661 28.1166H106.701V28.3167H101.94V18.7934C101.94 17.513 101.62 17.1129 100.539 17.0328H100.499V16.8328L105.581 15.4323V17.553C106.101 16.1925 107.302 15.3923 108.822 15.3923C110.543 15.3923 111.743 16.2326 112.143 17.7531C112.663 16.3126 113.984 15.3923 115.584 15.3923ZM42.5994 11.2709L47.361 22.4347L52.1226 11.2709H57.2444L57.2044 11.4709L57.1462 11.4839C56.2638 11.685 55.8039 12.0149 55.8039 13.1115V26.7161C55.8839 27.5964 56.3641 27.8765 57.2044 28.0766H57.2444V28.2767H50.7221V28.0766H50.7622C51.6025 27.8765 52.0826 27.5964 52.1626 26.7161V13.4716L45.8805 28.2367H45.5204L39.3983 13.8717V26.396C39.3983 27.5164 39.8784 27.8365 40.7988 28.0366H40.8388V28.2367H37.0775V28.0366H37.1175C38.0378 27.8365 38.518 27.5164 38.518 26.396V13.1115C38.518 11.9911 38.0378 11.671 37.1175 11.4709H37.0775V11.2709H42.5994ZM86.2543 15.3923V26.316L86.2549 26.3899C86.2745 27.5297 86.7536 27.8415 87.6548 28.0766L87.6948 28.2767H82.6131V18.8334C82.6131 17.553 82.333 17.1529 81.2126 17.0728H81.1726V16.8728L86.2543 15.3923ZM23.873 11.1908C26.3138 11.1908 28.3545 15.0321 28.3545 19.7137C28.3545 24.4354 26.3538 28.2367 23.873 28.2367C21.3921 28.2367 19.3914 24.4354 19.3914 19.7137C19.3914 14.9921 21.3921 11.1908 23.873 11.1908ZM30.7553 12.0711C31.6756 12.0711 32.3559 15.5123 32.3559 19.7137C32.3559 23.9152 31.6356 27.3564 30.7553 27.3564C29.8838 27.3564 29.1692 23.9837 29.155 19.8396L29.1548 19.7137C29.1548 15.5123 29.875 12.0711 30.7553 12.0711ZM74.9704 16.0725C73.3699 16.0725 72.3696 18.1932 72.3696 21.4743C72.3696 23.0349 72.6496 24.3953 73.1298 25.3157C73.57 26.196 74.2102 26.6761 74.9304 26.6761C75.6507 26.6761 76.1708 26.356 76.4109 25.7558V16.9528C76.1308 16.3926 75.6107 16.0725 74.9704 16.0725ZM62.6062 16.1125C61.1657 16.1125 60.3254 17.8331 60.2054 20.2339V20.2739H64.5669C64.6469 18.3933 64.3268 17.1529 63.7266 16.5527C63.4065 16.2726 63.0464 16.1125 62.6062 16.1125ZM84.2936 10.5906C85.454 10.5906 86.3343 11.4709 86.3343 12.6313C86.3343 13.7917 85.454 14.672 84.2936 14.672C83.1332 14.672 82.2529 13.7917 82.2529 12.6313C82.2529 11.4709 83.1332 10.5906 84.2936 10.5906Z" fill="#7A7493"/>
</svg>
