<svg width="138" height="40" viewBox="0 0 138 40" fill="none" xmlns="http://www.w3.org/2000/svg">
<path fill-rule="evenodd" clip-rule="evenodd" d="M14.8012 18.8922H0.983765V5.07477H14.8012V18.8922ZM137.19 18.2294V15.834H134.216V12.11L134.116 12.1408L131.322 12.9957L131.267 13.0124V15.8341H126.857V14.2622C126.857 13.5303 127.02 12.9701 127.343 12.5966C127.663 12.2275 128.121 12.0399 128.706 12.0399C129.126 12.0399 129.561 12.1389 129.998 12.334L130.108 12.383V9.86034L130.057 9.84136C129.648 9.69458 129.093 9.62067 128.404 9.62067C127.537 9.62067 126.748 9.80948 126.061 10.1837C125.373 10.5584 124.832 11.0934 124.453 11.7735C124.075 12.4529 123.883 13.2375 123.883 14.1058V15.834H121.812V18.2294H123.883V28.3208H126.857V18.2294H131.267V24.6423C131.267 27.2834 132.512 28.6218 134.969 28.6218C135.373 28.6218 135.798 28.5745 136.232 28.4819C136.674 28.3868 136.974 28.2918 137.151 28.1903L137.191 28.1671V25.7496L137.07 25.8296C136.908 25.9371 136.707 26.025 136.472 26.0903C136.235 26.1569 136.037 26.1902 135.884 26.1902C135.309 26.1902 134.883 26.0351 134.619 25.729C134.352 25.4202 134.216 24.8801 134.216 24.1246V18.2294H137.19ZM115.172 26.1906C114.093 26.1906 113.242 25.8327 112.642 25.1278C112.039 24.4193 111.733 23.4093 111.733 22.1259C111.733 20.8019 112.039 19.7656 112.642 19.0446C113.242 18.3283 114.085 17.9648 115.148 17.9648C116.179 17.9648 116.999 18.312 117.587 18.9973C118.178 19.6861 118.478 20.7141 118.478 22.0536C118.478 23.4095 118.196 24.4511 117.64 25.1478C117.088 25.8393 116.257 26.1906 115.172 26.1906ZM115.304 15.5331C113.245 15.5331 111.61 16.1365 110.444 17.3264C109.278 18.5165 108.687 20.1633 108.687 22.2217C108.687 24.1768 109.264 25.7493 110.402 26.895C111.539 28.041 113.088 28.6216 115.003 28.6216C116.999 28.6216 118.602 28.0098 119.767 26.8034C120.933 25.5983 121.523 23.967 121.523 21.9567C121.523 19.9711 120.969 18.3868 119.876 17.2488C118.782 16.1103 117.244 15.5331 115.304 15.5331ZM103.893 15.5331C102.493 15.5331 101.334 15.8914 100.449 16.5978C99.5587 17.3084 99.107 18.2403 99.107 19.368C99.107 19.9542 99.2045 20.475 99.3963 20.9166C99.5894 21.3597 99.8881 21.7499 100.285 22.0773C100.679 22.4021 101.287 22.7423 102.092 23.0884C102.77 23.3671 103.275 23.6028 103.595 23.7886C103.909 23.9707 104.132 24.1537 104.257 24.332C104.379 24.5064 104.441 24.7452 104.441 25.0398C104.441 25.8787 103.813 26.2869 102.52 26.2869C102.041 26.2869 101.494 26.1868 100.895 25.9894C100.3 25.795 99.7385 25.5103 99.2302 25.1453L99.1067 25.0568V27.9195L99.152 27.9406C99.5728 28.1348 100.103 28.2986 100.728 28.4275C101.352 28.5565 101.919 28.6221 102.412 28.6221C103.932 28.6221 105.156 28.2621 106.049 27.5515C106.948 26.8361 107.403 25.8821 107.403 24.7154C107.403 23.8737 107.158 23.1519 106.674 22.5698C106.195 21.9924 105.361 21.4624 104.199 20.9938C103.274 20.6223 102.681 20.3138 102.436 20.077C102.2 19.8483 102.08 19.5248 102.08 19.1152C102.08 18.7521 102.228 18.4611 102.532 18.2255C102.837 17.9888 103.263 17.8683 103.797 17.8683C104.292 17.8683 104.799 17.9466 105.303 18.1C105.807 18.2533 106.25 18.4588 106.619 18.71L106.74 18.793V16.0775L106.694 16.0574C106.353 15.9113 105.904 15.7863 105.358 15.6848C104.815 15.584 104.322 15.5331 103.893 15.5331ZM91.3554 26.1906C90.2764 26.1906 89.4252 25.8327 88.8257 25.1278C88.2223 24.4193 87.9171 23.4095 87.9171 22.1259C87.9171 20.8019 88.2227 19.7656 88.8264 19.0446C89.4259 18.3283 90.2685 17.9648 91.3316 17.9648C92.3622 17.9648 93.1829 18.312 93.771 18.9973C94.3619 19.6861 94.6617 20.7141 94.6617 22.0536C94.6617 23.4095 94.3796 24.4511 93.8235 25.1478C93.2713 25.8393 92.4414 26.1906 91.3554 26.1906ZM91.488 15.5331C89.4284 15.5331 87.7929 16.1365 86.6274 17.3264C85.4622 18.5165 84.8709 20.1633 84.8709 22.2217C84.8709 24.1776 85.4481 25.7493 86.5857 26.895C87.7233 28.041 89.2714 28.6216 91.1868 28.6216C93.1824 28.6216 94.7856 28.0098 95.9512 26.8034C97.1164 25.5983 97.707 23.967 97.707 21.9567C97.707 19.9711 97.1529 18.3868 96.0594 17.2488C94.9654 16.1103 93.4272 15.5331 91.488 15.5331ZM80.3574 17.9964V15.834H77.4202V28.3205H80.3574V21.9331C80.3574 20.847 80.6036 19.9548 81.0896 19.2808C81.5693 18.6149 82.2086 18.2775 82.9892 18.2775C83.2537 18.2775 83.5507 18.3211 83.8723 18.4074C84.1907 18.4931 84.4213 18.5863 84.5572 18.6843L84.6807 18.7738V15.8126L84.6331 15.7922C84.3596 15.676 83.9726 15.6173 83.483 15.6173C82.7449 15.6173 82.0844 15.8545 81.5186 16.3215C81.022 16.7319 80.6631 17.2947 80.3886 17.9964H80.3574ZM72.1602 15.5331C70.8127 15.5331 69.6107 15.8221 68.5884 16.3917C67.564 16.9626 66.7717 17.7777 66.2327 18.8141C65.696 19.848 65.4235 21.0558 65.4235 22.4026C65.4235 23.5824 65.6877 24.6651 66.2099 25.6193C66.7323 26.5751 67.4718 27.3228 68.4078 27.8414C69.3425 28.3594 70.4228 28.622 71.6189 28.622C73.0148 28.622 74.2065 28.3429 75.1621 27.7925L75.2007 27.7704V25.0795L75.0772 25.1696C74.6444 25.4849 74.1607 25.7365 73.6402 25.9178C73.1211 26.099 72.6478 26.1906 72.2328 26.1906C71.0803 26.1906 70.155 25.83 69.4835 25.119C68.8104 24.4071 68.4692 23.4074 68.4692 22.1495C68.4692 20.8837 68.8251 19.8583 69.5264 19.1017C70.2257 18.3474 71.1526 17.9648 72.2813 17.9648C73.2467 17.9648 74.1874 18.2917 75.0775 18.9373L75.2007 19.0268V16.1914L75.1609 16.169C74.826 15.9815 74.3691 15.8267 73.802 15.7093C73.2373 15.5922 72.685 15.5331 72.1602 15.5331ZM63.4006 15.8341H60.4634V28.3205H63.4006V15.8341ZM61.9621 10.5148C61.4786 10.5148 61.057 10.6794 60.7106 11.0055C60.3628 11.3325 60.1863 11.7442 60.1863 12.2302C60.1863 12.7085 60.3606 13.1127 60.7052 13.431C61.0475 13.7485 61.4705 13.9093 61.9622 13.9093C62.4538 13.9093 62.8783 13.7485 63.2247 13.4316C63.5734 13.1127 63.7502 12.7086 63.7502 12.2302C63.7502 11.7612 63.5781 11.3537 63.2391 11.0186C62.9003 10.6842 62.4705 10.5148 61.9621 10.5148ZM54.6336 14.9128V28.3205H57.6311V10.897H53.4824L48.2091 23.8387L43.0916 10.897H38.774V28.3204H41.5909V14.9115H41.6876L47.0915 28.3205H49.2173L54.5369 14.9128H54.6336ZM16.2401 18.8922H30.0573V5.07477H16.2401V18.8922ZM14.8008 34.1537H0.983765V20.3364H14.8008V34.1537ZM16.2401 34.1537H30.0573V20.3364H16.2401V34.1537Z" fill="#7A7493"/>
</svg>
