<svg width="80" height="40" viewBox="0 0 80 40" fill="none" xmlns="http://www.w3.org/2000/svg">
<path fill-rule="evenodd" clip-rule="evenodd" d="M34.2945 14.7398C35.7526 14.4628 37.2106 14.1712 38.654 13.8941C38.6395 20.3532 38.6395 26.7977 38.654 33.2422C37.2106 32.9506 35.7526 32.6444 34.3091 32.3674C34.2654 31.7987 34.2945 31.2301 34.2945 30.6615C34.2799 25.3688 34.2799 20.0616 34.2945 14.7398ZM69.5643 17.5975C68.3395 17.6267 67.0856 18.0058 66.1379 18.7931C65.3506 19.4346 64.7819 20.3095 64.4612 21.2718C64.1112 22.307 64.0383 23.4296 64.1696 24.5232C64.3154 25.7771 64.8111 27.0164 65.6859 27.935C66.3712 28.664 67.3043 29.1743 68.2812 29.393C69.506 29.67 70.8328 29.6263 71.9846 29.0868C72.8303 28.7077 73.5301 28.037 74.0258 27.2497C74.5799 26.3603 74.8569 25.3251 74.9444 24.2753C75.0465 23.0943 74.9152 21.8841 74.4778 20.776C74.0987 19.7846 73.4135 18.8952 72.4949 18.3265C71.6201 17.7871 70.5849 17.5538 69.5643 17.5975ZM68.9227 13.5296C71.0369 13.3838 73.2531 13.7775 75.0756 14.9002C76.0962 15.5271 76.9711 16.3582 77.6563 17.3351C78.2541 18.2099 78.6915 19.1868 78.9977 20.2074C79.3185 21.3009 79.4351 22.4528 79.4497 23.59C79.4497 25.675 78.9686 27.8037 77.8167 29.568C76.8107 31.1426 75.2797 32.3674 73.5301 33.0089C72.3929 33.4317 71.1973 33.6359 69.9871 33.665C67.7126 33.7088 65.3651 33.1547 63.5134 31.8133C61.9388 30.6906 60.7869 29.0431 60.2037 27.2059C59.7955 25.9812 59.6351 24.669 59.6497 23.3713C59.6642 21.1114 60.3204 18.8077 61.7347 17.0289C62.8865 15.5563 64.5341 14.5065 66.3274 13.9816C67.1585 13.7192 68.0333 13.5734 68.9227 13.5296ZM6.417 14.3899C7.46678 13.7775 8.67695 13.4859 9.88711 13.5005C11.8117 13.5734 13.6634 14.5648 14.7861 16.1395C15.3547 15.3667 16.1421 14.769 16.9877 14.3461C18.8977 13.4276 21.216 13.2818 23.1843 14.0837C24.1029 14.4628 24.934 15.046 25.5755 15.8042C26.2316 16.5769 26.669 17.51 26.9315 18.4723C27.2085 19.4784 27.2814 20.5282 27.2522 21.5634C27.2522 25.4563 27.2522 29.3638 27.2522 33.2568C25.8088 32.9652 24.3508 32.659 22.8927 32.382C22.8782 28.6494 22.8927 24.9168 22.8782 21.1843C22.8927 20.324 22.5865 19.4492 21.9742 18.8514C21.3181 18.1807 20.3558 17.86 19.4226 17.8746C18.5915 17.86 17.7459 18.1078 17.0898 18.6327C16.3462 19.2159 15.9525 20.1782 15.9525 21.126C15.9525 25.1647 15.9525 29.218 15.9525 33.2568C14.4945 32.9652 13.0365 32.659 11.5784 32.382C11.5638 31.1864 11.5784 29.9762 11.5638 28.766C11.5638 26.2582 11.5638 23.7504 11.5638 21.228C11.593 20.3678 11.3014 19.4784 10.689 18.866C10.1496 18.312 9.40596 17.9912 8.66236 17.9037C7.94793 17.8308 7.21892 17.8891 6.54822 18.1662C5.84837 18.4578 5.25058 19.0118 4.92981 19.6971C4.7111 20.1637 4.60904 20.674 4.60904 21.1843C4.60904 24.3336 4.60904 27.483 4.60904 30.6323C4.62362 31.5071 4.59446 32.382 4.62362 33.2568C3.16559 32.9797 1.72214 32.659 0.278693 32.3965C0.249533 31.8862 0.293274 31.3613 0.249533 30.8656C0.264113 30.2824 0.264113 29.6992 0.249533 29.116C0.293274 28.5765 0.249533 28.0224 0.264113 27.483C0.264113 25.9375 0.264113 24.3919 0.264113 22.8464C0.249533 21.8841 0.278693 20.9073 0.249533 19.945C0.264113 19.4055 0.264113 18.8514 0.249533 18.312C0.278693 17.233 0.264113 16.1687 0.264113 15.0897C0.278693 14.9877 0.191212 14.8273 0.307854 14.769C1.7513 14.4919 3.18017 14.2149 4.62362 13.9379C4.60904 14.594 4.62362 15.2501 4.62362 15.9062C5.13393 15.2938 5.73173 14.769 6.417 14.3899ZM53.9779 13.7921C54.6778 13.6754 55.3922 13.5588 56.0921 13.4421C56.0921 14.9585 56.0921 16.4748 56.0921 17.9912C55.3922 18.1224 54.6924 18.2536 53.9925 18.3703C52.9427 18.5452 51.8492 18.8514 51.0619 19.6096C50.4203 20.2074 50.1142 21.0822 50.0558 21.9425C50.0121 22.5548 50.0413 23.1672 50.0413 23.7942C50.0413 26.9435 50.0413 30.0928 50.0413 33.2422C48.8311 32.9943 47.6209 32.7465 46.3962 32.5132C46.1629 32.4694 45.9442 32.4111 45.6963 32.382C45.638 32.0466 45.6817 31.7113 45.6672 31.3759C45.6672 28.0224 45.6672 24.6836 45.6672 21.3301C45.6963 20.2803 45.8713 19.2159 46.3087 18.2391C46.7315 17.2622 47.4751 16.4311 48.3499 15.8187C49.5164 15.0168 50.8723 14.5357 52.2429 14.1712C52.8261 14.0399 53.3801 13.8796 53.9779 13.7921ZM36.0442 5.43756C36.744 5.35008 37.5022 5.42298 38.1 5.84581C38.7853 6.2978 39.1643 7.11429 39.1789 7.91621C39.2227 8.1495 39.1643 8.39736 39.1643 8.63065C39.0914 9.35966 38.7124 10.0595 38.0854 10.4678C37.4293 10.9052 36.5836 10.9781 35.8109 10.8177C35.1693 10.6865 34.5716 10.2782 34.207 9.70959C33.7842 9.03889 33.7113 8.19324 33.8717 7.42048C34.0175 6.69147 34.5132 6.02077 35.1839 5.70001C35.461 5.56878 35.7526 5.4813 36.0442 5.43756Z" fill="#7A7493"/>
</svg>
