<svg width="93" height="40" viewBox="0 0 93 40" fill="none" xmlns="http://www.w3.org/2000/svg">
<path d="M13.2842 30.7226C11.8961 30.9663 10.4837 31.0394 9.0225 31.234L4.56579 18.1809V31.7942C3.17772 31.9403 1.91139 32.1351 0.596313 32.33V7.39246H4.29807L9.36339 21.5418V7.39246H13.2842V30.7226ZM20.9555 16.5248C22.4654 16.5248 24.779 16.4518 26.167 16.4518V20.3482C24.4379 20.3482 22.4167 20.3482 20.9555 20.4212V26.2174C23.2447 26.0713 25.5339 25.8763 27.8473 25.8032V29.5534L17.0589 30.4059V7.39246H27.8473V11.2889H20.9555V16.5248ZM42.3374 11.289H38.2948V29.2128C36.9797 29.2128 35.6646 29.2128 34.3985 29.2614V11.289H30.3559V7.39246H42.3375L42.3374 11.289ZM48.6691 16.257H54.0025V20.1534H48.6691V28.9937H44.8454V7.39246H55.7315V11.2889H48.6691V16.257ZM62.0633 25.5842C64.2795 25.6327 66.5198 25.8035 68.6873 25.925V29.7729C65.2049 29.5535 61.7224 29.3347 58.1669 29.2614V7.39246H62.0633V25.5842ZM71.975 30.0408C73.217 30.1139 74.532 30.187 75.7984 30.3329V7.39246H71.975V30.0408ZM92.87 7.39246L87.9262 19.2524L92.87 32.33C91.4087 32.1351 89.9475 31.8672 88.4863 31.6237L85.6858 24.4153L82.8368 31.0394C81.424 30.7956 80.0603 30.7226 78.648 30.5277L83.6647 19.1062L79.1349 7.39246H83.3234L85.8805 13.9434L88.6082 7.39246H92.87V7.39246Z" fill="#7A7493"/>
</svg>
