<svg width="85" height="40" viewBox="0 0 85 40" fill="none" xmlns="http://www.w3.org/2000/svg">
<path fill-rule="evenodd" clip-rule="evenodd" d="M78.1732 26.2503L80.86 9.15671C80.9012 8.89157 81.1309 8.6963 81.398 8.69534H84.4227C84.7568 8.69534 85.0133 8.99495 84.9606 9.32614L82.3111 26.1115C82.2422 26.5547 81.8612 26.8802 81.4123 26.8802H78.7111C78.3771 26.8802 78.1205 26.5815 78.1732 26.2503ZM57.5973 8.69636H51.05C50.603 8.69636 50.2221 9.0218 50.1522 9.46403L47.5046 26.2504C47.4519 26.5816 47.7085 26.8802 48.0425 26.8802H51.4023C51.7143 26.8802 51.9814 26.6524 52.0302 26.3423L52.7816 21.5841C52.8505 21.1409 53.2325 20.8154 53.6795 20.8154H55.7508C60.064 20.8154 62.5517 18.7287 63.2026 14.5936C63.4965 12.7845 63.2141 11.3631 62.367 10.3676C61.4375 9.2745 59.7883 8.69636 57.5973 8.69636ZM58.3525 14.8272C57.9955 17.1762 56.2007 17.1762 54.4644 17.1762H53.4775L54.1715 12.7893C54.2126 12.5242 54.4404 12.3289 54.7094 12.3289H55.1622C56.3433 12.3289 57.4594 12.3289 58.0357 13.0028C58.3793 13.4048 58.4836 14.0021 58.3525 14.8272ZM77.1643 14.7516H74.0314C73.7625 14.7516 73.5337 14.9468 73.4935 15.212L73.3547 16.0888L73.1346 15.771C72.4559 14.786 70.9435 14.4568 69.4331 14.4568C65.969 14.4568 63.0112 17.0804 62.435 20.7609C62.1364 22.5968 62.5604 24.3523 63.6018 25.5765C64.559 26.7022 65.924 27.1712 67.5503 27.1712C70.3415 27.1712 71.8892 25.3765 71.8892 25.3765L71.7495 26.2475C71.6968 26.5806 71.9534 26.8793 72.2894 26.8793H75.1121C75.5591 26.8793 75.9401 26.5538 76.01 26.1106L77.7052 15.3814C77.7569 15.0512 77.5003 14.7516 77.1643 14.7516ZM72.7948 20.8528C72.4942 22.6437 71.0708 23.8459 69.2579 23.8459C68.3495 23.8459 67.6201 23.554 67.153 23.0007C66.6898 22.4513 66.5155 21.6692 66.661 20.7982C66.9453 19.0226 68.3888 17.7811 70.1739 17.7811C71.0641 17.7811 71.7878 18.0769 72.2645 18.6349C72.744 19.1987 72.9335 19.9855 72.7948 20.8528ZM10.904 8.69636H4.35773C3.90976 8.69636 3.5288 9.0218 3.45892 9.46403L0.811316 26.2504C0.75867 26.5816 1.0152 26.8802 1.35117 26.8802H4.47642C4.92439 26.8802 5.30536 26.5548 5.37523 26.1116L6.0893 21.5841C6.15822 21.1409 6.54014 20.8154 6.98715 20.8154H9.05948C13.3716 20.8154 15.8604 18.7287 16.5103 14.5936C16.8032 12.7845 16.5227 11.3631 15.6756 10.3676C14.7452 9.2745 13.095 8.69636 10.904 8.69636ZM11.6592 14.8272C11.3012 17.1762 9.50649 17.1762 7.77109 17.1762H6.78326L7.47628 12.7893C7.51744 12.5242 7.74716 12.3289 8.01518 12.3289H8.46793C9.65007 12.3289 10.7652 12.3289 11.3414 13.0028C11.6851 13.4048 11.7904 14.0021 11.6592 14.8272ZM30.4721 14.7516H27.3373C27.0702 14.7516 26.8396 14.9468 26.7984 15.212L26.6596 16.0888L26.4404 15.771C25.7618 14.786 24.2484 14.4568 22.738 14.4568C19.2739 14.4568 16.3152 17.0804 15.739 20.7609C15.4394 22.5968 15.8653 24.3523 16.9067 25.5765C17.862 26.7022 19.2289 27.1712 20.8552 27.1712C23.6464 27.1712 25.1941 25.3765 25.1941 25.3765L25.0544 26.2475C25.0017 26.5806 25.2583 26.8793 25.5923 26.8793H28.4161C28.865 26.8793 29.244 26.5538 29.3149 26.1106L31.0091 15.3814C31.0627 15.0512 30.8071 14.7516 30.4721 14.7516ZM26.1025 20.8528C25.8001 22.6437 24.3786 23.8459 22.5657 23.8459C21.6554 23.8459 20.9279 23.554 20.4608 23.0007C19.9975 22.4513 19.8214 21.6692 19.9688 20.7982C20.2512 19.0226 21.6965 17.7811 23.4817 17.7811C24.3719 17.7811 25.0956 18.0769 25.5722 18.6349C26.0499 19.1987 26.2394 19.9855 26.1025 20.8528ZM44.0174 14.7515H47.1675C47.6088 14.7515 47.8663 15.2464 47.6155 15.6082L37.138 30.7319C36.9686 30.977 36.6891 31.1225 36.3904 31.1225H33.2441C32.801 31.1225 32.5425 30.6238 32.799 30.261L36.0612 25.6559L32.5913 15.4733C32.4717 15.1191 32.733 14.7515 33.1092 14.7515H36.2047C36.6068 14.7515 36.9619 15.0157 37.0777 15.4005L38.9193 21.5505L43.2641 15.1507C43.4344 14.9009 43.7168 14.7515 44.0174 14.7515Z" fill="#7A7493"/>
</svg>
