<svg width="107" height="40" viewBox="0 0 107 40" fill="none" xmlns="http://www.w3.org/2000/svg">
<path fill-rule="evenodd" clip-rule="evenodd" d="M23.263 9.72716C23.2906 9.72716 23.3196 9.73294 23.3477 9.74412C23.4282 9.77547 23.5052 9.84976 23.5363 9.95849C23.5573 10.1056 26.7304 31.6028 26.7304 31.6028L18.9342 33.5361V33.5359L18.9342 33.5359L0.946289 30.4259C0.946289 30.4259 3.08971 13.8459 3.13173 13.2575C3.2368 12.48 3.25782 12.459 4.07736 12.2068C4.11146 12.2068 4.86485 11.9716 6.01208 11.6136L6.01225 11.6135L6.87221 11.3452C7.06133 10.1054 7.67074 8.50836 8.46926 7.22651C9.62503 5.41931 11.033 4.38963 12.4409 4.3476C13.1764 4.32659 13.7858 4.57876 14.2691 5.08309C14.2962 5.09666 14.3146 5.11899 14.3355 5.14443C14.347 5.15838 14.3593 5.17327 14.3742 5.18816C14.4582 5.16715 14.5213 5.16715 14.6053 5.16715C15.698 5.16715 16.6227 5.79756 17.2321 6.97434C17.4212 7.35259 17.5683 7.70983 17.6523 8.00402C18.1987 7.83591 18.5349 7.73084 18.5349 7.73084C18.6217 7.70192 18.8079 7.673 18.9704 7.71254C19.0369 7.7218 19.1015 7.75574 19.1536 7.80377C19.1576 7.80737 19.1615 7.81108 19.1653 7.8149C19.3334 8.00402 21.0776 9.68513 21.0776 9.68513C21.0776 9.68513 23.158 9.72716 23.263 9.72716ZM15.3618 8.73951C15.8662 8.5714 16.3285 8.4243 16.7487 8.29822C16.5386 7.56273 16.0133 6.34392 14.9415 6.17581C15.2568 7.01637 15.3618 8.02504 15.3618 8.73951ZM11.4112 9.9373C12.4409 9.62209 13.4706 9.30688 14.4162 9.01269C14.4372 8.23517 14.3532 7.07941 13.9329 6.25987C13.5336 6.42798 13.1764 6.72217 12.9242 6.99535C12.2518 7.73084 11.7054 8.82356 11.4112 9.9373ZM13.3235 5.52438C13.0923 5.35627 12.8191 5.29323 12.4829 5.29323C10.3185 5.35627 8.40622 8.76052 7.90189 11.051C8.08103 10.9963 8.26489 10.9404 8.45263 10.8833L8.45389 10.8829C9.05856 10.699 9.70343 10.5029 10.3605 10.2945C10.6337 8.84458 11.3272 7.35259 12.2308 6.38595C12.567 6.0077 12.9452 5.71351 13.3235 5.52438ZM13.702 17.1239L14.6056 13.7407C14.6056 13.7407 13.8281 13.3414 12.2941 13.4465C8.34347 13.6986 6.55729 16.4515 6.7254 19.1833C6.84353 21.0142 7.91784 21.7761 8.8584 22.4431C9.59105 22.9627 10.2426 23.4247 10.2978 24.2896C10.3398 24.7519 10.0246 25.4454 9.20504 25.4874C7.94421 25.5715 6.34715 24.3737 6.34715 24.3737L5.73775 26.9584C5.73775 26.9584 7.31379 28.6395 10.1717 28.4924C12.5673 28.3453 14.2063 26.4331 14.0382 23.6382C13.8983 21.4882 12.3874 20.5166 11.1935 19.7488C10.4153 19.2484 9.77185 18.8346 9.73039 18.2376C9.73039 17.9645 9.73039 16.8507 11.4956 16.7456C12.6933 16.6616 13.702 17.1239 13.702 17.1239ZM93.7225 15.9056H91.2429L91.3689 15.3172C91.5791 14.0984 92.2935 13.0267 93.4913 13.0267C94.1218 13.0267 94.6261 13.2158 94.6261 13.2158L95.3196 10.421C95.3196 10.421 94.7102 10.1058 93.3863 10.1058C92.1254 10.1058 90.8646 10.463 89.898 11.2826C88.6792 12.3122 88.1118 13.8042 87.8386 15.3172L87.7335 15.9056H86.0734L85.5481 18.5954H87.2082L85.3169 28.556H88.8683L90.7595 18.5954H93.2182L93.7225 15.9056ZM46.2525 17.5237C47.1982 16.3889 48.438 15.6324 50.014 15.6324C51.8843 15.6324 52.935 16.8512 52.9139 18.8686C52.9139 19.499 52.8089 20.4236 52.6618 21.2011L51.2749 28.556H47.7235L49.0684 21.4323C49.1735 20.9489 49.2155 20.3395 49.2155 19.8562C49.2155 19.0787 48.9003 18.5323 48.1018 18.5323C46.967 18.5323 45.7482 19.9823 45.2859 22.3359L44.1091 28.556H40.5578L44.0251 10.3579H47.5764L46.2105 17.5027L46.2525 17.5237ZM35.9136 19.4778C35.9136 20.0452 36.3759 20.4654 37.2795 20.9488C38.6665 21.7473 39.8222 22.84 39.8432 24.374C39.8432 27.2109 37.5317 28.7869 34.3376 28.7869C32.1311 28.7869 30.8283 27.9044 30.8283 27.9044L31.7108 25.3827C31.7108 25.3827 33.1398 26.1602 34.6318 26.1602C35.6404 26.1602 36.1868 25.6138 36.1868 24.9414C36.1868 24.29 35.8086 23.8487 34.7158 23.2393C33.3709 22.4618 32.3623 21.39 32.3623 19.9611C32.3623 17.4604 34.5267 15.6743 37.6368 15.6743C39.8642 15.6743 40.6207 16.2627 40.6207 16.2627L39.8012 18.7843C39.8012 18.7843 38.7505 18.301 37.5737 18.301C36.5651 18.301 35.9136 18.7633 35.9136 19.4778ZM60.983 15.6321C56.6961 15.6321 53.8593 19.4987 53.8593 23.8065C53.8593 26.5593 55.5614 28.7868 58.7555 28.7868C62.9583 28.7868 65.7952 25.0253 65.7952 20.6124C65.8162 18.0697 64.3242 15.6321 60.983 15.6321ZM59.2388 26.076C58.02 26.076 57.5157 25.0463 57.5157 23.7435C57.5157 21.7051 58.5664 18.3849 60.4997 18.3849C61.7605 18.3849 62.1808 19.4777 62.1808 20.5283C62.1808 22.7138 61.1091 26.076 59.2388 26.076ZM71.1542 17.7545C71.1542 17.7545 72.5201 15.6321 74.9157 15.6321C77.5214 15.6321 78.5931 17.7755 78.5931 20.1711C78.5931 24.5 75.8613 28.7868 71.6795 28.7868C70.3346 28.7868 69.5992 28.3245 69.5992 28.3245H69.5151L68.5274 33.599H64.9761L67.4557 20.5704C67.7289 19.0994 68.0231 17.1241 68.1702 15.8422H71.3223L71.1121 17.7545H71.1542ZM70.0404 25.5927C70.0404 25.5927 70.5868 26.118 71.5114 26.118C73.5077 26.118 74.8736 22.8399 74.8736 20.5283C74.8736 19.5827 74.5374 18.5741 73.4447 18.5741C72.2049 18.5741 71.0491 20.045 70.6288 22.2725L70.0404 25.5927ZM83.6778 10.526C82.5431 10.526 81.6395 11.4296 81.6395 12.5853C81.6395 13.636 82.3119 14.3715 83.3206 14.3715H83.3626C84.4764 14.3715 85.422 13.615 85.443 12.3122C85.443 11.2825 84.7495 10.526 83.6778 10.526ZM82.2491 28.5348H78.6978L81.0934 15.9264H84.6657L82.2491 28.5348ZM99.0809 24.6052C100.069 21.5371 102.296 15.9264 102.296 15.9264H106.015L101.666 25.2776C100.132 28.4717 98.6185 30.8253 97.0005 32.3383C95.7396 33.5151 94.2266 34.1245 93.5122 34.2716L92.5245 31.2456C93.1129 31.0354 93.8694 30.7202 94.5418 30.2369C95.3614 29.6695 96.0548 28.892 96.4751 28.0935C96.5802 27.9254 96.6012 27.7572 96.5592 27.5051L94.4158 15.9264H98.1562C98.1562 15.9264 98.9758 23.6175 99.0388 24.6052H99.0809Z" fill="#7A7493"/>
</svg>
