<svg width="101" height="40" viewBox="0 0 101 40" fill="none" xmlns="http://www.w3.org/2000/svg">
<path fill-rule="evenodd" clip-rule="evenodd" d="M9.56557 7.31483C8.19104 7.31483 7.07691 8.43146 7.07691 9.80849C7.07658 10.1356 7.14069 10.4596 7.26558 10.762C7.39047 11.0644 7.57369 11.3392 7.80478 11.5707C8.03588 11.8023 8.31032 11.9861 8.61243 12.1116C8.91455 12.2371 9.23843 12.3018 9.56557 12.3022H12.0546V9.80849C12.0552 9.14776 11.7933 8.51386 11.3265 8.04622C10.8597 7.57858 10.2263 7.3155 9.56557 7.31483ZM9.56557 13.9646H2.92872C1.55419 13.9646 0.440065 15.0812 0.440065 16.4587C0.440065 17.8357 1.55419 18.9523 2.92872 18.9523H9.56599C10.9401 18.9523 12.0546 17.8357 12.0546 16.4587C12.0546 15.0812 10.9401 13.9646 9.56557 13.9646ZM31.9655 27.0343L33.1859 24.1819C34.5221 25.1715 36.2649 25.6952 38.0082 25.6952C39.2865 25.6952 40.0998 25.2007 40.0998 24.444C40.0885 23.6336 38.9348 23.3803 37.5206 23.0698C35.2774 22.5772 32.3787 21.9408 32.343 18.7092C32.3138 16.0314 34.6962 13.9648 38.0665 13.9648C40.0706 13.9648 42.0755 14.4598 43.4988 15.5952L42.3584 18.5084C41.0489 17.6663 39.4315 17.0793 37.8919 17.0793C36.8461 17.0793 36.1487 17.5738 36.1487 18.2147C36.16 19.0218 37.3458 19.3405 38.7921 19.7292C41.0489 20.3358 43.9399 21.1128 43.993 24.1819C43.993 26.9181 41.6685 28.8393 38.3565 28.8393C35.9166 28.8393 33.6796 28.2572 31.9651 27.0343H31.9655ZM80.5587 23.1491C80.2507 23.6964 79.8026 24.1519 79.2604 24.469C78.7182 24.786 78.1015 24.9531 77.4734 24.9532C75.516 24.9532 73.9294 23.3632 73.9294 21.402C73.9294 19.4409 75.516 17.8509 77.4734 17.8509C78.1015 17.851 78.7182 18.0181 79.2604 18.3351C79.8026 18.6521 80.2507 19.1077 80.5587 19.655L83.9515 17.7718C82.6807 15.5006 80.2566 13.9648 77.4734 13.9648C73.374 13.9648 70.0508 17.2943 70.0508 21.402C70.0508 25.5094 73.374 28.8393 77.4734 28.8393C80.2566 28.8393 82.6807 27.3035 83.9515 25.0323L80.5587 23.1491ZM46.1945 28.548H50.4361V7.77379H46.195L46.1945 28.548ZM86.0935 7.77379V28.548H90.335V22.3241L95.3611 28.548H100.783L94.3911 21.1541L100.318 14.2548H95.1286L90.335 19.9908V7.77379H86.0935ZM63.5035 14.2556V15.9443C62.8064 14.7798 61.0923 13.9648 59.2912 13.9648C55.5725 13.9648 52.6385 17.2543 52.6385 21.3875C52.6385 25.5206 55.5725 28.8393 59.2912 28.8393C61.0923 28.8393 62.8064 28.0243 63.5035 26.8598V28.548H67.745V14.2556H63.5035ZM63.5035 23.1778C62.8935 24.1965 61.6152 24.9527 60.192 24.9527C58.2341 24.9527 56.6475 23.3632 56.6475 21.402C56.6475 19.4409 58.2341 17.8509 60.192 17.8509C61.6152 17.8509 62.8935 18.6367 63.5035 19.6842V23.1778ZM22.8396 13.9646C24.2141 13.9646 25.3287 15.0812 25.3287 16.4587C25.3292 17.1194 25.0673 17.7533 24.6005 18.2209C24.1337 18.6886 23.5003 18.9517 22.8396 18.9523H20.3509V16.4587C20.3509 15.0812 21.4651 13.9646 22.8396 13.9646ZM18.6918 9.80849V16.4587V16.4591C18.6924 17.1198 18.4305 17.7537 17.9637 18.2214C17.4969 18.689 16.8635 18.9521 16.2028 18.9527C14.8282 18.9527 13.7141 17.8361 13.7141 16.4583V9.80849C13.7141 8.43146 14.8282 7.31483 16.2028 7.31483C16.8635 7.3155 17.4969 7.57858 17.9637 8.04622C18.4305 8.51386 18.6924 9.14776 18.6918 9.80849ZM16.2028 32.2523C16.8635 32.2517 17.4969 31.9886 17.9637 31.5209C18.4305 31.0533 18.6924 30.4194 18.6918 29.7587C18.6924 29.0979 18.4305 28.464 17.9637 27.9964C17.4969 27.5288 16.8635 27.2657 16.2028 27.265H13.7141V29.7587C13.7141 31.1357 14.8282 32.2523 16.2028 32.2523ZM16.2028 25.6026H22.84C24.2141 25.6026 25.3287 24.4859 25.3287 23.1085C25.3292 22.4478 25.0673 21.8139 24.6005 21.3462C24.1337 20.8786 23.5003 20.6155 22.8396 20.6148H16.2028C14.8282 20.6148 13.7141 21.7315 13.7141 23.1085C13.7138 23.4356 13.7779 23.7596 13.9028 24.062C14.0277 24.3644 14.2109 24.6392 14.442 24.8707C14.6731 25.1023 14.9475 25.2861 15.2496 25.4116C15.5517 25.5371 15.8756 25.6018 16.2028 25.6022V25.6026ZM0.628737 24.062C0.503848 23.7596 0.439738 23.4356 0.440065 23.1085C0.440065 21.7315 1.55419 20.6148 2.92873 20.6148H5.4178V23.1085C5.41836 23.7692 5.15644 24.4031 4.68966 24.8708C4.22288 25.3384 3.58946 25.6015 2.92873 25.6022C2.60158 25.6018 2.27771 25.5371 1.97559 25.4116C1.67347 25.2861 1.39904 25.1023 1.16794 24.8707C0.936848 24.6392 0.753626 24.3644 0.628737 24.062ZM7.07691 29.7583V23.1085C7.07691 21.7315 8.19104 20.6148 9.56557 20.6148C9.89275 20.6151 10.2167 20.6798 10.5188 20.8053C10.821 20.9308 11.0955 21.1145 11.3266 21.3461C11.5578 21.5777 11.741 21.8525 11.8659 22.1549C11.9909 22.4573 12.055 22.7813 12.0546 23.1085V29.7587C12.0552 30.4194 11.7933 31.0533 11.3265 31.5209C10.8597 31.9886 10.2263 32.2517 9.56557 32.2523C8.19104 32.2523 7.07691 31.1357 7.07691 29.7583Z" fill="#7A7493"/>
</svg>
