<svg width="150" height="40" viewBox="0 0 150 40" fill="none" xmlns="http://www.w3.org/2000/svg">
<path fill-rule="evenodd" clip-rule="evenodd" d="M101.553 27.9584H106.303C122.923 12.6478 147.37 11.1234 149.803 11.0083C149.869 11.0055 149.934 11.0027 150 11C150 11 149.933 11.0021 149.803 11.0083C118.682 12.3398 104.351 24.5146 101.146 27.3765L101.553 27.9584ZM22.3009 17.2763H34.9668C37.3189 17.2763 38.4046 17.8582 38.4045 19.313V21.6823C38.4045 23.1786 37.3188 23.7604 34.9666 23.7604H25.6482L25.3316 24.0513V27.9584H21.8484V17.6088L22.3009 17.2763ZM33.3383 21.9314C34.4691 21.9314 34.9668 21.8067 34.9668 21.1002L34.9666 19.9779C34.9666 19.2714 34.4238 19.1467 33.3381 19.1467H25.6482L25.3316 19.4376V21.6405L25.6935 21.9314H33.3383ZM47.8587 23.3031L44.828 19.2298L46.6827 17.1516L55.5035 27.9584H51.4775L49.9395 26.0048L49.2157 25.6308H39.2641L40.983 23.6772H47.6778L47.8587 23.3031ZM84.7706 22.9707V25.8801L85.1777 26.1295H96.9389V27.9584H81.197V20.8508H91.8726V22.6797H85.1325L84.7706 22.9707ZM97.0745 17.2763H81.197V19.2714H97.0745V17.2763ZM76.3116 19.1882H63.5101L63.1482 19.4376V25.6723L63.5101 26.0048H76.2212C76.1307 27.5427 75.1355 28 72.5571 28H63.3744C60.4794 28 59.5747 27.4596 59.5747 25.4645V19.8117C59.5747 17.7751 60.4794 17.2763 63.3744 17.2763H72.5571C75.0902 17.2763 76.1307 17.6919 76.3116 19.1882ZM3.98066 21.4327H13.2538C16.1489 21.4327 17.0988 21.9731 17.0989 23.9682V25.423C17.0989 27.4596 16.1489 27.9584 13.2539 27.9584H3.75445C1.26658 27.9584 0.226148 27.5843 0 26.1711C0 26.1295 0.316584 25.9633 0.316584 25.9633H13.7062L13.9323 25.6723V23.7604L13.661 23.5111H4.38774C1.49273 23.5111 0.588011 22.9707 0.588011 20.9755V19.7701C0.588011 17.7335 1.49273 17.2348 4.38774 17.2348H13.1181C15.1537 17.2348 16.2846 17.7335 16.6917 18.7311L16.5108 19.1052H3.98066L3.70924 19.313V21.1418L3.98066 21.4327ZM101.824 17.2347H107.071L110.916 19.8948C109.65 20.4768 108.429 21.0586 107.343 21.6406L101.553 17.7335L101.824 17.2347ZM116.888 27.9584L111.776 24.5501C112.506 23.9752 113.289 23.4248 114.064 22.8802C114.298 22.716 114.531 22.5523 114.761 22.3887L122.361 27.5011L122.135 27.9584H116.888Z" fill="#7A7493"/>
</svg>
