<svg width="117" height="40" viewBox="0 0 117 40" fill="none" xmlns="http://www.w3.org/2000/svg">
<path d="M17.4754 2.63947C7.83458 2.63947 0.0187988 10.455 0.0187988 20.0958C0.0187988 29.737 7.83458 37.552 17.4754 37.552C27.1172 37.552 34.9321 29.737 34.9321 20.0958C34.9321 10.4557 27.1172 2.6403 17.4752 2.6403L17.4754 2.63947ZM25.4808 27.8165C25.1682 28.3293 24.4969 28.4919 23.9841 28.1772C19.8855 25.6736 14.7259 25.1066 8.64942 26.4949C8.06388 26.6283 7.48021 26.2615 7.34679 25.6757C7.21276 25.09 7.57818 24.5063 8.16518 24.3729C14.8149 22.8537 20.5188 23.5078 25.1202 26.3198C25.633 26.6346 25.7956 27.3037 25.4808 27.8165ZM27.6175 23.0634C27.2235 23.7037 26.3855 23.9059 25.7456 23.512C21.0533 20.6278 13.9006 19.7925 8.3505 21.4772C7.63071 21.6947 6.87048 21.289 6.65202 20.5705C6.43522 19.8507 6.84108 19.0919 7.55963 18.873C13.8993 16.9494 21.7808 17.8812 27.1693 21.1925C27.8093 21.5865 28.0115 22.4245 27.6175 23.0636V23.0634ZM27.8009 18.1138C22.1748 14.7721 12.8923 14.4649 7.52065 16.0952C6.65806 16.3568 5.74587 15.8698 5.48446 15.0072C5.22306 14.1442 5.7096 13.2327 6.5728 12.9704C12.7391 11.0985 22.9898 11.4602 29.4673 15.3055C30.2448 15.766 30.4992 16.7681 30.0385 17.5429C29.5799 18.3187 28.5751 18.5745 27.8018 18.1138H27.8009ZM47.5124 18.7542C44.4981 18.0355 43.9624 17.531 43.9624 16.471C43.9624 15.4696 44.9046 14.7957 46.3075 14.7957C47.6666 14.7957 49.0132 15.3074 50.4265 16.3609C50.4682 16.3928 50.5224 16.4056 50.5745 16.3972C50.6287 16.3893 50.6746 16.3603 50.7059 16.3168L52.1776 14.2422C52.238 14.1568 52.2213 14.039 52.14 13.9737C50.4578 12.6244 48.565 11.9684 46.3513 11.9684C43.0973 11.9684 40.8231 13.9214 40.8231 16.7157C40.8231 19.7123 42.7846 20.7733 46.1741 21.5923C49.057 22.2567 49.5448 22.8132 49.5448 23.808C49.5448 24.9107 48.5609 25.5965 46.9766 25.5965C45.2173 25.5965 43.781 25.0024 42.1759 23.6141C42.1363 23.5787 42.0821 23.5641 42.0321 23.5662C41.9779 23.5703 41.93 23.5953 41.8966 23.635L40.2456 25.5986C40.1768 25.682 40.1852 25.8029 40.2644 25.8737C42.1322 27.5414 44.4293 28.4211 46.9099 28.4211C50.4161 28.4211 52.682 26.5054 52.682 23.5391C52.6883 21.0362 51.1895 19.6499 47.5186 18.7569L47.5124 18.7542ZM60.6158 15.7817C59.0961 15.7817 57.8496 16.3803 56.8198 17.6071V16.2263C56.8198 16.1173 56.7323 16.0285 56.6239 16.0285H53.9244C53.816 16.0285 53.7285 16.1173 53.7285 16.2263V31.5687C53.7285 31.6771 53.816 31.7667 53.9244 31.7667H56.6239C56.7323 31.7667 56.8198 31.6771 56.8198 31.5687V26.7263C57.8496 27.8791 59.0961 28.444 60.6158 28.444C63.4403 28.444 66.3003 26.2698 66.3003 22.1134C66.3045 17.9562 63.4445 15.7814 60.6179 15.7814L60.6158 15.7817ZM63.161 22.1134C63.161 24.229 61.8582 25.707 59.9904 25.707C58.1456 25.707 56.7531 24.1623 56.7531 22.1134C56.7531 20.0643 58.1456 18.5201 59.9904 18.5201C61.8269 18.5199 63.161 20.0308 63.161 22.1132V22.1134ZM73.6275 15.7817C69.99 15.7817 67.1404 18.5824 67.1404 22.1587C67.1404 25.6966 69.9712 28.4669 73.5837 28.4669C77.2337 28.4669 80.0916 25.6757 80.0916 22.1134C80.0916 18.5633 77.2525 15.7821 73.6275 15.7821V15.7817ZM73.6275 25.7278C71.693 25.7278 70.2338 24.1728 70.2338 22.1124C70.2338 20.0427 71.643 18.5408 73.5837 18.5408C75.5307 18.5408 76.9982 20.0952 76.9982 22.1576C76.9982 24.227 75.5807 25.7278 73.6275 25.7278ZM87.8586 16.0285H84.8882V12.9921C84.8882 12.8833 84.8006 12.7945 84.6922 12.7945H81.9927C81.8843 12.7945 81.7947 12.8833 81.7947 12.9921V16.0285H80.4981C80.3897 16.0285 80.3022 16.1173 80.3022 16.2263V18.5458C80.3022 18.6546 80.3897 18.7436 80.4981 18.7436H81.7947V24.746C81.7947 27.1703 83.0017 28.4002 85.3843 28.4002C86.3515 28.4002 87.1541 28.2001 87.9108 27.7707C87.9733 27.7373 88.0108 27.6706 88.0108 27.5997V25.3901C88.0108 25.3234 87.9754 25.2588 87.917 25.2234C87.8586 25.1858 87.7857 25.1838 87.7252 25.215C87.2062 25.4756 86.7038 25.5965 86.141 25.5965C85.2759 25.5965 84.8882 25.2025 84.8882 24.3228V18.7446H87.8586C87.967 18.7446 88.0546 18.6558 88.0546 18.5468V16.2275C88.0588 16.1185 87.9712 16.0297 87.8607 16.0297L87.8586 16.0285ZM98.2063 16.0403V15.6674C98.2063 14.5703 98.6274 14.0811 99.5696 14.0811C100.132 14.0811 100.585 14.1928 101.091 14.3617C101.154 14.3813 101.218 14.3715 101.268 14.3342C101.321 14.2968 101.35 14.237 101.35 14.1736V11.8994C101.35 11.8125 101.296 11.7356 101.21 11.7099C100.676 11.5509 99.9928 11.3877 98.9672 11.3877C96.4761 11.3877 95.1566 12.7914 95.1566 15.4456V16.0168H93.86C93.7516 16.0168 93.662 16.1056 93.662 16.2144V18.5458C93.662 18.6546 93.7516 18.7436 93.86 18.7436H95.1566V28C95.1566 28.1105 95.2463 28.198 95.3547 28.198H98.052C98.1625 28.198 98.2501 28.1105 98.2501 28V18.7442H100.77L104.631 28C104.193 28.9714 103.762 29.1652 103.174 29.1652C102.698 29.1652 102.196 29.0235 101.685 28.7421C101.637 28.7171 101.579 28.7129 101.529 28.7275C101.477 28.7462 101.433 28.7838 101.412 28.8338L100.497 30.8412C100.453 30.9371 100.491 31.0476 100.583 31.0976C101.537 31.6146 102.398 31.8355 103.464 31.8355C105.456 31.8355 106.559 30.9058 107.528 28.4085L112.21 16.3105C112.235 16.2496 112.227 16.1808 112.189 16.1269C112.154 16.0733 112.094 16.041 112.029 16.041H109.219C109.133 16.041 109.058 16.0945 109.031 16.1735L106.153 24.3937L103.001 16.1681C102.972 16.0916 102.899 16.041 102.817 16.041H98.2063V16.0403ZM92.207 16.0285H89.5075C89.3991 16.0285 89.3095 16.1173 89.3095 16.2263V28C89.3095 28.1105 89.3991 28.198 89.5075 28.198H92.207C92.3154 28.198 92.405 28.1105 92.405 28V16.2271C92.405 16.1181 92.3175 16.0293 92.207 16.0293V16.0285ZM90.8729 10.6672C89.8035 10.6672 88.9363 11.5327 88.9363 12.6019C88.9363 13.6717 89.8035 14.5382 90.8729 14.5382C91.9423 14.5382 92.8073 13.6717 92.8073 12.6019C92.8073 11.5329 91.9402 10.6672 90.8729 10.6672ZM114.516 19.8142C113.448 19.8142 112.617 18.9564 112.617 17.9148C112.617 16.8731 113.459 16.0055 114.526 16.0055C115.593 16.0055 116.425 16.8631 116.425 17.9039C116.425 18.9456 115.583 19.8142 114.516 19.8142ZM114.526 16.1944C113.553 16.1944 112.817 16.9678 112.817 17.9148C112.817 18.8614 113.549 19.6243 114.516 19.6243C115.489 19.6243 116.225 18.8516 116.225 17.9039C116.225 16.9573 115.493 16.1944 114.526 16.1944ZM114.947 18.0992L115.485 18.8513H115.031L114.547 18.1614H114.132V18.8513H113.753V16.8577H114.641C115.106 16.8577 115.41 17.0947 115.41 17.4937C115.412 17.8205 115.222 18.0202 114.949 18.0992H114.947ZM114.626 17.1998H114.132V17.8303H114.626C114.872 17.8303 115.02 17.7096 115.02 17.5147C115.02 17.3096 114.872 17.1998 114.626 17.1998Z" fill="#7A7493"/>
</svg>
