<svg width="110" height="40" viewBox="0 0 110 40" fill="none" xmlns="http://www.w3.org/2000/svg">
<path d="M23.3138 5.89868H5.07034C2.54128 5.89868 0.491577 7.94838 0.491577 10.4774V28.7209C0.491577 31.2499 2.54128 33.2996 5.07034 33.2996H23.3138C25.8428 33.2996 27.8925 31.2499 27.8925 28.7209V10.4774C27.8925 7.94838 25.8428 5.89868 23.3138 5.89868ZM22.9115 26.8723C22.9115 27.6712 22.2641 28.3186 21.4652 28.3186H6.91892C6.11998 28.3186 5.47257 27.6712 5.47257 26.8723V12.326C5.47257 11.5271 6.11998 10.8797 6.91892 10.8797H21.4652C22.2641 10.8797 22.9115 11.5271 22.9115 12.326V26.8723ZM11.2856 23.3184C10.8255 23.3184 10.4563 22.9464 10.4563 22.4864V16.6789C10.4563 16.2188 10.8255 15.8441 11.2856 15.8441H17.1013C17.5586 15.8441 17.9305 16.216 17.9305 16.6789V22.4836C17.9305 22.9437 17.5586 23.3156 17.1013 23.3156H11.2856V23.3184ZM35.1574 22.9216H38.1493C38.298 24.616 39.4469 25.9383 41.7638 25.9383C43.8328 25.9383 45.1056 24.9162 45.1056 23.3707C45.1056 21.9243 44.1083 21.2769 42.312 20.8527L39.9924 20.354C37.4743 19.8058 35.5789 18.1859 35.5789 15.5411C35.5789 12.6236 38.1713 10.629 41.5379 10.629C45.1028 10.629 47.3977 12.4996 47.5961 15.2656H44.7034C44.359 13.9707 43.2845 13.1994 41.5406 13.1994C39.6948 13.1994 38.4248 14.1967 38.4248 15.4695C38.4248 16.7422 39.5213 17.5136 41.4167 17.9379L43.7116 18.4366C46.2296 18.9848 47.9487 20.5055 47.9487 23.1723C47.9487 26.5637 45.4059 28.5831 41.7666 28.5831C37.6754 28.5804 35.4081 26.3626 35.1574 22.9216ZM58.6518 33.2996V28.3379L58.8474 26.1615H58.6518C57.9658 27.7263 56.5249 28.5831 54.5689 28.5831C51.4145 28.5831 49.0672 26.0155 49.0672 22.0786C49.0672 18.1418 51.4145 15.5741 54.5689 15.5741C56.5001 15.5741 57.8694 16.4778 58.6518 17.8966H58.8474V15.8166H61.4398V33.2996H58.6518ZM58.7482 22.0759C58.7482 19.5578 57.2082 18.0894 55.3238 18.0894C53.4394 18.0894 51.8993 19.5578 51.8993 22.0759C51.8993 24.5939 53.4394 26.0623 55.3238 26.0623C57.2082 26.0623 58.7482 24.5967 58.7482 22.0759ZM63.5088 23.3735V15.8166H66.2968V23.1283C66.2968 25.1091 67.25 26.0623 68.8397 26.0623C70.7957 26.0623 72.0685 24.6683 72.0685 22.4919V15.8166H74.8565V28.3352H72.2641V25.7427H72.0685C71.4569 27.4067 70.1124 28.5804 68.0352 28.5804C65.0488 28.5804 63.5088 26.6739 63.5088 23.3735ZM76.5536 24.8391C76.5536 22.4919 78.1928 21.1227 81.102 20.9518L84.5485 20.7314V19.7534C84.5485 18.5798 83.6917 17.8718 82.1765 17.8718C80.7825 17.8718 79.9505 18.5798 79.7301 19.5826H76.942C77.2368 17.0398 79.3389 15.5714 82.1737 15.5714C85.3777 15.5714 87.3338 16.9406 87.3338 19.5826V28.3352H84.7414V26.0127H84.5457C83.9589 27.5528 82.7357 28.5804 80.3885 28.5804C78.1432 28.5804 76.5536 27.0651 76.5536 24.8391ZM84.5513 23.2991V22.6379L81.7384 22.8335C80.2232 22.9299 79.5372 23.4947 79.5372 24.6187C79.5372 25.5719 80.3196 26.2579 81.4189 26.2579C83.4024 26.2579 84.5513 24.9879 84.5513 23.2991ZM89.4138 28.3379V15.8166H92.0062V18.2134H92.2018C92.5682 16.5742 93.8162 15.8166 95.6731 15.8166H96.9459V18.3346H95.3563C93.5462 18.3346 92.2018 19.5082 92.2018 21.7343V28.3352H89.4138V28.3379ZM109.701 22.5911H100.188C100.334 24.8887 101.949 26.1863 103.734 26.1863C105.249 26.1863 106.203 25.5747 106.743 24.5471H109.506C108.748 27.0899 106.522 28.5804 103.709 28.5804C100.018 28.5804 97.4252 25.8171 97.4252 22.0759C97.4252 18.3346 100.089 15.5714 103.734 15.5714C107.401 15.5714 109.798 18.0894 109.798 21.2191C109.801 21.8334 109.751 22.1503 109.701 22.5911ZM107.037 20.6598C106.941 18.9242 105.497 17.7506 103.737 17.7506C102.073 17.7506 100.682 18.803 100.337 20.6598H107.037Z" fill="#7A7493"/>
</svg>
