<svg width="67" height="40" viewBox="0 0 67 40" fill="none" xmlns="http://www.w3.org/2000/svg">
<path fill-rule="evenodd" clip-rule="evenodd" d="M66.8192 20.5402C66.8192 15.8524 64.5485 12.1534 60.2086 12.1534C55.8503 12.1534 53.2134 15.8524 53.2134 20.5036C53.2134 26.0155 56.3264 28.7989 60.7945 28.7989C62.9737 28.7989 64.6217 28.3045 65.8669 27.6086V23.9463C64.6217 24.5689 63.1934 24.9534 61.3805 24.9534C59.6043 24.9534 58.0294 24.3308 57.828 22.17H66.7825C66.7825 21.932 66.8192 20.9797 66.8192 20.5402ZM57.7731 18.8006C57.7731 16.7314 59.0366 15.8707 60.1902 15.8707C61.3073 15.8707 62.4975 16.7314 62.4975 18.8006H57.7731Z" fill="#7A7493"/>
<path fill-rule="evenodd" clip-rule="evenodd" d="M46.1449 12.1534C44.3503 12.1534 43.1967 12.9957 42.5558 13.5817L42.3177 12.4464H38.2891V33.798L42.8671 32.8275L42.8854 27.6452C43.5446 28.1214 44.5151 28.7989 46.1266 28.7989C49.4044 28.7989 52.3892 26.162 52.3892 20.3571C52.3709 15.0467 49.3495 12.1534 46.1449 12.1534ZM45.0462 24.7703C43.9658 24.7703 43.3249 24.3857 42.8854 23.9096L42.8671 17.1159C43.3432 16.5849 44.0024 16.2186 45.0462 16.2186C46.7126 16.2186 47.8662 18.0864 47.8662 20.4853C47.8662 22.9391 46.7309 24.7703 45.0462 24.7703Z" fill="#7A7493"/>
<path fill-rule="evenodd" clip-rule="evenodd" d="M31.9897 11.0729L36.586 10.0841V6.36679L31.9897 7.33732V11.0729Z" fill="#7A7493"/>
<path d="M36.586 12.4647H31.9897V28.4876H36.586V12.4647Z" fill="#7A7493"/>
<path fill-rule="evenodd" clip-rule="evenodd" d="M27.0636 13.8197L26.7706 12.4647H22.8153V28.4876H27.3932V17.6286C28.4736 16.2186 30.3048 16.475 30.8725 16.6764V12.4647C30.2865 12.2449 28.144 11.8421 27.0636 13.8197Z" fill="#7A7493"/>
<path fill-rule="evenodd" clip-rule="evenodd" d="M17.9078 8.49095L13.4397 9.44317L13.4214 24.111C13.4214 26.8212 15.454 28.8172 18.1642 28.8172C19.6658 28.8172 20.7645 28.5425 21.3688 28.2129V24.4955C20.7828 24.7336 17.8895 25.5759 17.8895 22.8658V16.3651H21.3688V12.4646H17.8895L17.9078 8.49095Z" fill="#7A7493"/>
<path fill-rule="evenodd" clip-rule="evenodd" d="M5.52915 17.1159C5.52915 16.4018 6.11513 16.1271 7.08566 16.1271C8.47736 16.1271 10.2353 16.5483 11.627 17.299V12.9957C10.1071 12.3915 8.60555 12.1534 7.08566 12.1534C3.36835 12.1534 0.89624 14.0945 0.89624 17.3357C0.89624 22.3897 7.85476 21.584 7.85476 23.7631C7.85476 24.6055 7.12228 24.8802 6.09682 24.8802C4.57693 24.8802 2.63587 24.2576 1.09767 23.4152V27.7734C2.80068 28.5059 4.522 28.8172 6.09682 28.8172C9.90569 28.8172 12.5243 26.9311 12.5243 23.6533C12.506 18.1963 5.52915 19.1669 5.52915 17.1159Z" fill="#7A7493"/>
</svg>
