<svg width="128" height="40" viewBox="0 0 128 40" fill="none" xmlns="http://www.w3.org/2000/svg">
<path d="M109.06 18.1457V28.164H112.262V21.4852H123.973V28.164H127.175V18.1457H109.06ZM111.896 14.8978H124.247C125.985 14.5776 127.221 13.0223 127.587 11.5584H108.556C108.922 13.0223 110.203 14.5319 111.896 14.8978ZM99.3159 28.164C100.917 27.4778 101.786 26.2884 102.152 24.9161H87.7424V11.6042H84.4944V28.164H99.3159ZM60.4781 14.8521H71.9145C73.6528 14.3489 75.0709 13.0223 75.4369 11.6042H57.3217V21.3937H72.1432V24.8246H60.5239C58.6941 25.3278 57.1387 26.5629 56.3611 28.164H75.3454V18.1457H60.5239L60.4781 14.8521ZM32.299 14.8978H44.6503C46.3886 14.5776 47.6694 13.0223 47.9897 11.5584H28.9139C29.2798 13.0223 30.5607 14.5319 32.299 14.8978ZM32.299 21.4394H44.6503C46.3886 21.1192 47.6694 19.5639 47.9897 18.1H28.9139C29.2798 19.5639 30.5607 21.0735 32.299 21.4394ZM32.299 28.164H44.6503C46.3886 27.8438 47.6694 26.2884 47.9897 24.8246H28.9139C29.2798 26.2884 30.5607 27.8438 32.299 28.164Z" fill="#7A7493"/>
<path d="M0.140015 11.6042C0.505978 13.068 1.78685 14.5319 3.47943 14.8978H8.6944L8.96887 14.9893V28.1182H12.2168V14.9893L12.4913 14.8978H17.7062C19.4446 14.4404 20.6797 13.068 21.0456 11.6042V11.5584L0.140015 11.6042Z" fill="#7A7493"/>
</svg>
