<svg width="65" height="40" viewBox="0 0 65 40" fill="none" xmlns="http://www.w3.org/2000/svg">
<path d="M34.5109 15.7287C34.6367 15.5952 34.7876 15.488 34.955 15.4131C35.1224 15.3383 35.3029 15.2973 35.4863 15.2925C35.6696 15.2877 35.852 15.3193 36.023 15.3853C36.1941 15.4514 36.3504 15.5506 36.4829 15.6773C36.6155 15.804 36.7216 15.9557 36.7953 16.1237C36.8689 16.2916 36.9086 16.4724 36.9121 16.6558C36.9155 16.8391 36.8826 17.0213 36.8154 17.1919C36.7481 17.3625 36.6477 17.518 36.52 17.6496C36.2646 17.913 35.9154 18.0646 35.5486 18.0715C35.1818 18.0784 34.8271 17.94 34.5619 17.6865C34.2968 17.4329 34.1426 17.0848 34.133 16.7181C34.1235 16.3513 34.2593 15.9957 34.5109 15.7287ZM42.4743 27.9573C42.4374 26.8861 42.1202 25.7546 41.3112 25.0073C40.4079 24.1734 39.1009 23.7907 37.8858 23.7907H32.4694C31.9346 23.7907 31.4615 23.3915 31.4615 22.8988C31.4615 22.492 31.7372 22.1379 32.1304 22.0362C32.1289 22.0355 32.2231 22.0121 32.3225 21.9797C33.311 22.4353 34.3884 22.6654 35.4767 22.6532C37.1468 22.6532 38.8199 22.1651 40.0456 21.026C41.2396 19.9164 41.7971 18.3653 41.7971 16.7773C41.7971 15.1893 41.2396 13.6397 40.0456 12.5308C39.6974 12.2078 39.3093 11.9306 38.8907 11.706C40.0411 11.9711 41.2283 11.6427 42.0449 10.2415L39.7435 8.597L37.8248 11.2547C37.065 11.0165 36.2729 10.8976 35.4767 10.9022C33.8073 10.9022 32.1327 11.3903 30.9071 12.5293C29.7138 13.639 29.1571 15.1901 29.1571 16.7765C29.1571 18.363 29.7138 19.9156 30.9071 21.0253C31.0118 21.1209 31.118 21.2121 31.2287 21.2995L31.0042 21.4178C30.4418 21.7399 29.9313 22.1452 29.4901 22.6201C28.7337 23.4208 27.9774 24.6201 27.9774 26.2164C27.9774 26.2164 27.8719 29.6214 31.8043 29.6214H34.6526C35.308 29.6214 35.9769 30.0357 35.9769 30.6874C35.9769 30.9156 35.9106 31.1386 35.7863 31.3292H41.2343C42.0552 30.3998 42.4977 29.1964 42.4743 27.9566V27.9573ZM48.3351 15.7272C48.5309 15.5395 48.7775 15.4134 49.0443 15.3647C49.3111 15.316 49.5864 15.3468 49.8358 15.4532C50.0853 15.5596 50.298 15.737 50.4475 15.9633C50.597 16.1896 50.6767 16.4549 50.6767 16.7261C50.6767 16.9973 50.597 17.2625 50.4475 17.4888C50.298 17.7151 50.0853 17.8925 49.8358 17.9989C49.5864 18.1054 49.3111 18.1361 49.0443 18.0874C48.7775 18.0387 48.5309 17.9127 48.3351 17.725C48.088 17.451 47.9512 17.0951 47.9512 16.7261C47.9512 16.3571 48.088 16.0012 48.3351 15.7272ZM57.9852 27.9566C57.949 26.8854 57.6311 25.7539 56.8228 25.0066C55.9188 24.1726 54.6118 23.79 53.3982 23.79L47.111 23.7448C46.714 23.7448 46.4119 23.4977 46.4119 23.1316C46.4119 22.8302 46.5618 22.3813 46.9422 22.3067C47.694 22.5402 48.4767 22.6562 49.264 22.6524C50.9348 22.6524 52.6087 22.1643 53.8336 21.0253C55.0269 19.9156 55.5843 18.3645 55.5843 16.7765C55.5843 15.1885 55.0269 13.639 53.8336 12.5301C53.4851 12.2072 53.0968 11.9303 52.678 11.706C53.8283 11.9711 55.0156 11.6427 55.8322 10.2415L53.5323 8.597L51.6121 11.2547C50.8523 11.0165 50.0602 10.8976 49.264 10.9022C47.5946 10.9022 45.92 11.3903 44.6943 12.5293C43.5026 13.639 42.9444 15.1901 42.9444 16.7765C42.9444 18.363 43.5018 19.9156 44.6943 21.0253C45.0446 21.3492 45.4356 21.6264 45.8567 21.8509C45.5508 22.0829 45.2653 22.3406 45.0024 22.6193C44.2446 23.4208 43.4883 24.6201 43.4883 26.2164C43.4883 26.2164 43.3835 29.6214 47.3159 29.6214H50.1642C50.8203 29.6214 51.487 30.0357 51.487 30.6874C51.487 30.9156 51.4222 31.1378 51.2979 31.3292H56.7452C57.5666 30.4001 58.0092 29.1965 57.9852 27.9566ZM64.5782 26.2089V21.127C63.4038 21.2754 62.9962 20.4512 62.9962 19.6346V7.22369H57.1761V20.5627C57.1761 22.2185 57.4247 23.6001 58.0251 24.4702C58.9471 25.793 60.1969 26.6586 62.6806 26.6699C63.1386 26.6488 63.904 26.5592 64.5782 26.2104V26.2089ZM21.7407 20.0286C21.4395 20.3612 21.0315 20.578 20.5873 20.6413C20.1431 20.7046 19.6908 20.6105 19.3087 20.3753C18.9267 20.1401 18.6389 19.7786 18.4954 19.3535C18.3519 18.9284 18.3616 18.4665 18.5229 18.0479C18.6842 17.6292 18.9869 17.2802 19.3786 17.0613C19.7702 16.8424 20.2261 16.7674 20.6672 16.8494C21.1083 16.9314 21.5069 17.1651 21.7937 17.5101C22.0806 17.8551 22.2377 18.2895 22.2378 18.7382C22.2494 19.2172 22.0706 19.6812 21.7407 20.0286ZM26.0775 13.1207C24.5746 11.5952 22.5226 10.9428 20.4758 10.9428C18.4283 10.9428 16.3748 11.5952 14.8726 13.1207C13.4089 14.6055 12.7257 16.6816 12.7257 18.8052C12.7257 20.9296 13.4089 23.0065 14.8726 24.4913C16.374 26.016 18.4268 26.6692 20.4758 26.6692C22.5241 26.6692 24.5746 26.016 26.0775 24.4921C27.5405 23.0065 28.2245 20.9304 28.2245 18.8052C28.2245 16.6809 27.5405 14.6055 26.0775 13.1207ZM10.5561 21.1481C9.58809 21.1481 9.1926 20.8528 8.83477 20.4008C8.602 20.1055 8.48674 19.6716 8.48674 19.1088V16.4775H11.7358V11.7617H8.48674V7.22369H4.33594V8.92092C4.33594 10.7997 2.89559 12.3229 1.12077 12.3229C0.989312 12.3226 0.857993 12.3143 0.727539 12.2981L0.727539 16.4775H2.90765V20.6787C2.90765 22.333 3.20747 23.6062 3.80711 24.4747C4.7337 25.8021 5.75972 26.6692 8.26752 26.6692C9.72143 26.6692 10.9373 26.3377 11.7358 25.8947V20.953C11.3574 21.0879 10.9578 21.154 10.5561 21.1481Z" fill="#7A7493"/>
</svg>
