<svg width="87" height="40" viewBox="0 0 87 40" fill="none" xmlns="http://www.w3.org/2000/svg">
<path fill-rule="evenodd" clip-rule="evenodd" d="M84.2489 15.6439L80.8384 12.2337H74.5027V7.84739H69.1414V27.8267H74.5027V17.5929H78.8877V27.8267H84.2489V15.6439ZM67.1935 12.2337H58.9093L55.4981 15.6439V24.415L58.9093 27.8267H67.1935V22.467H60.8578V17.5929H67.1935V12.2337ZM53.5489 12.2337H49.1639V7.84739H43.8026V24.415L47.2139 27.8267H53.5489V22.467H49.1639V17.5929H53.5489V12.2337ZM41.8534 7.84739H36.4937V10.2847H41.8534V7.84739ZM41.8534 12.2337H36.4937V27.8265H41.8534V12.2337ZM34.5445 12.2337H29.1843V22.467H27.2356V12.2337H21.8751V22.467H19.9266V12.2337H14.5654V27.8267H31.134L34.5445 24.415V12.2337ZM12.6162 12.2337H8.23095V7.84739H2.87071V24.415L6.28175 27.8267H12.6162V22.467H8.23095V17.5929H12.6162V12.2337ZM86.1966 14.6692V29.2878L78.8877 34.1612H74.0151V31.7239L70.604 34.1612H66.219V31.7239L63.7832 34.1612H55.9862L53.5489 31.7239L53.061 34.1612H46.2399L43.4505 31.7239L43.2943 34.1612H35.5627L35.2893 31.7239L33.1964 34.1612H21.3872L18.9504 33.1865V34.1612H12.6162L5.30652 29.7744L0.921265 25.3909V5.89869H10.1804L14.5654 10.2847H34.5445V5.89869H51.1123V10.2847H55.4981V12.7205L57.9354 10.2847H62.8072L67.1935 5.89869H76.4519V10.2847H81.8124L86.1966 14.6692Z" fill="#7A7493"/>
</svg>
