<svg width="61" height="40" viewBox="0 0 61 40" fill="none" xmlns="http://www.w3.org/2000/svg">
<path d="M3.66538 24.0655C3.91835 24.7368 4.26859 25.3108 4.71614 25.7875C5.1637 26.2642 5.69393 26.6291 6.30682 26.882C6.91977 27.135 7.5862 27.2615 8.30617 27.2615C9.0067 27.2615 9.66338 27.1301 10.2763 26.8674C10.8893 26.6047 11.4244 26.235 11.8816 25.7583C12.3388 25.2815 12.694 24.7124 12.947 24.0509C13.1999 23.3893 13.3264 22.6499 13.3264 21.8326V9.22375H16.391V29.6548H13.3556V27.7576C12.6745 28.4775 11.8718 29.0321 10.9476 29.4213C10.0233 29.8104 9.02614 30.005 7.95594 30.005C6.86623 30.005 5.84957 29.8153 4.90582 29.4358C3.96214 29.0564 3.14485 28.5165 2.45413 27.816C1.76342 27.1154 1.21854 26.274 0.819673 25.2913C0.420745 24.3087 0.221313 23.2142 0.221313 22.0077V9.22375H3.28596V21.8326C3.28596 22.6499 3.41241 23.3941 3.66538 24.0655Z" fill="#7A7493"/>
<path d="M21.6736 9.22375V16.6665C22.3547 15.9854 23.1428 15.4455 24.0378 15.0466C24.9329 14.6477 25.9058 14.4482 26.9565 14.4482C28.0462 14.4482 29.0677 14.6525 30.0212 15.0611C30.9746 15.4697 31.8015 16.0243 32.502 16.7249C33.2026 17.4254 33.7571 18.2523 34.1658 19.2057C34.5744 20.1592 34.7787 21.1711 34.7787 22.2413C34.7787 23.3114 34.5744 24.3184 34.1658 25.262C33.7571 26.2058 33.2026 27.0279 32.502 27.7283C31.8015 28.4289 30.9746 28.9834 30.0212 29.3921C29.0677 29.8007 28.0462 30.0049 26.9565 30.0049C25.9058 30.0049 24.928 29.8055 24.0232 29.4066C23.1184 29.0077 22.3255 28.4677 21.6445 27.7867V29.6547H18.7258V9.22375H21.6736ZM22.0093 24.2551C22.2719 24.8778 22.6368 25.4227 23.1038 25.8897C23.5708 26.3567 24.1156 26.7264 24.7383 26.9988C25.361 27.2712 26.0323 27.4074 26.7522 27.4074C27.4528 27.4074 28.1143 27.2712 28.7369 26.9988C29.3596 26.7264 29.8995 26.3567 30.3569 25.8897C30.8141 25.4227 31.1789 24.8778 31.4514 24.2551C31.7238 23.6325 31.86 22.9612 31.86 22.2413C31.86 21.5213 31.7238 20.8451 31.4514 20.2127C31.1789 19.5803 30.8141 19.0306 30.3569 18.5637C29.8996 18.0967 29.3596 17.7318 28.7369 17.4692C28.1142 17.2065 27.4527 17.0751 26.7522 17.0751C26.0518 17.0751 25.3902 17.2064 24.7675 17.4692C24.1449 17.7319 23.6001 18.0967 23.133 18.5637C22.6661 19.0306 22.2964 19.5803 22.0239 20.2127C21.7515 20.8451 21.6153 21.5213 21.6153 22.2413C21.6153 22.9612 21.7466 23.6325 22.0093 24.2551Z" fill="#7A7493"/>
<path d="M36.4419 19.2349C36.8311 18.3009 37.3663 17.4789 38.0472 16.7687C38.7282 16.0584 39.5358 15.499 40.4698 15.0904C41.4038 14.6818 42.4156 14.4775 43.5052 14.4775C44.5754 14.4775 45.5678 14.6721 46.4824 15.0612C47.3969 15.4504 48.1849 15.9904 48.8465 16.6811C49.5081 17.3719 50.0238 18.1892 50.3934 19.1328C50.7631 20.0766 50.9479 21.103 50.9479 22.2121V23.1753H38.8353C38.9326 23.7785 39.1272 24.3379 39.4191 24.8535C39.711 25.3691 40.0758 25.8167 40.5136 26.1961C40.9514 26.5756 41.4476 26.8724 42.0021 27.0863C42.5567 27.3004 43.1453 27.4074 43.768 27.4074C45.5387 27.4074 46.9689 26.6777 48.0585 25.2183L50.1892 26.7944C49.4498 27.7868 48.5353 28.5651 47.4456 29.1294C46.3559 29.6937 45.1301 29.9758 43.768 29.9758C42.6589 29.9758 41.6228 29.7812 40.6596 29.3921C39.6964 29.003 38.8597 28.4581 38.1495 27.7575C37.4393 27.057 36.8799 26.2349 36.4713 25.2913C36.0627 24.3476 35.8583 23.3211 35.8583 22.212C35.8582 21.1613 36.0528 20.1689 36.4419 19.2349ZM40.5428 18.082C39.7158 18.7728 39.1661 19.6922 38.8937 20.8402H47.9709C47.718 19.6922 47.178 18.7728 46.351 18.082C45.524 17.3913 44.556 17.0459 43.4469 17.0459C42.3378 17.0459 41.3697 17.3913 40.5428 18.082Z" fill="#7A7493"/>
<path d="M56.4643 18.4177C55.8416 19.0987 55.5303 20.023 55.5303 21.1905V29.6548H52.5823V14.7693H55.501V16.6081C55.8708 16.0049 56.3523 15.5282 56.9458 15.178C57.5393 14.8277 58.2446 14.6525 59.0619 14.6525H60.0834V17.3961H58.8576C57.8847 17.3962 57.0869 17.7367 56.4643 18.4177Z" fill="#7A7493"/>
</svg>
