<svg width="96" height="40" viewBox="0 0 96 40" fill="none" xmlns="http://www.w3.org/2000/svg">
<path fill-rule="evenodd" clip-rule="evenodd" d="M87.0024 19.3859H86.2094L86.2002 26.4649H82.7795V6.39246H86.2094V16.352C88.6897 16.352 91.1883 15.1781 91.1883 12.072H94.5999C94.5999 14.9343 92.8112 17.598 90.1464 18.6183L95.6417 26.4649H91.7784L87.0024 19.3859ZM26.7752 23.9184C24.1289 23.9184 22.3771 21.9138 21.8885 21.1373C22.5155 16.2253 24.3503 14.6722 26.7752 14.6722C29.1725 14.6722 31.035 16.5503 31.035 19.2952C31.035 22.0402 29.1725 23.9184 26.7752 23.9184ZM26.7752 11.6564C22.4602 11.6564 20.0445 14.4104 19.3529 17.2456C18.5692 15.8009 17.9884 13.8686 17.5366 12.0717H11.5711V19.3404C11.5711 21.9771 10.3448 23.9274 7.94755 23.9274C5.55029 23.9274 4.17649 21.9771 4.17649 19.3404L4.20415 12.0717H0.765015V19.3404C0.765015 21.4624 1.46575 23.3857 2.74736 24.7581C4.06585 26.1757 5.86378 26.9161 7.94755 26.9161C12.0966 26.9161 14.9918 23.801 14.9918 19.3404V14.4555C15.4251 16.0627 16.4578 19.1508 18.4309 21.8597L16.5869 32.1442H20.0814L21.2984 24.8574C21.6949 25.1825 22.119 25.4714 22.5708 25.7333C23.7417 26.4557 25.0786 26.862 26.4617 26.9071C26.4617 26.9071 26.6737 26.9161 26.7844 26.9161C31.0626 26.9161 34.4648 23.6746 34.4648 19.2952C34.4648 14.916 31.0534 11.6564 26.7752 11.6564ZM76.1864 13.6255V12.0725H72.8118V26.4563H76.2325V20.822C76.2325 17.3547 76.5552 14.8626 81.3036 15.1876V11.9009C79.0907 11.7384 77.3666 12.1898 76.1864 13.6255ZM49.9559 22.1316L52.4361 12.0728H56.0966L52.0765 26.4658H47.9643L45.1337 16.2444L42.2755 26.4658H38.1633L34.3645 12.0728H37.8313L40.3023 22.1316L42.9578 12.0728H47.3096L49.9559 22.1316ZM63.6293 23.9274C61.1953 23.9274 59.3697 22.0493 59.3697 19.2952C59.3697 16.5413 61.2045 14.6722 63.6293 14.6722C66.0267 14.6722 67.8892 16.5503 67.8892 19.2952C67.8892 22.0402 66.0267 23.9274 63.6293 23.9274ZM63.6293 11.6564C59.3235 11.6564 55.949 14.925 55.949 19.2952C55.949 23.6655 59.3235 26.9071 63.6293 26.9071C67.9075 26.9071 71.3098 23.6655 71.3098 19.2952C71.3098 14.925 67.9168 11.6564 63.6293 11.6564Z" fill="#7A7493"/>
</svg>
