<svg width="97" height="40" viewBox="0 0 97 40" fill="none" xmlns="http://www.w3.org/2000/svg">
<path d="M31.8948 16.875C31.8948 15.1613 30.1811 13.3333 27.3249 13.3333C24.126 13.3333 20.4701 15.7325 19.8988 20.5309C19.3276 25.3293 22.298 27.5 25.3827 27.5C28.4674 27.5 29.9526 26.3576 31.5521 24.7581C30.1811 23.0444 28.3531 23.8441 28.0104 23.9584C27.6677 24.1869 27.0964 24.4154 26.1824 24.4154C25.04 24.4154 23.7832 23.8441 23.7832 21.6734C31.3236 20.8737 31.8948 18.5887 31.8948 16.875ZM28.2389 17.1035C28.2389 17.6747 28.0104 18.5887 24.2402 19.0457C25.04 16.1895 26.5252 15.961 27.2107 15.961C27.8962 16.0753 28.2389 16.5323 28.2389 17.1035ZM15.5574 17.5605C15.5574 17.5605 13.9579 22.5874 13.8437 23.0444C13.8437 22.5874 12.587 13.5618 12.587 13.5618C9.84503 13.5618 8.35981 15.504 7.67433 17.5605C7.67433 17.5605 5.73212 22.5874 5.61787 23.0444C5.50362 22.7016 5.27513 17.6747 5.27513 17.6747C5.04663 15.1613 2.76168 13.5618 0.933716 13.5618L3.21867 27.2715C6.07486 27.2715 7.67433 25.3293 8.47406 23.2729C8.47406 23.2729 10.1878 18.8172 10.302 18.5887C10.302 18.8172 11.5587 27.2715 11.5587 27.2715C14.4149 27.2715 16.0144 25.4436 16.8141 23.5014L20.8128 13.5618C17.8424 13.5618 16.3571 15.504 15.5574 17.5605ZM42.5199 13.2191C40.8061 13.2191 39.4352 14.1331 38.2927 15.6183L39.2067 7.39246C36.8075 7.39246 34.9795 9.44891 34.5225 12.4194L32.6946 27.1573C34.0655 27.1573 35.4365 26.8146 36.2362 25.7863C36.9217 26.7003 37.95 27.3858 39.4352 27.3858C43.4338 27.3858 46.1758 22.8159 46.1758 18.4745C46.29 14.4758 44.3478 13.2191 42.5199 13.2191ZM42.0629 20.3024C41.6059 22.7016 40.3491 24.3011 38.9782 24.3011C37.7215 24.3011 37.1502 23.7299 37.1502 23.7299C37.3787 21.6734 37.6072 20.3024 38.0642 19.16C38.5212 18.0175 39.6637 16.3038 40.8061 16.3038C41.9486 16.418 42.5199 17.9032 42.0629 20.3024ZM56.2296 13.5618H53.4876V13.4476C53.7161 11.6196 54.0589 10.7056 55.5441 10.5914C56.4581 10.4771 56.9151 10.0202 57.0293 9.44891C57.1436 8.99192 57.372 7.5067 57.372 7.5067C51.7739 7.5067 50.0602 9.9059 49.6032 13.5618V13.6761H49.489C48.575 13.6761 47.5468 14.7043 47.4325 15.961L47.3183 16.418H49.1462L47.5467 29.2138L47.0898 31.4987C47.204 31.4987 47.204 31.4987 47.3183 31.4987C49.9459 31.3845 51.5454 29.328 52.0024 26.3576L53.2591 16.3038H54.1731C54.9728 16.3038 56.0011 15.504 56.2296 14.0188V13.5618ZM70.6248 13.3333C67.4258 13.3333 64.4554 15.7325 63.5414 19.3885C62.6274 23.0444 63.9984 27.5 68.6826 27.5C73.3667 27.5 76.1087 22.9301 76.1087 19.16C75.9944 15.3898 73.481 13.3333 70.6248 13.3333ZM71.8815 20.1882C71.7672 21.9019 70.9675 24.4154 68.9111 24.4154C66.8546 24.4154 67.1973 21.4449 67.3116 20.0739C67.5401 18.5887 68.3398 16.418 70.1678 16.418C71.8815 16.418 72.11 18.3602 71.8815 20.1882ZM91.8748 17.5605C91.8748 17.5605 90.2754 22.5874 90.1611 23.0444C90.1611 22.5874 88.9044 13.5618 88.9044 13.5618C86.1625 13.5618 84.6772 15.504 83.9917 17.5605C83.9917 17.5605 82.0495 22.5874 81.9353 23.0444C81.9353 22.7016 81.5925 17.6747 81.5925 17.6747C81.4783 15.1613 79.0791 13.6761 77.2511 13.6761L79.5361 27.3858C82.3923 27.3858 83.9918 25.4436 84.7915 23.3871C84.7915 23.3871 86.5052 18.9315 86.6194 18.703C86.6194 18.9315 87.8762 27.3858 87.8762 27.3858C90.7324 27.3858 92.3318 25.5578 93.1316 23.6156L96.9017 13.5618C94.0455 13.5618 92.5603 15.504 91.8748 17.5605ZM58.8573 7.5067L56.5723 26.2433L56.1153 28.5283C56.2296 28.5283 56.2296 28.5283 56.3438 28.5283C58.8573 28.5283 60.6852 26.2433 60.9137 23.5014L62.2847 12.7621C62.6274 9.56316 60.571 7.5067 58.8573 7.5067Z" fill="#7A7493"/>
</svg>
