<svg width="82" height="40" viewBox="0 0 82 40" fill="none" xmlns="http://www.w3.org/2000/svg">
<path fill-rule="evenodd" clip-rule="evenodd" d="M66.6717 16.2014C66.9828 16.738 67.0845 17.3486 67.1181 18.0351L67.1623 18.95V25.348L67.2074 26.2639C67.2977 27.7597 68.4008 28.8657 69.9081 28.9598L70.8192 29.0049V18.95L70.8643 18.0351C70.9018 17.3563 71.0026 16.7342 71.3185 16.1937C71.6403 15.6393 72.1024 15.1793 72.6582 14.8599C73.2141 14.5406 73.8442 14.3731 74.4852 14.3742C75.1263 14.3754 75.7558 14.5452 76.3105 14.8666C76.8651 15.188 77.3255 15.6496 77.6453 16.2052C77.9564 16.7419 78.0534 17.364 78.0908 18.0351L78.1359 18.9472V25.348L78.1811 26.2639C78.2752 27.7674 79.3696 28.8734 80.8818 28.9598L81.7929 29.0049V18.0351C81.7929 16.0953 81.0225 14.235 79.6512 12.8631C78.2798 11.4912 76.4197 10.7201 74.48 10.7193C73.4418 10.7182 72.4153 10.9387 71.4691 11.366C70.5229 11.7933 69.6788 12.4177 68.9932 13.1973C68.3072 12.418 67.4631 11.7938 66.517 11.3664C65.5709 10.9389 64.5445 10.718 63.5063 10.7184C61.9875 10.7184 60.5781 11.1792 59.4107 11.9751C58.6983 11.1802 57.1046 10.7184 56.1896 10.7184V29.0049L57.1046 28.9598C58.6349 28.859 59.7409 27.7827 59.8004 26.2639L59.8494 25.348V18.95L59.8945 18.0351C59.9329 17.3448 60.0289 16.738 60.341 16.1975C60.6631 15.6434 61.1249 15.1836 61.6804 14.8638C62.2358 14.5441 62.8654 14.3756 63.5063 14.3753C64.1477 14.3754 64.7778 14.5442 65.3334 14.8647C65.889 15.1852 66.3505 15.6462 66.6717 16.2014ZM4.07196 28.9607L4.98691 29.0049H18.7016L18.6565 28.0928C18.5326 26.5894 17.4679 25.491 15.9596 25.3931L15.0447 25.348H6.81682L17.7866 14.3743L17.7415 13.4632C17.6705 11.9444 16.5606 10.847 15.0447 10.7635L14.1297 10.7222L0.415039 10.7184L0.460163 11.6333C0.580172 13.1224 1.66026 14.2438 3.15605 14.3302L4.07196 14.3753H12.2998L1.32999 25.3489L1.37511 26.2639C1.46536 27.7712 2.55313 28.8628 4.07196 28.9598V28.9607ZM52.5999 13.3951C53.4491 14.2441 54.1227 15.252 54.5823 16.3614C55.0419 17.4708 55.2784 18.6599 55.2784 19.8607C55.2784 21.0615 55.0419 22.2505 54.5823 23.3599C54.1227 24.4693 53.4491 25.4773 52.5999 26.3263C50.8842 28.0406 48.5581 29.0035 46.1328 29.0035C43.7075 29.0035 41.3814 28.0406 39.6658 26.3263C36.0952 22.7558 36.0952 16.9656 39.6658 13.3951C40.5142 12.5463 41.5215 11.873 42.6301 11.4136C43.7387 10.9542 44.927 10.7176 46.1271 10.7174C47.3291 10.7166 48.5195 10.9527 49.6301 11.4123C50.7408 11.872 51.75 12.546 52.5999 13.396V13.3951ZM50.0125 15.9844C51.0409 17.0136 51.6186 18.4091 51.6186 19.864C51.6186 21.319 51.0409 22.7145 50.0125 23.7437C48.9833 24.7721 47.5878 25.3498 46.1328 25.3498C44.6778 25.3498 43.2824 24.7721 42.2532 23.7437C41.2247 22.7145 40.647 21.319 40.647 19.864C40.647 18.4091 41.2247 17.0136 42.2532 15.9844C43.2824 14.9559 44.6778 14.3782 46.1328 14.3782C47.5878 14.3782 48.9833 14.9559 50.0125 15.9844ZM26.9371 10.7174C28.1372 10.7177 29.3255 10.9544 30.4342 11.414C31.5428 11.8736 32.5501 12.5471 33.3984 13.396C36.9699 16.9656 36.9699 22.7567 33.3984 26.3263C31.6827 28.0406 29.3567 29.0035 26.9313 29.0035C24.506 29.0035 22.1799 28.0406 20.4643 26.3263C16.8938 22.7558 16.8938 16.9656 20.4643 13.3951C21.3127 12.5463 22.32 11.873 23.4286 11.4136C24.5372 10.9542 25.7255 10.7176 26.9256 10.7174H26.9371ZM30.811 15.9825C31.8397 17.0117 32.4176 18.4074 32.4176 19.8626C32.4176 21.3178 31.8397 22.7135 30.811 23.7427C29.7818 24.7712 28.3863 25.3489 26.9313 25.3489C25.4764 25.3489 24.0809 24.7712 23.0517 23.7427C22.0232 22.7135 21.4455 21.3181 21.4455 19.8631C21.4455 18.4081 22.0232 17.0126 23.0517 15.9834C24.0809 14.955 25.4764 14.3773 26.9313 14.3773C28.3863 14.3773 29.7818 14.955 30.811 15.9834V15.9825Z" fill="#7A7493"/>
</svg>
