<svg width="58" height="40" viewBox="0 0 58 40" fill="none" xmlns="http://www.w3.org/2000/svg">
<rect width="58" height="40" rx="6" fill="white"/>
<rect x="0.5" y="0.5" width="57" height="39" rx="5.5" stroke="#2F2B43" stroke-opacity="0.1"/>
<path fill-rule="evenodd" clip-rule="evenodd" d="M45.489 23.2469H46.8866H46.8879C47.0341 23.2498 47.1556 23.129 47.161 22.9754V18.9029C47.161 18.3914 47.187 17.9294 47.3831 17.4675C47.5178 17.1161 47.835 16.8796 48.1949 16.8621C49.089 16.8621 49.0804 17.8919 49.0736 18.701C49.0731 18.7693 49.0725 18.8359 49.0725 18.9003V23.0093C49.0898 23.1412 49.1943 23.2411 49.3208 23.2469H50.7308C50.8645 23.2498 50.9797 23.1483 51.0002 23.0093V18.2478C51.0002 17.5158 51.0002 16.4967 50.634 15.8912C50.238 15.2388 49.6249 15 48.9968 15C48.0286 15 47.4787 15.4932 47.0865 16.528H47.0592V15.3706C47.0309 15.2496 46.9294 15.1632 46.8109 15.1592H45.5101C45.3726 15.1556 45.2555 15.2634 45.2407 15.4071V22.9754C45.2425 23.1205 45.3511 23.2393 45.489 23.2469ZM44.1732 19.2774C44.1732 16.8895 43.0474 15.0104 40.9658 15.0104C38.9375 15.0104 37.8117 16.8581 37.8117 19.1978C37.8117 21.5374 38.9239 23.4165 40.9658 23.4165C42.9319 23.4165 44.1732 21.5857 44.1732 19.2774ZM39.8796 18.959C39.8796 18.0351 39.9454 16.5554 40.9794 16.5554C41.4238 16.5554 41.7378 16.7655 41.8954 17.2874C42.0791 17.8916 42.1052 18.6563 42.1052 19.293C42.1052 20.2639 42.0642 21.8558 40.9657 21.8558C39.8792 21.8558 39.8795 19.9257 39.8796 18.9896L39.8796 18.959ZM13.6518 23.2625H15.0532H15.0544C15.1248 23.2642 15.1929 23.2364 15.2437 23.1852C15.2944 23.1341 15.3237 23.0637 15.325 22.9897V18.9799L15.325 18.9171C15.3244 18.0452 15.3237 16.8921 16.2932 16.8921C17.1895 16.8921 17.1757 17.9052 17.1645 18.7234L17.1645 18.7235C17.1633 18.8118 17.1621 18.8977 17.1621 18.9799V22.9911C17.1645 23.1359 17.2728 23.2543 17.4103 23.2625H18.8155C18.8856 23.2639 18.9534 23.2359 19.0039 23.1848C19.0544 23.1336 19.0835 23.0635 19.0848 22.9897V18.9799L19.0847 18.8845C19.0838 18.4597 19.0827 17.8863 19.2164 17.5301C19.3527 17.166 19.6822 16.9223 20.0542 16.9103C20.4601 16.9103 20.7742 17.0539 20.8784 17.5628C20.9317 17.8077 20.9248 18.3755 20.9202 18.752V18.752L20.9202 18.7522C20.9191 18.841 20.9182 18.9191 20.9182 18.9799V22.9911C20.9199 23.1362 21.0285 23.2549 21.1664 23.2625H22.5678C22.6381 23.2642 22.7062 23.2364 22.757 23.1852C22.8078 23.1341 22.8371 23.0637 22.8384 22.9897V18.2152C22.8384 18.0988 22.8403 17.9798 22.8422 17.8596C22.8537 17.1466 22.8659 16.3878 22.4846 15.8429C22.0224 15.2249 21.2791 14.9169 20.5401 15.0372C19.801 15.1576 19.1812 15.6875 18.9185 16.4236C18.525 15.4671 17.9627 15.0222 17.0988 15.0222C16.2349 15.0222 15.5931 15.4671 15.253 16.4236H15.227V15.4358C15.2196 15.295 15.1126 15.1826 14.9787 15.1748H13.6717C13.5273 15.1733 13.4083 15.2933 13.4035 15.4449V23.0132C13.4163 23.1494 13.5218 23.2554 13.6518 23.2625ZM11.2127 23.3199C11.1204 23.4041 10.9878 23.4182 10.8813 23.3551C10.4841 23.0078 10.3644 22.82 10.1805 22.5316C10.1489 22.482 10.1154 22.4295 10.0782 22.3726C9.30737 23.1973 8.76246 23.4439 7.76572 23.4439C6.58528 23.4439 5.66675 22.6779 5.66675 21.146C5.66675 19.9494 6.28738 19.1365 7.15626 18.7372C7.79786 18.4412 8.65392 18.3493 9.39402 18.2699L9.39406 18.2699C9.53166 18.2551 9.66525 18.2408 9.7927 18.2257V18.0352C9.7927 17.9988 9.79298 17.9617 9.79327 17.9242C9.79572 17.5994 9.79845 17.2377 9.62265 16.9652C9.45136 16.6937 9.12615 16.5828 8.83569 16.5828C8.30071 16.5828 7.82406 16.8712 7.70738 17.4675C7.6926 17.6066 7.59077 17.718 7.45913 17.739L6.11112 17.5837C6.04385 17.5735 5.98348 17.5349 5.94407 17.4767C5.90466 17.4185 5.88967 17.3459 5.90259 17.2757C6.21414 15.5428 7.70366 15.0196 9.03802 15.0196C9.72071 15.0196 10.6119 15.2101 11.1482 15.7529C11.7776 16.3725 11.7738 17.1836 11.7695 18.0699C11.7691 18.1431 11.7688 18.2168 11.7688 18.2909V20.5862C11.7688 21.2044 11.987 21.5119 12.2168 21.8357L12.2168 21.8358L12.2168 21.8358L12.2168 21.8358L12.2168 21.8358L12.2168 21.8358C12.2441 21.8743 12.2715 21.9129 12.2988 21.9524C12.3882 22.0829 12.408 22.246 12.2988 22.3439C12.0121 22.5957 11.5032 23.0602 11.2239 23.3225L11.2127 23.3199ZM9.79889 19.7263L9.79893 19.7977C9.79943 20.3405 9.79984 20.8007 9.53698 21.2921C9.31356 21.7071 8.9598 21.9628 8.56507 21.9628C8.02761 21.9628 7.71357 21.5322 7.71357 20.8928C7.71357 19.6375 8.78478 19.4092 9.79889 19.4092V19.7263ZM30.5949 21.8305L30.595 21.8307C30.6223 21.8691 30.6497 21.9077 30.677 21.9472C30.7713 22.0829 30.7912 22.2421 30.6708 22.3321C30.384 22.584 29.8751 23.0498 29.5958 23.3108C29.503 23.3938 29.3708 23.4073 29.2644 23.3447C28.8656 22.9958 28.7474 22.8108 28.5609 22.5187C28.5297 22.4699 28.4967 22.4181 28.4601 22.3621C27.6905 23.1868 27.1419 23.4334 26.1488 23.4334C24.9684 23.4334 24.0499 22.6675 24.0499 21.1368C24.0499 19.939 24.6668 19.126 25.5456 18.7267C26.1886 18.4296 27.0494 18.3382 27.7917 18.2594C27.9264 18.245 28.0572 18.2312 28.182 18.2165V18.0299C28.182 17.9937 28.1823 17.9569 28.1826 17.9195C28.185 17.5946 28.1878 17.2328 28.0107 16.9612C27.8444 16.6898 27.513 16.5776 27.2238 16.5776C26.6888 16.5776 26.2146 16.866 26.0967 17.4623C26.0815 17.6012 25.9799 17.7123 25.8485 17.7337L24.4893 17.5797C24.4215 17.57 24.3606 17.5313 24.3209 17.4727C24.2812 17.4142 24.2662 17.341 24.2795 17.2705C24.5923 15.5363 26.0818 15.0144 27.4162 15.0144C28.0976 15.0144 28.9889 15.2049 29.5263 15.7477C30.1571 16.3641 30.1527 17.1688 30.1478 18.0507C30.1474 18.1284 30.147 18.2068 30.147 18.2857V20.5823C30.147 21.1992 30.3651 21.5065 30.5948 21.8303L30.5949 21.8305ZM26.9507 21.955C27.3442 21.955 27.6992 21.6992 27.9214 21.2856C28.1851 20.7915 28.1849 20.3291 28.1845 19.7795L28.1845 19.721V19.4026C27.1704 19.4026 26.0992 19.6297 26.0992 20.8863C26.0992 21.5244 26.4132 21.955 26.9507 21.955ZM31.8636 15.4188V16.4967C31.8628 16.5706 31.891 16.6416 31.9414 16.6932C31.9918 16.7447 32.0601 16.7723 32.1304 16.7694H34.5434L31.7767 20.945C31.6504 21.169 31.5907 21.4276 31.6054 21.6875V22.7901C31.6054 22.9493 31.7729 23.1307 31.9331 23.0406C33.4591 22.2089 35.2737 22.2054 36.8025 23.0315C36.9776 23.1268 37.1427 22.9428 37.1427 22.7836V21.6248C37.1379 21.4477 37.0432 21.2868 36.8944 21.2034C36.0888 20.7271 35.1517 20.5875 34.2654 20.6097L36.6536 17.0265C36.8758 16.7055 36.9999 16.5019 36.9999 16.3466V15.4188C37.0006 15.3451 36.9727 15.2743 36.9225 15.2228C36.8723 15.1713 36.8043 15.1436 36.7343 15.1461H32.1255C32.0553 15.142 31.9868 15.1693 31.9368 15.2213C31.8869 15.2733 31.8603 15.3451 31.8636 15.4188Z" fill="black"/>
<path fill-rule="evenodd" clip-rule="evenodd" d="M34.1686 28.0749C34.4876 27.241 35.1976 25.3725 34.86 24.9197H34.8625C34.5263 24.4659 32.6396 24.704 31.7909 24.8111L31.7891 24.8114C31.5309 24.844 31.4912 24.6078 31.7233 24.4369C33.2302 23.3238 35.6991 23.6422 35.9858 24.018C36.2725 24.3938 35.9076 26.9957 34.4963 28.238C34.2791 28.4285 34.0718 28.3267 34.1686 28.0749ZM24.0287 29.3615C27.3106 29.3615 31.1325 28.2719 33.7652 26.2298V26.2337C34.2009 25.8892 33.8272 25.3829 33.3829 25.5813C30.5091 26.8555 27.4244 27.5207 24.3055 27.5386C19.9785 27.5386 15.7929 26.2911 12.4068 24.2203C12.1101 24.0389 11.8892 24.3586 12.1374 24.5922C15.3973 27.6841 19.6381 29.385 24.0287 29.3615Z" fill="#FF9900"/>
</svg>
