<svg width="58" height="40" viewBox="0 0 58 40" fill="none" xmlns="http://www.w3.org/2000/svg">
<rect width="58" height="40" rx="6" fill="white"/>
<rect x="0.5" y="0.5" width="57" height="39" rx="5.5" stroke="#2F2B43" stroke-opacity="0.1"/>
<path fill-rule="evenodd" clip-rule="evenodd" d="M16.0075 13.9053C15.5152 14.4918 14.7277 14.9543 13.9401 14.8883C13.8416 14.0952 14.2272 13.2527 14.6784 12.7323C15.1707 12.1292 16.0321 11.6997 16.7294 11.6667C16.8115 12.4927 16.4915 13.3022 16.0075 13.9053ZM16.7212 15.0452C16.0273 15.005 15.3942 15.2553 14.8828 15.4575C14.5538 15.5876 14.2751 15.6978 14.0631 15.6978C13.8251 15.6978 13.535 15.5817 13.2092 15.4514C12.7823 15.2806 12.2942 15.0854 11.7823 15.0948C10.6092 15.1113 9.51803 15.7804 8.91913 16.846C7.68852 18.9772 8.59917 22.1327 9.78876 23.8674C10.3712 24.7265 11.0686 25.6682 11.9874 25.6352C12.3917 25.6198 12.6825 25.4956 12.9834 25.367C13.3299 25.219 13.6898 25.0652 14.2518 25.0652C14.7943 25.0652 15.1384 25.2149 15.4688 25.3587C15.783 25.4954 16.0846 25.6267 16.5325 25.6186C17.4842 25.6021 18.0831 24.7595 18.6655 23.9005C19.2941 22.9784 19.5704 22.0786 19.6123 21.942L19.6172 21.9262C19.6162 21.9252 19.6084 21.9216 19.5947 21.9153C19.3846 21.8184 17.7785 21.0781 17.7631 19.0928C17.7476 17.4265 19.037 16.5822 19.24 16.4493C19.2523 16.4413 19.2607 16.4358 19.2644 16.433C18.444 15.2104 17.1642 15.0782 16.7212 15.0452ZM23.3091 25.5278V12.6497H28.1085C30.5861 12.6497 32.3171 14.3678 32.3171 16.879C32.3171 19.3902 30.5533 21.1249 28.0428 21.1249H25.2945V25.5278H23.3091ZM25.2942 14.3348H27.5831C29.306 14.3348 30.2905 15.26 30.2905 16.8873C30.2905 18.5146 29.306 19.448 27.5749 19.448H25.2942V14.3348ZM38.8723 23.9831C38.3472 24.9908 37.1904 25.6269 35.9434 25.6269C34.0975 25.6269 32.8095 24.52 32.8095 22.8514C32.8095 21.1993 34.0565 20.2493 36.3618 20.1089L38.8395 19.9602V19.2498C38.8395 18.2007 38.1585 17.6307 36.9443 17.6307C35.9434 17.6307 35.2133 18.1512 35.0656 18.9442H33.2771C33.3345 17.2755 34.8933 16.0612 37.0017 16.0612C39.2743 16.0612 40.751 17.259 40.751 19.1176V25.5278H38.9133V23.9831H38.8723ZM36.4767 24.0987C35.4183 24.0987 34.7456 23.5866 34.7456 22.8018C34.7456 21.9923 35.3937 21.5214 36.6325 21.4471L38.8394 21.3067V22.0336C38.8394 23.2396 37.8221 24.0987 36.4767 24.0987ZM46.8464 26.0317C46.0506 28.2868 45.14 29.0302 43.2038 29.0302C43.0561 29.0302 42.5639 29.0137 42.449 28.9807V27.436C42.5721 27.4525 42.8756 27.469 43.0315 27.469C43.9094 27.469 44.4016 27.0973 44.7051 26.1308L44.8856 25.5608L41.522 16.1852H43.5976L45.9358 23.7931H45.9768L48.3149 16.1852H50.3331L46.8464 26.0317Z" fill="black"/>
</svg>
