<svg width="58" height="40" viewBox="0 0 58 40" fill="none" xmlns="http://www.w3.org/2000/svg">
<rect width="58" height="40" rx="6" fill="white"/>
<rect x="0.5" y="0.5" width="57" height="39" rx="5.5" stroke="#2F2B43" stroke-opacity="0.1"/>
<path fill-rule="evenodd" clip-rule="evenodd" d="M6.66675 24.0104C6.6956 23.8553 6.72202 23.7052 6.74793 23.558C6.78796 23.3304 6.82675 23.11 6.87135 22.8895C7.0602 21.8924 7.25037 20.8966 7.44053 19.9008L7.44054 19.9008L7.44054 19.9008L7.44055 19.9007L7.44055 19.9007L7.44056 19.9007C7.63073 18.9048 7.82091 17.909 8.00977 16.9118C8.036 16.7855 8.07272 16.7013 8.19863 16.6803C9.17966 16.5329 10.1659 16.4277 11.147 16.675C12.0021 16.8855 12.6002 17.4906 12.6998 18.201C12.9044 19.6165 12.0808 20.7479 10.8584 21.1531C10.2132 21.3635 9.55739 21.4162 8.89112 21.353C8.73374 21.3372 8.68652 21.3793 8.66029 21.5319C8.51865 22.3054 8.37175 23.0737 8.21961 23.842C8.20912 23.9051 8.15141 24.0051 8.11469 24.0051C7.75816 24.013 7.40749 24.012 7.043 24.011H7.043H7.04299H7.04299H7.04298H7.04298C6.91941 24.0107 6.79426 24.0104 6.66675 24.0104ZM8.9226 20.1006C9.02517 20.1006 9.1245 20.1033 9.22129 20.106C9.4265 20.1116 9.62027 20.1168 9.80921 20.0954C10.3548 20.0375 10.7902 19.7902 11.0368 19.2692C11.3149 18.6799 11.1155 18.0537 10.5909 17.8695C10.2184 17.738 9.83544 17.7643 9.45247 17.8169C9.40525 17.8222 9.3423 17.8958 9.33181 17.9432C9.25843 18.3289 9.18505 18.7162 9.10891 19.1181L9.10891 19.1181L8.9226 20.1006ZM15.9682 23C15.8852 23.0866 15.8075 23.1738 15.7315 23.2589L15.7315 23.2589C15.5673 23.4428 15.4114 23.6175 15.2285 23.7578C14.6777 24.184 14.0481 24.2787 13.4133 23.9841C12.7838 23.6946 12.5267 23.1316 12.5005 22.4686C12.4428 21.0741 12.9307 19.9217 14.1006 19.1219C14.8351 18.6167 15.6797 18.4641 16.5558 18.5115C16.8456 18.5286 17.1332 18.579 17.4214 18.6296C17.5767 18.6568 17.7322 18.6841 17.8883 18.7062C18.0667 18.7325 18.0929 18.8325 18.0614 18.9851C18.0193 19.2052 17.9768 19.425 17.9342 19.6447C17.7753 20.4651 17.6168 21.2837 17.4844 22.1055C17.4084 22.576 17.3781 23.0579 17.3481 23.535L17.3481 23.5353L17.3481 23.5357C17.3429 23.6187 17.3377 23.7015 17.3322 23.7841C17.3217 23.9525 17.2798 24.0209 17.1066 24.0156C16.7814 24.0051 16.4561 24.0051 16.1309 24.0156C15.963 24.0209 15.9053 23.9577 15.921 23.7946C15.936 23.6143 15.9456 23.4287 15.9556 23.2358L15.9556 23.2354L15.9558 23.2333C15.9597 23.1567 15.9638 23.079 15.9682 23ZM16.3355 19.748C15.8266 19.606 15.4016 19.7059 15.0449 20.0059C14.3734 20.5742 14.0691 21.3109 14.1268 22.1896C14.1426 22.458 14.2475 22.7158 14.5308 22.8316C14.8141 22.9474 15.0711 22.8632 15.2915 22.6737C15.4226 22.558 15.5485 22.4264 15.643 22.2791C16.013 21.7126 16.1141 21.0736 16.2168 20.4245L16.2168 20.4245C16.2524 20.1993 16.2882 19.973 16.3355 19.748ZM23.7693 22.6948C24.0578 23.621 24.85 24.1366 26.2402 24.1366C27.195 24.1103 28.1446 23.5683 28.7374 22.4528C29.0522 21.8529 29.1676 21.2109 29.1256 20.5374C29.0889 19.8901 28.8318 19.3429 28.3072 18.9535C27.7564 18.543 27.1268 18.4589 26.4553 18.5325C24.2099 18.7851 23.2919 21.1688 23.7693 22.6948ZM25.2633 21.9221V21.922V21.922V21.9219V21.9218C25.2639 21.895 25.2644 21.8684 25.2644 21.8424C25.2802 21.2372 25.4271 20.6742 25.789 20.1743C25.9517 19.9533 26.1563 19.7849 26.4291 19.7217C26.9852 19.5955 27.4416 19.9164 27.494 20.5216C27.557 21.2635 27.3786 21.9476 26.9117 22.5422C26.7333 22.7632 26.5078 22.9158 26.2192 22.9421C25.6999 22.9895 25.3064 22.6369 25.2644 22.0844C25.2609 22.0316 25.2621 21.9764 25.2633 21.9221ZM30.3742 18.643H31.7067C31.6858 18.9272 31.6648 19.2008 31.6385 19.4797C31.6871 19.4343 31.7341 19.3895 31.7802 19.3456L31.7802 19.3455C31.8783 19.2519 31.9723 19.1622 32.0687 19.0798C32.5881 18.6273 33.1809 18.4273 33.8682 18.5378C34.4348 18.6325 34.8282 19.0482 34.8912 19.6323C34.9596 20.2401 34.8459 20.8296 34.7325 21.4179L34.7076 21.5477C34.6616 21.7866 34.6161 22.0255 34.5707 22.2642L34.5706 22.2645L34.5705 22.2649L34.5705 22.2651L34.5704 22.2653L34.5704 22.2654C34.4708 22.7888 34.3713 23.3114 34.2669 23.8314C34.2511 23.8999 34.1724 23.9998 34.12 24.0051C33.6688 24.0156 33.2176 24.0104 32.7665 24.0051C32.7514 24.0051 32.7362 23.9969 32.7132 23.9844C32.7043 23.9796 32.6943 23.9741 32.6825 23.9683C32.7665 23.5315 32.8504 23.0895 32.9291 22.6475C33.0498 21.9687 33.1652 21.2951 33.2701 20.6163C33.2911 20.5006 33.2806 20.3795 33.2649 20.2638C33.2229 19.8586 32.9239 19.6744 32.5356 19.7954C32.1579 19.9165 31.9323 20.2111 31.7487 20.5374C31.4759 21.0162 31.3815 21.5477 31.2871 22.0792C31.2634 22.2109 31.24 22.3423 31.2166 22.4736C31.1364 22.9246 31.0564 23.3738 30.967 23.8262C30.9513 23.8946 30.8726 23.9998 30.8201 24.0051C30.4523 24.0177 30.081 24.0169 29.6852 24.0161C29.5844 24.0158 29.4819 24.0156 29.3774 24.0156C29.7237 22.2055 30.049 20.4321 30.3742 18.643ZM37.9392 22.9106C37.3831 22.8422 37.0106 22.4528 37.0473 21.9055C37.1633 21.9055 37.2787 21.9073 37.3936 21.9091C37.6215 21.9126 37.847 21.916 38.0703 21.9055C38.6107 21.874 39.1405 21.7845 39.6337 21.5372C40.2632 21.2215 40.557 20.7005 40.5098 20.0217C40.4626 19.3324 40.0901 18.8325 39.4238 18.6325C38.427 18.3326 37.509 18.5431 36.7273 19.2113C35.7777 20.0217 35.421 21.0952 35.5574 22.3212C35.6518 23.1895 36.124 23.8104 36.9844 24.0314C37.9077 24.2682 38.8153 24.1419 39.6914 23.7841C39.7543 23.7578 39.8278 23.6578 39.8225 23.5947C39.8099 23.3378 39.7839 23.081 39.7579 22.8242C39.7514 22.76 39.7449 22.6959 39.7386 22.6317C39.7214 22.6317 39.7085 22.6308 39.6987 22.6301C39.6846 22.6291 39.6766 22.6286 39.6704 22.6317C39.6127 22.6527 39.555 22.6738 39.5025 22.6948C38.9989 22.8895 38.4795 22.9737 37.9392 22.9106ZM38.7521 20.5795C38.4321 20.7479 37.6032 20.8478 37.1993 20.7636C37.2832 20.0638 38.0229 19.5165 38.6472 19.6691C38.8571 19.7218 39.0092 19.8323 39.0459 20.0585C39.0826 20.2795 38.9725 20.4637 38.7521 20.5795ZM42.2883 21.9266C42.2411 22.4423 42.6083 22.837 43.1696 22.9106C43.6942 22.9738 44.1979 22.8948 44.691 22.7159C44.7365 22.6988 44.7804 22.6817 44.8286 22.663C44.8694 22.6471 44.9133 22.63 44.9638 22.6107C44.9741 22.7222 44.9855 22.8314 44.9967 22.9391C45.0199 23.1619 45.0424 23.3783 45.053 23.5947C45.0583 23.6578 44.9848 23.7578 44.9271 23.7841C44.0352 24.1525 43.1172 24.2788 42.1781 24.0209C41.3335 23.7894 40.8928 23.1737 40.7879 22.3318C40.6567 21.2531 40.9348 20.2796 41.685 19.4798C42.4929 18.622 43.4844 18.3168 44.6281 18.6326C45.3258 18.8273 45.6983 19.3324 45.7403 20.0428C45.7822 20.7374 45.4675 21.2583 44.8117 21.5635C44.1507 21.8687 43.4477 21.9161 42.7342 21.9319C42.5926 21.9266 42.4457 21.9266 42.2883 21.9266ZM42.4404 20.8058C42.5359 20.7998 42.6296 20.7951 42.722 20.7905C42.9547 20.7788 43.1789 20.7675 43.4005 20.7374C43.6103 20.7111 43.8202 20.6479 44.009 20.5585C44.2136 20.469 44.3133 20.2796 44.2818 20.0481C44.2504 19.8271 44.1035 19.7218 43.8989 19.6692C43.2798 19.5008 42.5086 20.0691 42.4404 20.8058ZM46.0287 22.9106C45.9605 23.2684 45.8976 23.621 45.8294 24.0104C45.9344 24.0104 46.038 24.0106 46.1404 24.0108C46.544 24.0116 46.929 24.0124 47.314 23.9998C47.3508 23.9998 47.4085 23.8999 47.419 23.8367C47.4725 23.5739 47.5221 23.3098 47.5717 23.0458C47.6631 22.5591 47.7545 22.0726 47.8701 21.5951C48.1272 20.5321 48.5626 20.1638 49.5961 20.027C49.6381 20.0217 49.7063 19.9743 49.7168 19.9375C49.7826 19.6351 49.8416 19.3304 49.9028 19.0143C49.9342 18.8518 49.9663 18.6864 50.0001 18.5168C49.0033 18.4115 48.4472 18.9903 47.9646 19.7007L47.9723 19.5987C47.996 19.2843 48.0201 18.9643 48.0485 18.6273C47.9394 18.6273 47.8324 18.6269 47.7269 18.6266C47.4162 18.6256 47.1185 18.6247 46.8209 18.6325C46.7789 18.6378 46.7002 18.7325 46.695 18.7904C46.5831 20.1428 46.3181 21.4656 46.0534 22.7875C46.0452 22.8285 46.0369 22.8695 46.0287 22.9106Z" fill="black"/>
<path fill-rule="evenodd" clip-rule="evenodd" d="M32.1389 12.2948C32.0857 12.2808 32.0326 12.2667 31.9795 12.2549C31.8169 12.2549 31.6543 12.2549 31.4811 12.2601C31.422 12.272 31.3629 12.2849 31.3033 12.298C31.2306 12.3139 31.1573 12.3299 31.0824 12.3443C30.2798 12.4969 29.5243 12.7758 28.7951 13.1442C27.216 13.944 25.7995 14.9806 24.53 16.2067C23.6853 17.0171 22.8669 17.8643 22.0747 18.7325C20.6845 20.2585 19.4936 21.9371 18.5441 23.7788C18.0562 24.7313 17.6155 25.7048 17.4162 26.7624C17.3794 26.9571 17.4424 27.1834 17.5053 27.3781C17.5316 27.457 17.6785 27.5149 17.7781 27.5465C17.8044 27.557 17.8831 27.4255 17.9198 27.3518C17.9328 27.3233 17.9462 27.294 17.9598 27.2641C18.1876 26.765 18.4957 26.0901 18.763 25.6432C19.3296 24.6961 19.7769 23.963 20.4117 23.0632C21.4295 21.6161 22.6187 20.1963 23.8672 18.9439C25.0476 17.76 26.2297 16.7013 27.7144 15.9015C28.3964 15.5384 29.0941 15.1806 29.8076 14.8859C31.0405 14.3755 32.3258 14.0282 33.6478 13.8335C33.7894 13.8125 33.9783 13.702 34.0255 13.5862C34.0675 13.4809 33.9678 13.281 33.8681 13.181C33.4642 12.7653 32.992 12.4496 32.4045 12.3549C32.3159 12.3417 32.2274 12.3183 32.1389 12.2948ZM20.1284 19.4745C20.3802 18.7904 20.5062 18.08 20.5219 17.3433C20.5149 17.2644 20.5091 17.1855 20.5032 17.1065C20.4916 16.9487 20.4799 16.7908 20.4589 16.6329C20.3173 15.4121 19.7927 14.3755 18.9585 13.4862C18.8589 13.3862 18.7225 13.3073 18.5861 13.2599C18.4497 13.2073 18.3605 13.2862 18.371 13.4441C18.3712 13.4474 18.3715 13.4508 18.3717 13.4541C18.382 13.5878 18.3926 13.7263 18.4182 13.8598C18.455 14.0701 18.4916 14.2806 18.5283 14.4913C18.6585 15.2401 18.789 15.9908 18.9323 16.7382C19.074 17.4907 19.2313 18.2379 19.3992 18.9798C19.4569 19.2166 19.5514 19.4534 19.6668 19.6744C19.756 19.8428 19.8819 19.827 19.9973 19.6744C20.0497 19.6113 20.1022 19.5481 20.1284 19.4745Z" fill="#FC461E"/>
</svg>
